<?xml version="1.0" encoding="UTF-8" standalone="no"?>
<!-- Created with Inkscape (http://www.inkscape.org/) -->

<svg
   width="319.6561mm"
   height="49.190201mm"
   viewBox="0 0 319.65609 49.1902"
   version="1.1"
   id="svg1"
   inkscape:export-filename="..\..\..\..\..\..\Users\Jakub\Desktop\big-logo.svg"
   inkscape:export-xdpi="96"
   inkscape:export-ydpi="96"
   sodipodi:docname="big-logo.svg"
   inkscape:version="1.3.2 (091e20e, 2023-11-25, custom)"
   xmlns:inkscape="http://www.inkscape.org/namespaces/inkscape"
   xmlns:sodipodi="http://sodipodi.sourceforge.net/DTD/sodipodi-0.dtd"
   xmlns="http://www.w3.org/2000/svg"
   xmlns:svg="http://www.w3.org/2000/svg">
  <sodipodi:namedview
     id="namedview1"
     pagecolor="#ffffff"
     bordercolor="#000000"
     borderopacity="0.25"
     inkscape:showpageshadow="2"
     inkscape:pageopacity="0.0"
     inkscape:pagecheckerboard="0"
     inkscape:deskcolor="#d1d1d1"
     inkscape:document-units="mm"
     inkscape:export-bgcolor="#ffffffff"
     inkscape:zoom="0.70710678"
     inkscape:cx="429.21382"
     inkscape:cy="-168.99852"
     inkscape:window-width="2560"
     inkscape:window-height="1369"
     inkscape:window-x="-8"
     inkscape:window-y="-8"
     inkscape:window-maximized="1"
     inkscape:current-layer="layer1" />
  <defs
     id="defs1" />
  <g
     inkscape:label="Warstwa 1"
     inkscape:groupmode="layer"
     id="layer1"
     transform="translate(0.04534324,-4.9180753)">
    <g
       id="g37"
       transform="matrix(0.26458333,0,0,0.26458333,-56.796046,5.935877)">
      <path
         id="path21"
         d="m 1298.9501,130.81521 c 4.1863,1.41525 6.2684,0.23907 7.1295,-3.87177 0.2572,-1.22812 2.2759,-2.81885 3.6298,-2.96994 10.865,-1.21274 14.9071,4.09262 11.23,14.48975 -1.4672,4.14859 -4.0752,6.59088 -8.894,6.48749 -8.1613,-0.17518 -16.3303,0.0373 -24.4959,0.0235 -5.3677,-0.009 -7.5022,-2.03912 -7.5817,-7.53961 -0.1132,-7.83078 0.1537,-15.66958 -0.086,-23.49437 -0.07,-2.27301 -1.0056,-4.67653 -2.0993,-6.72386 -1.6043,-3.00327 -0.9459,-9.3037 1.4284,-11.83018 0.9382,-0.99833 1.5397,-2.4348 1.9468,-3.77723 0.429,-1.41488 0.4508,-2.95466 0.636,-4.44166 0.1598,-1.28308 0.299,-2.568684 0.4397,-3.786534 15.8884,-1.5558 15.1477,-0.79242 15.9685,11.892594 4.362,0 8.8159,-0.17438 13.2504,0.0454 5.2162,0.25851 7.4976,2.98724 7.2214,8.09404 -0.2878,5.32147 -2.5285,7.50282 -7.7664,7.36383 -4.1259,-0.10948 -8.2478,-0.37136 -12.8703,-0.58902 -0.3182,6.16548 -0.6844,12.10411 -0.8609,18.04838 -0.024,0.80106 0.9068,1.6305 1.7745,2.57923 z m -371.99657,14.12646 c -7.82031,-0.0217 -15.14322,-0.15689 -22.46106,-0.02 -4.55816,0.0853 -5.97616,-1.867 -6.91507,-6.37472 -1.7435,-8.37094 1.75257,-12.9549 8.51969,-16.84642 5.11108,-2.93923 9.63766,-6.89496 14.42437,-10.39827 -0.11984,-0.47338 -0.23971,-0.94673 -0.35955,-1.42011 -5.37854,0 -10.75879,0.0862 -16.13511,-0.023 -5.98358,-0.1216 -6.87951,-1.21294 -6.48467,-7.18518 0.16189,-2.44901 0.24658,-4.90311 0.36633,-7.35354 9.92346,0 19.5252,-0.0453 29.12616,0.0231 3.65399,0.026 7.31677,0.19914 10.95364,0.53958 1.38983,0.13011 3.11542,0.53888 4.0015,1.47233 2.83389,2.98536 0.86743,16.2864 -2.60718,18.66173 -5.89618,4.03078 -11.83743,7.99567 -17.74985,12.00284 -0.0702,0.0476 -0.009,0.28931 -0.009,0.99954 4.22989,0 8.46518,-0.017 12.70029,0.004 7.63593,0.0374 9.30066,1.65748 9.67178,9.31489 0.0959,1.97787 0.24094,3.95336 0.40522,6.60504 -5.73597,0 -11.34211,0 -17.44776,-0.001 z m 173.00157,0.005 c -6.6549,-0.022 -12.8111,-0.12863 -18.9642,-0.0359 -4.0557,0.0611 -6.325,-1.47668 -6.3042,-5.78662 0.01,-1.4801 -0.2102,-2.98379 -0.5098,-4.43866 -0.875,-4.24935 0.5068,-7.38733 4.1346,-9.81909 5.1078,-3.42395 10.0731,-7.06149 15.0756,-10.64096 1.2617,-0.90286 2.433,-1.93208 3.6459,-2.90323 -0.1314,-0.483 -0.2629,-0.96602 -0.3943,-1.44903 -5.4058,0 -10.8158,-0.12899 -16.2163,0.0401 -4.4461,0.13922 -6.4953,-1.68265 -6.231,-6.20086 0.1627,-2.78022 0.03,-5.57769 0.03,-8.40612 9.9936,0 19.4177,-0.0507 28.8408,0.024 3.9858,0.0316 7.9682,0.40885 11.9548,0.4772 3.3081,0.0567 4.5007,1.6776 4.9875,4.87868 1.3633,8.96438 -1.1469,15.49057 -9.8874,19.45535 -4.2589,1.93188 -7.9431,5.13052 -11.5672,8.87656 4.2228,0 8.4458,-0.0185 12.6686,0.004 7.5256,0.0401 9.39,1.83097 9.6981,9.36292 0.08,1.96381 0.012,3.93371 0.012,6.56161 -6.9436,0 -13.7087,0 -20.9737,-3e-5 z m -115.10624,0.0393 c -2.76316,0.002 -5.05552,0.002 -7.92993,0.002 0,-12.18888 0,-23.92201 0,-35.67829 -11.76966,0.81957 -11.76969,0.81957 -11.76969,12.00917 0,7.29885 3e-5,14.59771 3e-5,22.39476 -6.08752,0.46662 -11.78183,0.90311 -17.81109,1.3653 0,-16.90433 0,-33.15042 0,-48.51213 13.66384,-0.61427 27.16989,-1.13306 40.66357,-1.87639 4.67252,-0.25742 6.54318,2.30571 6.59537,6.23544 0.16818,12.65795 0.17447,25.32224 -0.0447,37.97907 -0.0875,5.04983 -1.8508,5.97272 -9.70355,6.08145 z m -199.06264,-0.0251 c -3.26585,0.007 -6.06714,0.007 -9.40079,0.007 0,-12.03567 0,-23.62685 0,-35.68982 -2.79089,0.237 -5.03387,0.61025 -7.27017,0.57382 -3.22577,-0.0525 -4.29096,1.27275 -4.21802,4.50811 0.19527,8.66075 0.0713,17.32884 0.0558,25.994 -0.002,0.97336 -0.12132,1.94647 -0.21174,3.30188 -5.77823,0.49176 -11.35799,0.96664 -17.39212,1.48019 0,-16.76257 0,-33.13534 0,-48.6803 13.21782,-0.53712 26.39241,-1.1268 39.57164,-1.58262 5.66464,-0.19592 7.64192,1.57936 7.62603,7.28654 -0.0348,12.49199 -0.32482,24.98349 -0.54304,37.47464 -0.0934,5.34735 -3.89481,5.40097 -8.21759,5.32612 z m 74.36098,-0.10862 c -1.80301,-0.0273 -3.15186,0.0792 -4.45983,-0.10467 -6.35731,-0.89365 -8.24333,-3.0184 -8.32118,-9.42279 -0.12335,-10.14777 -0.22862,-20.29613 -0.26186,-30.44451 -0.028,-8.56399 2.42223,-10.64229 11.08751,-10.32937 8.80942,0.3181 17.63282,0.22572 26.44693,0.44238 8.8346,0.21715 11.86209,3.78619 10.79508,12.44932 -1.2872,10.45081 -1.29364,10.24788 -11.65433,10.57709 -4.04452,0.12851 -6.06634,-0.84508 -6.63135,-5.08633 -0.95227,-7.14804 -6.5809,-3.26041 -11.08505,-4.7262 0,7.10301 -0.12317,13.50968 0.1319,19.90125 0.0385,0.96545 1.87539,2.67761 2.81833,2.63607 2.90643,-0.12814 6.35815,-0.13082 8.53177,-1.67913 3.02432,-2.1543 15.48461,-3.71595 16.27795,-0.7193 0.99777,3.76883 0.90427,8.29095 -0.28101,11.98681 -0.63864,1.99131 -4.47159,3.99784 -6.98221,4.16022 -8.61819,0.55756 -17.28891,0.30371 -26.41265,0.35916 z m 280.1096,-35.37695 c -3.0477,0.27168 -5.7056,0.43373 -8.3553,0.34613 -3.5646,-0.11786 -7.379,-0.26822 -7.821,-5.03665 -0.3819,-4.12088 4.2834,-9.61869 8.2367,-9.74213 6.1568,-0.19224 12.3222,-0.11389 18.484,-0.13432 4.4964,-0.0149 9.0011,-0.17551 13.4871,0.0404 5.0579,0.24345 7.5862,2.93211 7.6866,7.91437 0.2516,12.48251 0.3931,24.96725 0.649,37.44967 0.066,3.21195 -0.8438,4.84989 -4.5348,4.73947 -10.6514,-0.31866 -21.3132,-0.27856 -31.9692,-0.4728 -1.9805,-0.0361 -4.0636,-0.19312 -5.9068,-0.84159 -4.1202,-1.44958 -7.3815,-3.51452 -6.4133,-8.98883 0.7489,-4.23483 0.5973,-8.62164 1.0062,-12.92569 0.5313,-5.59123 2.9905,-7.80145 8.7476,-7.93437 5.3274,-0.123 10.6732,0.0842 15.9762,-0.31541 1.4926,-0.11249 2.8629,-1.84943 4.2893,-2.84125 -1.3797,-0.99268 -2.7484,-2.79283 -4.1413,-2.81177 -3.0026,-0.0408 -6.0176,0.83386 -9.421,1.55475 m 12.1004,22.155 c 0.6987,-2.33603 1.3975,-4.67203 2.222,-7.42862 -4.8799,0 -8.4752,0 -12.1442,0 -1.2696,4.41678 -0.4481,7.0292 4.6226,6.86972 1.4759,-0.0464 2.9659,0.35699 5.2996,0.5589 z m -455.81484,4.4913 c -0.21962,-11.25702 -0.47463,-22.07913 -0.50643,-32.9019 -0.0172,-5.8578 2.855,-8.59448 8.5854,-8.55762 9.99208,0.0643 19.98429,0.1635 29.9753,0.32036 6.48193,0.10175 9.58859,3.12782 9.58461,9.43817 -0.007,10.49257 -0.0929,20.98578 -0.24353,31.4773 -0.0908,6.33014 -2.83565,8.9581 -9.3006,8.99908 -9.65973,0.0613 -19.32012,0.0701 -28.98,0.036 -6.80928,-0.024 -8.34364,-1.49356 -9.11475,-8.81143 m 18.31485,-10.07483 c 0.45083,5.44251 3.72965,6.9848 10.86772,5.00931 0,-7.17151 0,-14.37789 0,-21.95693 -3.6709,0 -7.03555,0 -10.87687,0 0,5.47786 0,10.74677 0.009,16.94762 z m 656.90229,-13.48274 c -0.9684,16.23958 -4.428,14.4629 -15.9078,14.24074 -3.497,-0.0677 -7.0141,-0.37247 -10.4795,-0.0741 -1.1682,0.10062 -2.2047,1.7302 -3.3014,2.66098 1,0.853 2.0569,2.48755 2.9898,2.41962 3.4794,-0.25342 6.9065,-1.46851 10.3749,-1.56809 4.5849,-0.13168 9.2444,0.14008 13.7483,0.93674 1.1096,0.19626 2.7261,3.32617 2.4019,4.70636 -0.8565,3.64728 -2.1059,8.20785 -6.6166,8.41907 -11.6334,0.54474 -23.3037,0.59652 -34.9507,0.38293 -3.7288,-0.0684 -5.9361,-3.0997 -5.9904,-6.85608 -0.1711,-11.82342 -0.2688,-23.65198 -0.099,-35.4743 0.069,-4.80675 4.1064,-8.05133 9.1158,-7.96918 9.3226,0.15288 18.6441,0.36675 27.9662,0.54813 8.1768,0.1591 11.2503,3.42303 10.9727,11.67384 -0.062,1.83112 -0.1334,3.66191 -0.2241,5.95334 m -30.4664,0.73192 c 0.9922,1.03955 1.8462,2.74962 3.0034,2.98805 3.0037,0.61887 6.1409,0.59053 9.6856,0.85486 -0.1724,-3.11663 -0.3054,-5.52005 -0.4654,-8.41113 -3.0594,0 -5.7019,0.17631 -8.3103,-0.0468 -2.9449,-0.2518 -3.8458,1.23429 -3.9133,4.61498 z m -515.32095,13.46487 c -2.82217,-0.0602 -5.19629,-0.39016 -7.46507,-0.0392 -1.26208,0.19519 -2.34865,1.52514 -3.5143,2.34372 1.03867,0.96923 2.12508,2.80407 3.10727,2.74987 3.30886,-0.18255 6.56478,-1.40265 9.87042,-1.54583 4.59443,-0.19904 9.23423,0.0395 13.80867,0.52426 0.87568,0.0928 2.02961,2.11932 2.21511,3.37759 0.81247,5.51123 -3.46947,10.36279 -9.07596,10.44971 -9.82027,0.15225 -19.64179,0.27002 -29.46307,0.29703 -6.12835,0.0168 -8.44376,-2.27131 -8.60375,-8.35718 -0.2755,-10.47998 -0.55313,-20.96083 -0.69279,-31.44315 -0.0931,-6.98298 3.9692,-10.95617 10.77525,-10.79416 8.81651,0.20983 17.63391,0.40177 26.44797,0.69109 8.62231,0.28303 11.8455,3.7457 11.40819,12.20933 -0.20588,3.98403 -0.55066,7.96199 -0.8926,11.93754 -0.44992,5.23141 -3.11259,7.67666 -8.4449,7.72756 -2.9955,0.0286 -5.9922,-0.0714 -9.48044,-0.12814 m -4.4192,-18.19559 c -2.25781,0.16286 -4.51561,0.32572 -6.5894,0.47532 -2.78553,6.51388 0.22104,9.1565 11.52598,7.18145 -0.31518,-3.1743 2.17617,-7.65899 -4.93658,-7.65677 z M 1394.7775,88.77395 c -0.3286,7.08214 -0.6433,13.68168 -1.0168,21.51267 6.5276,-5.5285 12.1619,-10.3004 17.7534,-15.0361 0.4167,0.0906 0.8217,0.0568 1.0364,0.24272 13.05,11.30171 13.0458,11.30054 0.5834,22.88205 -0.5952,0.55308 -1.0697,1.23596 -1.8048,2.09817 3.1569,2.87653 6.1599,5.71944 9.2817,8.42528 2.7361,2.37149 2.5677,4.56329 0.317,7.24127 -8.2955,9.87036 -8.2486,9.9101 -17.9932,1.69651 -2.8771,-2.42511 -5.7532,-4.85144 -8.6298,-7.27719 -0.5004,0.13729 -1.0009,0.27462 -1.5013,0.41195 0,3.05945 0.2335,6.14542 -0.1097,9.16586 -0.1468,1.2916 -1.3559,3.3624 -2.3215,3.50946 -4.8887,0.74476 -9.8559,0.97355 -15.1834,1.41538 0,-22.82916 0,-45.19928 0,-67.920304 6.4322,-0.33635 12.8101,-0.66986 19.6025,-1.02504 0,4.28578 0,8.23024 -0.014,12.657314 z m -148.9124,25.01378 c 2.315,-0.0353 4.1476,-0.0883 5.98,-0.0788 3.6024,0.0187 4.8058,-1.69974 3.5896,-5.6453 -4.1733,0.38861 -8.0319,-1.73443 -12.9919,1.16316 -3.387,1.97872 -9.2822,0.0351 -13.9339,-0.8193 -0.9877,-0.1814 -2.352,-3.48218 -1.9725,-4.93591 1.0062,-3.85526 2.7056,-8.19114 7.4335,-8.35082 11.3172,-0.38228 22.6571,-0.31996 33.9822,-0.11926 3.8789,0.0687 5.9456,2.78955 6.0364,6.6573 0.3085,13.15453 0.5354,26.31098 0.7917,39.46671 0.01,0.33294 0.1326,0.77914 -0.032,0.98281 -3.3814,4.18604 -4.297,8.36908 -0.1032,12.60782 -1.078,1.05957 -1.9928,2.7371 -3.262,3.07209 -5.5811,1.47308 -11.5726,-4.42072 -10.709,-10.245 0.1172,-0.7904 0.084,-1.60312 0.1356,-2.72601 -7.002,0 -13.8048,0.0988 -20.6022,-0.0476 -2.8052,-0.0604 -5.6962,-0.30737 -8.3755,-1.07327 -4.0932,-1.17014 -6.4359,-3.86511 -5.9337,-8.53336 0.4984,-4.63162 0.6547,-9.29916 1.099,-13.93773 0.4511,-4.70887 3.1811,-7.17512 7.8897,-7.32521 3.4961,-0.11143 6.997,-0.0733 10.9782,-0.11235 m -1.6521,12.62026 c 0.7181,1.45621 1.2382,3.99588 2.1906,4.16992 3.1328,0.57236 6.4237,0.33517 9.6482,0.23142 0.2329,-0.007 0.7057,-1.4983 0.5692,-2.20304 -0.2939,-1.51779 -0.9535,-4.26404 -1.3912,-4.25 -3.6417,0.11652 -7.267,0.7468 -11.0168,2.0517 z m -68.8826,-28.53012 c 4e-4,-7.12265 4e-4,-13.745474 4e-4,-20.694674 7.0327,-0.38955 13.4153,-0.74308 19.9531,-1.10521 0,11.042614 0,21.633784 0,33.361784 4.1937,-3.57519 8.0352,-6.76123 11.7765,-10.061 5.38,-4.74521 5.3479,-4.77967 10.2768,0.21635 1.0528,1.0672 2.1379,2.10346 3.1686,3.19145 3.7285,3.93625 3.6568,6.53389 -0.34,10.10219 -2.7135,2.42255 -5.4937,4.77028 -8.5229,7.39282 3.2753,2.9334 6.2177,5.61069 9.2071,8.23441 3.0173,2.64822 3.0686,5.30322 0.1716,8.05878 -2.8838,2.74295 -5.7551,5.49896 -8.9294,8.53369 -5.819,-4.91828 -11.4765,-9.70001 -18.4387,-15.5846 0,4.1052 -0.062,6.79483 0.016,9.48041 0.095,3.26874 -1.2108,4.86917 -4.677,4.96365 -4.2915,0.11701 -8.5714,0.65723 -13.6624,1.08185 0,-15.84463 0,-31.25834 3e-4,-47.1719 z m -130.2796,11.00504 c -0.1543,15.47981 -0.233,30.46166 -0.4796,45.44072 -0.1673,10.15375 -2.7993,12.67721 -12.8711,12.50687 -8.3156,-0.14063 -16.6316,-0.39441 -24.9406,-0.75516 -6.4663,-0.28076 -9.85788,-4.051 -9.78882,-10.52896 0.0942,-8.83566 8.04082,-13.55216 16.08552,-9.43463 0.8403,0.43002 1.5829,1.76168 1.6993,2.75384 0.2842,2.42163 0.7621,4.50009 3.81,3.81168 2.8639,-0.64685 6.7944,0.0515 7.0998,-4.57205 0.1281,-1.93909 0.021,-3.89368 0.021,-6.50236 -6.4229,0.48121 -12.3233,1.02823 -18.236,1.33866 -6.834,0.35883 -9.45343,-2.14966 -9.63803,-8.87699 -0.31497,-11.477 -0.63888,-22.95376 -0.94482,-34.43098 -0.0431,-1.61801 -0.006,-3.23816 -0.006,-4.6255 0.74075,-0.38648 1.01818,-0.63777 1.32141,-0.67412 14.00564,-1.67908 15.64294,-0.35373 16.48604,13.6604 0.2898,4.81665 0.2033,9.65828 0.573,14.46666 0.1589,2.06656 -0.315,5.27621 3.4864,4.61828 3.1215,-0.54028 7.0963,-0.21362 7.3396,-5.00443 0.3292,-6.47928 0.5973,-12.96229 0.8196,-19.44616 0.2096,-6.11227 1.6143,-7.56498 7.7053,-7.81779 3.2819,-0.13623 6.561,-0.33747 10.4618,-0.54186 0,4.90986 0,9.51229 0,14.61388 z M 671.20341,76.788486 c 7.27981,-0.10584 14.08982,-0.10584 20.66724,-0.10584 0.42172,0.58861 0.76332,0.84552 0.78421,1.12629 0.78645,10.570814 1.67467,21.137404 2.1904,31.722064 0.0998,2.04921 -1.32678,4.15353 -1.94733,6.26243 -0.64492,2.19173 -1.51911,4.39611 -1.66963,6.63683 -0.3344,4.97812 -0.47044,9.988 -0.32576,14.97442 0.12939,4.45868 -1.08266,6.8779 -6.16304,6.64319 -3.72453,-0.17206 -7.49261,0.59885 -11.00905,0.9278 -2.29183,-4.7273 1.52608,-10.23386 -3.43477,-14.21097 -0.27613,1.22589 -0.47661,2.00269 -0.62447,2.7894 -2.00541,10.67013 -2.42381,11.03372 -13.13891,11.14331 -8.82353,0.0902 -17.64722,0.21704 -26.47089,0.22226 -5.32788,0.003 -7.09318,-1.89505 -7.112,-7.2688 -0.002,-0.49933 -0.0853,-1.02859 0.0471,-1.49326 0.86476,-3.03674 1.41275,-8.44711 2.74316,-8.65097 4.46528,-0.68417 9.23773,-2.43554 13.9019,1.93113 2.26674,2.12216 7.71702,0.96255 11.72445,0.94323 0.4549,-0.002 1.40776,-2.35037 1.18993,-3.41916 -0.18002,-0.8833 -1.68687,-2.00003 -2.71352,-2.12439 -6.26995,-0.75964 -12.57097,-1.26193 -18.86097,-1.85705 -6.38902,-0.60449 -8.01144,-2.39058 -7.92102,-8.91779 0.0576,-4.15968 0.13003,-8.32544 0.41149,-12.47384 0.2441,-3.59769 1.98561,-5.84127 5.97355,-5.93273 10.64479,-0.24411 21.28791,-0.86496 31.92981,-0.82553 7.2914,0.027 11.57528,7.85913 8.22671,14.21037 -1.88925,3.58336 -12.58283,3.90018 -15.64354,0.13007 -3.47861,-4.28488 -7.47034,-0.82759 -11.16785,-1.09933 -0.72343,-0.0532 -1.63466,2.4487 -2.48238,3.80921 9.82116,4.44161 21.17245,-0.99925 30.20545,8.11556 0.88669,-3.99094 2.35905,-7.56854 2.32556,-11.132 -0.0609,-6.4744 1.25586,-12.9544 -2.39562,-19.43158 -1.76463,-3.13019 0.0797,-8.294944 0.75983,-12.644324 z"
         style="fill:#ff9452;fill-opacity:1" />
    </g>
    <g
       id="g36"
       transform="matrix(0.26870622,0,0,0.25965002,-64.277657,1.3999834)">
      <path
         fill="#ee8c02"
         opacity="1"
         stroke="none"
         d="m 424.54951,190.80023 c -23.19139,0.36008 -46.39627,0.34285 -69.57113,1.16576 -37.83583,1.34352 -75.70749,2.65979 -112.90859,10.7776 -0.73884,0.16123 -1.54402,0.0202 -2.74958,0.0202 12.09429,-15.6015 20.95419,-31.61876 4.63538,-49.88088 -0.73658,-0.32383 2.4059,-0.42873 3.30059,-0.25013 24.66543,4.92401 52.5103,4.3468 77.1817,9.24056 18.36873,3.64356 33.58693,12.6434 51.95074,16.31085 14.11722,2.81935 28.20907,5.78013 42.24598,8.96789 2.10891,0.47893 5.91151,-0.65167 5.91491,3.64812 z"
         id="path2"
         style="stroke-width:1.0015"
         sodipodi:nodetypes="ssscccsssss" />
      <path
         fill="#eebf01"
         opacity="1"
         stroke="none"
         d="m 349.91989,78.848004 c 10.13766,-4.832604 20.36588,-10.493336 28.99942,-18.764676 2.33847,0.237538 19.44357,0.722581 21.0615,1.050084 19.57586,3.962681 23.65969,7.791698 43.23727,11.746074 29.44955,5.948364 58.89609,11.91214 88.36835,17.745667 1.12207,0.222084 2.49932,-0.844971 3.75763,-1.31131 4.83398,4.966125 9.51086,10.098221 14.53967,14.858517 7.10357,6.72429 16.21002,8.4331 25.50549,9.82197 9.33295,1.39449 18.0957,-0.89159 26.93732,-3.10909 1.70184,-0.42681 3.4353,-0.72745 5.46826,-0.26627 -5.60742,3.59021 -11.51939,7.42811 -17.59501,10.85531 -1.92475,-0.86394 -3.5001,-1.50838 -5.03599,-1.82661 -22.50665,-4.66335 -44.53514,-9.89672 -67.07707,-14.38607 -1.31531,-0.26197 -2.4919,0.49873 -3.91914,0.79857 -9.63106,-8.606119 -24.07935,-13.126314 -37.04583,-15.252155 -24.5591,-4.02644 -26.01245,-3.47064 -52.19437,-4.502755 -1.51967,-0.05991 -21.5375,2.684791 -26.53475,4.651436 -2.16889,-1.167824 -4.11973,-1.392955 -5.78877,-1.76324 -5.59882,-1.242119 -11.14531,-2.38044 -16.73766,-3.647454 -8.60068,-1.948585 -17.37863,-4.603829 -25.94632,-6.697998 z"
         id="path3"
         inkscape:label="path3"
         sodipodi:nodetypes="cccsscsssccsscsscssc" />
      <path
         fill="#ee9303"
         opacity="1"
         stroke="none"
         d="m 424.45953,190.79402 c -0.46728,-4.37319 -4.25851,-3.16298 -6.36111,-3.64191 -13.99494,-3.18776 -28.04465,-6.14854 -42.11966,-8.96789 -18.3089,-3.66745 -36.67215,-7.06279 -54.98596,-10.70635 -24.59763,-4.89376 -49.16867,-9.92105 -73.76035,-14.84506 -0.89201,-0.1786 -1.91606,0.0736 -3.21589,0.29941 -1.79581,-0.92614 -3.20119,-1.94119 -4.64119,-3.01199 -0.49454,-0.51773 -0.48134,-0.51002 0.33956,-0.6297 9.66758,-1.2067 20.12879,-0.52539 29.83399,-4.24442 2.31464,1.22278 4.06912,2.47778 6.00391,2.89328 11.4436,2.45754 22.92913,4.72014 34.54123,7.26299 0.40728,0.0667 0.67388,-0.0812 0.92584,-0.20295 -0.0147,0.0261 -0.047,0.0767 -0.047,0.0767 4.332,-0.86892 8.66403,-1.73783 13.58667,-2.29137 8.90652,2.2941 17.78376,3.88793 26.16676,5.52253 4.52264,0.88183 8.63274,1.38523 13.26335,1.71334 1.07514,0.18646 2.15024,0.37292 3.73053,0.9929 2.08936,1.23224 4.11546,1.87393 5.79334,2.22519 8.87461,1.85779 17.45607,3.18121 26.34008,4.99634 2.21899,0.45338 5.66302,0.83361 5.62567,4.62332 -9.03351,0.77091 -18.55111,1.49114 -27.58462,2.26204 7.4e-4,0.16707 0.001,0.33414 0.002,0.50121 18.67295,1.09887 37.37305,1.86558 56.01126,3.38905 19.04978,1.55711 38.06668,3.62408 57.04657,5.89696 18.77707,2.24858 37.09653,6.60214 54.77347,13.53814 -40.11896,-5.46778 -80.42144,-7.13544 -121.26483,-7.64377 z"
         id="path5"
         inkscape:label="path5"
         sodipodi:nodetypes="cssssccccsccccccccscccssccc" />
      <path
         fill="#eec902"
         opacity="1"
         stroke="none"
         d="m 535.40463,89.387534 c -1.09943,0.735748 -3.18846,2.03289 -4.31053,1.810806 -29.47226,-5.833527 -58.42647,-12.37049 -87.87602,-18.318854 -19.57758,-3.954376 -39.15314,-7.918495 -58.729,-11.881176 -1.61793,-0.327503 -3.61751,-0.446645 -5.65361,-0.814943 3.7409,-5.912399 9.33307,-13.332801 14.21801,-19.352287 9.53904,1.718922 17.16399,2.733418 26.01305,4.411897 1.26215,0.239402 2.89303,1.452107 4.28314,1.016876 13.22791,12.824475 30.02451,17.300381 47.4924,19.418484 15.41562,1.869248 29.01096,-3.831444 41.41684,-12.605705 3.42517,-2.422497 6.70154,-5.055397 10.04614,-7.591744 0.375,0.253407 0.75006,0.506813 1.12506,0.76022 -0.63708,2.830345 -1.07629,5.723324 -1.9486,8.479217 -2.55518,8.072548 -2.62336,15.588879 3.61261,22.280789 3.49621,3.751793 6.85275,8.181349 10.31051,12.38642 z"
         id="path7"
         sodipodi:nodetypes="ccssccscssccssc" />
      <path
         fill="#eeb203"
         opacity="1"
         stroke="none"
         d="m 350.10242,78.758804 c 8.92749,2.032112 17.47082,4.233582 26.0715,6.182167 5.59235,1.267014 11.29269,2.055054 16.89151,3.297173 1.66904,0.370285 3.64788,1.53947 5.38488,2.701778 -13.41076,4.788993 -27.52145,9.105858 -41.02117,13.763398 -3.3913,1.17002 -6.80656,3.60403 -10.66981,5.2856 -5.73697,-1.47642 -10.31716,-3.30159 -15.44524,-4.30237 -10.69666,-2.08747 -21.48612,-3.20274 -32.22464,-5.07563 -0.95383,-6.829287 -5.46198,-11.597515 -10.62381,-15.51376 -3.33719,-2.531921 -6.155,-5.748382 -8.81058,-9.429535 23.29126,7.801003 46.37506,12.476281 70.44736,3.091179 z"
         id="path15"
         sodipodi:nodetypes="csscscccscc" />
      <path
         fill="#eeba03"
         opacity="1"
         stroke="none"
         d="m 514.05008,105.9908 c -1.43583,-1.24771 2.75211,-1.46883 4.06742,-1.20686 22.54193,4.48935 45.03198,9.56351 67.53863,14.22686 1.53589,0.31823 2.92352,1.35185 4.57629,2.44197 -2.41205,5.94603 -5.27048,11.80682 -8.51706,17.5759 -2.72742,-0.25878 -4.55331,-1.10332 -6.65738,-1.49301 -10.03906,-1.85942 -20.00761,-3.33022 -30.05155,-5.16323 -8.38013,-10.68785 -18.93712,-19.5476 -30.95635,-26.38163 z"
         id="path22"
         sodipodi:nodetypes="ccsccccc" />
      <path
         fill="#eea502"
         opacity="1"
         stroke="none"
         d="m 299.08859,100.46384 c 10.76114,1.41201 21.52884,3.13524 32.2255,5.22271 5.12808,1.00078 10.12167,2.69085 15.5188,4.23255 -4.23536,3.55163 -9.04901,6.67046 -13.31818,10.41078 -3.53156,3.09408 -6.71252,7.17675 -10.51522,10.73749 -4.46259,-0.90597 -9.83448,0.0834 -13.62977,-1.01242 -5.41885,-1.5646 -18.47613,-2.47582 -14.45034,-7.10187 3.14185,-7.02397 4.98434,-14.26953 4.16921,-22.48924 z"
         id="path23"
         sodipodi:nodetypes="cccscscc" />
      <path
         fill="#eeac03"
         opacity="1"
         stroke="none"
         d="m 544.99121,132.36948 c 9.98114,1.48831 20.04947,3.05907 30.08853,4.91849 2.10407,0.38969 4.18018,0.93025 6.67267,1.4564 -1.8385,10.35355 -2.92172,21.69317 -1.2728,32.58129 -6.39898,-0.24339 -12.17939,-1.06913 -18.11365,-1.73563 -1.77539,-4.27569 -3.51391,-9.23243 -5.52105,-13.3964 -3.80225,-7.8882 -7.84686,-15.65956 -11.8537,-23.82415 z"
         id="path24"
         sodipodi:nodetypes="cscccsc" />
      <path
         fill="#ee9905"
         opacity="1"
         stroke="none"
         d="m 364.02069,160.0303 c -4.77585,0.0225 -9.38095,-0.21074 -13.90359,-1.09257 -8.383,-1.6346 -17.07795,-3.79123 -25.57431,-6.14052 25.85104,-7.73166 52.58477,-8.37801 79.18499,-3.31696 -6.59268,1.46717 -13.21798,2.80365 -19.76892,4.4381 -6.59805,1.64622 -13.23642,3.9488 -19.93817,6.11195 z"
         id="path25"
         sodipodi:nodetypes="ccccsc" />
      <path
         fill="#ee9e05"
         opacity="1"
         stroke="none"
         d="m 562.26141,169.35236 c 5.88495,0.31506 11.81922,0.98158 18.17865,1.64897 1.78003,14.58452 11.32214,24.55308 24.29674,31.7418 -9.66436,0.61124 -18.39586,-0.0905 -26.95262,0.0561 -1.29626,0.0222 -3.16321,-2.4552 -3.87372,-4.15042 -4.01703,-9.58529 -7.76208,-19.28454 -11.64905,-29.29644 z"
         id="path26"
         sodipodi:nodetypes="cccscc" />
      <path
         fill="#ee9b02"
         opacity="1"
         stroke="none"
         d="m 294.72919,123.19121 c 5.65326,1.4583 11.02176,3.19745 16.44061,4.76205 3.79529,1.09584 7.65942,1.95339 11.87286,3.07262 -2.10592,5.00111 -5.02708,10.65756 -8.13883,15.58949 -6.41232,-1.21391 -11.84636,-3.0891 -17.57491,-4.60797 -4.95178,-1.3129 -10.1407,-2.86254 -15.02751,-4.42061 3.92429,-4.6397 8.24025,-9.5496 12.42778,-14.39558 z"
         id="path27"
         sodipodi:nodetypes="csccscc" />
      <path
         fill="#eed205"
         opacity="1"
         stroke="none"
         d="m 423.44489,46.310136 c -1.21335,0.688927 -3.00742,1.874274 -4.26957,1.634872 -8.84906,-1.678479 -17.93724,-3.920147 -27.16643,-5.793541 2.9638,-9.242214 6.6512,-18.634694 10.30089,-28.602106 4.93845,12.260919 11.49156,23.605978 21.13511,32.760775 z"
         id="path28"
         sodipodi:nodetypes="csccc" />
      <path
         fill="#ee9905"
         opacity="1"
         stroke="none"
         d="m 405.46112,172.86401 c -0.42859,-3.84607 -3.75838,-3.29744 -5.97737,-3.75082 -8.88401,-1.81513 -17.61778,-3.4763 -26.49239,-5.33409 -1.67788,-0.35126 -3.3341,-1.47707 -5.03725,-2.57091 10.32662,0.11604 20.95132,0.13545 31.36346,0.96588 13.4085,1.06937 26.63705,3.27522 38.85293,9.39066 -0.008,0.45187 -0.0159,0.90373 -0.0238,1.3556 -10.73987,0 -21.47977,0 -32.68558,-0.0563 z"
         id="path29"
         sodipodi:nodetypes="ssscsccss" />
      <path
         fill="#ee9500"
         opacity="1"
         stroke="none"
         d="m 282.38184,137.49222 c 5.19802,1.38244 10.03338,3.13473 14.98516,4.44763 5.72855,1.51887 11.55967,2.651 17.7403,4.10712 -1.22794,2.8764 -2.84988,5.59671 -4.3031,8.67306 0.1687,0.35607 0.66639,0.57223 0.4079,0.32909 0.69466,0.89705 -0.97166,0.0818 -1.14994,0.23129 -11.47141,-2.32817 -23.43519,-3.65321 -34.63988,-7.09334 -3.60447,-1.10667 -4.18082,-1.81743 -6.09211,-3.07906 3.99042,-2.70947 8.67648,-5.12522 13.05167,-7.6158 z"
         id="path30"
         inkscape:label="path30"
         sodipodi:nodetypes="ssccccscss" />
    </g>
  </g>
</svg>
