<?xml version="1.0" encoding="UTF-8" standalone="no"?>
<!-- Created with Inkscape (http://www.inkscape.org/) -->

<svg
   width="248.12848mm"
   height="88.55471mm"
   viewBox="0 0 248.12848 88.55471"
   version="1.1"
   id="svg1"
   inkscape:version="1.3.2 (091e20e, 2023-11-25, custom)"
   sodipodi:docname="footer-logo.svg"
   inkscape:export-filename="tut.svg"
   inkscape:export-xdpi="135.82951"
   inkscape:export-ydpi="135.82951"
   xmlns:inkscape="http://www.inkscape.org/namespaces/inkscape"
   xmlns:sodipodi="http://sodipodi.sourceforge.net/DTD/sodipodi-0.dtd"
   xmlns="http://www.w3.org/2000/svg"
   xmlns:svg="http://www.w3.org/2000/svg">
  <sodipodi:namedview
     id="namedview1"
     pagecolor="#ffffff"
     bordercolor="#000000"
     borderopacity="0.25"
     inkscape:showpageshadow="2"
     inkscape:pageopacity="0.0"
     inkscape:pagecheckerboard="0"
     inkscape:deskcolor="#d1d1d1"
     inkscape:document-units="mm"
     inkscape:zoom="1.0449705"
     inkscape:cx="381.35048"
     inkscape:cy="-3.3493768"
     inkscape:window-width="2560"
     inkscape:window-height="1369"
     inkscape:window-x="-8"
     inkscape:window-y="-8"
     inkscape:window-maximized="1"
     inkscape:current-layer="layer1"
     inkscape:export-bgcolor="#ffffff00" />
  <defs
     id="defs1" />
  <g
     inkscape:label="Warstwa 1"
     inkscape:groupmode="layer"
     id="layer1"
     transform="translate(25.765627,-4.6155212)">
    <path
       fill="#ff9553"
       opacity="1"
       stroke="none"
       d="m -10.785298,65.230449 c 2.258709,-0.0328 4.371651,-0.0328 6.412428,-0.0328 0.130847,0.18262 0.236834,0.26233 0.243316,0.34945 0.244009,3.27981 0.519599,6.5583 0.679614,9.8424 0.03098,0.63581 -0.41166,1.28872 -0.604197,1.94305 -0.200099,0.68003 -0.471334,1.36398 -0.518036,2.05921 -0.103754,1.54456 -0.145965,3.09897 -0.101073,4.64611 0.04014,1.3834 -0.335918,2.13401 -1.912207,2.06118 -1.155609,-0.0534 -2.324731,0.18581 -3.415778,0.28787 -0.711087,-1.46674 0.473496,-3.17526 -1.065706,-4.40924 -0.08568,0.38036 -0.147879,0.62138 -0.193755,0.86547 -0.622218,3.31062 -0.752034,3.42344 -4.076608,3.45744 -2.737678,0.028 -5.475404,0.0673 -8.213126,0.069 -1.65308,10e-4 -2.200802,-0.58798 -2.20664,-2.25529 -5.29e-4,-0.15493 -0.02646,-0.31914 0.0146,-0.46332 0.268311,-0.94221 0.438333,-2.62088 0.851119,-2.68413 1.385444,-0.21228 2.866193,-0.75568 4.313343,0.59917 0.703304,0.65844 2.394362,0.29865 3.637748,0.29265 0.14114,-5.2e-4 0.436786,-0.72925 0.369199,-1.06086 -0.05585,-0.27406 -0.523387,-0.62055 -0.841926,-0.65913 -1.945375,-0.2357 -3.900394,-0.39154 -5.851992,-0.57619 -1.98232,-0.18755 -2.485711,-0.74172 -2.457654,-2.76692 0.01788,-1.29063 0.04034,-2.58314 0.127674,-3.87026 0.07574,-1.11626 0.616074,-1.81237 1.853413,-1.84075 3.302758,-0.0757 6.605,-0.26837 9.906861,-0.25614 2.262302,0.008 3.591462,2.43846 2.552503,4.40905 -0.586178,1.11182 -3.904075,1.21011 -4.853722,0.0404 -1.079309,-1.32947 -2.317822,-0.25677 -3.465049,-0.34109 -0.224461,-0.0165 -0.507187,0.75976 -0.77021,1.18189 3.047213,1.37809 6.569178,-0.31004 9.371846,2.51801 0.275113,-1.23827 0.731942,-2.34829 0.721552,-3.45392 -0.01888,-2.00882 0.389656,-4.01937 -0.743289,-6.02904 -0.547511,-0.97121 0.02474,-2.57367 0.235753,-3.92315 z"
       id="path4"
       style="stroke-width:0.310269" />
    <path
       fill="#ff9553"
       opacity="1"
       stroke="none"
       d="m 105.20833,75.188369 c -0.0479,4.80292 -0.0723,9.45134 -0.1488,14.0989 -0.0519,3.1504 -0.86852,3.93335 -3.99352,3.8805 -2.580084,-0.0436 -5.160282,-0.12237 -7.738313,-0.2343 -2.006312,-0.0871 -3.058605,-1.2569 -3.037179,-3.26682 0.02923,-2.74144 2.49482,-4.20483 4.99087,-2.92728 0.260694,0.13342 0.491106,0.54659 0.527227,0.85443 0.08817,0.75136 0.236453,1.39624 1.182119,1.18265 0.88859,-0.2007 2.108099,0.016 2.202862,-1.41857 0.03974,-0.60164 0.0066,-1.20809 0.0066,-2.01749 -1.992828,0.14931 -3.823533,0.31903 -5.658083,0.41535 -2.120379,0.11133 -2.933115,-0.66698 -2.990389,-2.75427 -0.09773,-3.56097 -0.198226,-7.12186 -0.293151,-10.6829 -0.01336,-0.50202 -0.0019,-1.0047 -0.0019,-1.43515 0.229833,-0.11991 0.315913,-0.19788 0.409996,-0.20916 4.345538,-0.52097 4.853543,-0.10975 5.115115,4.23841 0.08991,1.49447 0.06309,2.99668 0.177795,4.48857 0.04931,0.64119 -0.09773,1.63705 1.081715,1.43292 0.968523,-0.16763 2.201772,-0.0663 2.277276,-1.55273 0.102127,-2.01032 0.18532,-4.02181 0.254291,-6.03356 0.06502,-1.89645 0.500859,-2.34718 2.390729,-2.42562 1.01826,-0.0423 2.03568,-0.10471 3.24596,-0.16813 0,1.52339 0,2.95138 -10e-4,4.53425 z"
       id="path6"
       style="stroke-width:0.310269" />
    <path
       fill="#ff9452"
       opacity="1"
       stroke="none"
       d="m 145.6302,71.773799 c 1.2e-4,-2.20995 1.2e-4,-4.26481 1.2e-4,-6.42094 2.18204,-0.12086 4.16238,-0.23055 6.19085,-0.34291 0,3.42619 0,6.71231 0,10.35116 1.30117,-1.10928 2.49309,-2.09781 3.6539,-3.12163 1.66927,-1.4723 1.65931,-1.48299 3.18858,0.0671 0.32665,0.33112 0.66334,0.65264 0.98311,0.99021 1.15685,1.2213 1.1346,2.02727 -0.10548,3.13441 -0.8419,0.75164 -1.70453,1.48007 -2.6444,2.29377 1.01622,0.91015 1.92916,1.74083 2.85669,2.55489 0.93619,0.82166 0.95209,1.64543 0.0532,2.5004 -0.89475,0.85105 -1.78564,1.70616 -2.77054,2.64774 -1.80545,-1.52599 -3.5608,-3.00962 -5.72098,-4.83543 0,1.27372 -0.0193,2.10823 0.005,2.94149 0.0296,1.01419 -0.37566,1.51076 -1.45113,1.54007 -1.33152,0.0363 -2.65943,0.20392 -4.23902,0.33566 0,-4.91611 0,-9.69852 1e-4,-14.63602 z"
       id="path8"
       style="stroke-width:0.310269" />
    <path
       fill="#ff9452"
       opacity="1"
       stroke="none"
       d="m 167.515,76.710149 c 0.71825,-0.011 1.28687,-0.0274 1.8554,-0.0245 1.11771,0.006 1.4911,-0.52738 1.11373,-1.75157 -1.29482,0.12058 -2.49205,-0.53814 -4.03097,0.3609 -1.05092,0.61394 -2.88,0.0109 -4.32329,-0.25421 -0.30645,-0.0563 -0.72975,-1.08041 -0.61202,-1.53146 0.3122,-1.19617 0.83947,-2.54147 2.3064,-2.59101 3.51141,-0.11861 7.02982,-0.0993 10.54366,-0.037 1.2035,0.0213 1.84476,0.86551 1.87292,2.06556 0.0957,4.08145 0.16612,8.16351 0.24565,12.24533 0.002,0.10331 0.0411,0.24175 -0.01,0.30494 -1.04915,1.2988 -1.33323,2.59668 -0.032,3.91183 -0.33445,0.32875 -0.61831,0.84924 -1.01209,0.95318 -1.73165,0.45705 -3.59062,-1.37162 -3.3227,-3.17872 0.0364,-0.24524 0.0262,-0.4974 0.0421,-0.8458 -2.17251,0 -4.2832,0.0307 -6.39224,-0.0148 -0.87036,-0.0187 -1.76736,-0.0954 -2.59868,-0.33301 -1.26998,-0.36306 -1.99687,-1.19922 -1.84103,-2.64764 0.15462,-1.43705 0.20312,-2.88525 0.34098,-4.32446 0.13997,-1.46102 0.987,-2.22622 2.44792,-2.27279 1.08476,-0.0346 2.17099,-0.0228 3.40621,-0.0349 m -0.51259,3.91568 c 0.22281,0.45182 0.3842,1.23981 0.6797,1.29381 0.972,0.17758 1.99306,0.10399 2.99352,0.0718 0.0723,-0.002 0.21896,-0.46488 0.17661,-0.68354 -0.0912,-0.47092 -0.29584,-1.323 -0.43164,-1.31864 -1.12991,0.0361 -2.25474,0.2317 -3.41819,0.63657 z"
       id="path9"
       style="stroke-width:0.310269" />
    <path
       fill="#ff9452"
       opacity="1"
       stroke="none"
       d="m 213.71804,68.949119 c -0.10195,2.19738 -0.19961,4.24502 -0.3155,6.67474 2.02533,-1.71533 3.77348,-3.1959 5.50837,-4.66525 0.12929,0.0281 0.25493,0.0176 0.32156,0.0753 4.04902,3.50658 4.04771,3.50622 0.181,7.09961 -0.18466,0.17161 -0.33188,0.38348 -0.55996,0.651 0.97948,0.8925 1.91122,1.77457 2.87983,2.61411 0.84892,0.73581 0.79667,1.41586 0.0983,2.24675 -2.57384,3.06248 -2.55927,3.07481 -5.58274,0.52638 -0.89267,-0.75244 -1.78504,-1.50526 -2.67756,-2.2579 -0.15526,0.0426 -0.31055,0.0852 -0.46582,0.12782 0,0.94926 0.0724,1.90674 -0.034,2.84389 -0.0455,0.40075 -0.42069,1.04325 -0.72028,1.08888 -1.51681,0.23108 -3.05799,0.30207 -4.71094,0.43915 0,-7.0832 0,-14.02398 0,-21.07363 1.9957,-0.10436 3.97458,-0.20784 6.08204,-0.31804 0,1.32975 0,2.5536 -0.004,3.92718 z"
       id="path10"
       style="stroke-width:0.310269" />
    <path
       fill="#ff9553"
       opacity="1"
       stroke="none"
       d="m 37.234814,80.735309 c -0.875634,-0.0187 -1.612252,-0.12106 -2.316187,-0.0122 -0.391586,0.0606 -0.728715,0.4732 -1.090382,0.72718 0.322268,0.30072 0.65935,0.87002 0.964094,0.8532 1.026639,-0.0566 2.036852,-0.4352 3.062494,-0.47962 1.425514,-0.0618 2.865104,0.0123 4.284416,0.16266 0.271698,0.0288 0.629727,0.65756 0.687282,1.04796 0.252087,1.70998 -1.076471,3.21527 -2.815998,3.24224 -3.046936,0.0472 -6.094258,0.0838 -9.141507,0.0922 -1.901444,0.005 -2.619846,-0.70472 -2.669484,-2.59299 -0.08548,-3.25162 -0.171622,-6.50351 -0.214953,-9.75586 -0.02889,-2.16661 1.231524,-3.39937 3.343238,-3.34911 2.735498,0.0651 5.471273,0.12466 8.206009,0.21443 2.675245,0.0878 3.675306,1.16218 3.53962,3.78819 -0.06388,1.23612 -0.170852,2.47036 -0.276947,3.70386 -0.139595,1.62315 -0.965743,2.38183 -2.620198,2.39763 -0.929415,0.009 -1.859201,-0.0222 -2.941497,-0.0398 m -1.371145,-5.64555 c -0.70053,0.0505 -1.401059,0.10107 -2.044494,0.14748 -0.864267,2.02106 0.06858,2.84099 3.576167,2.22819 -0.09779,-0.98489 0.6752,-2.37636 -1.531673,-2.37567 z"
       id="path11"
       style="stroke-width:0.310269" />
    <path
       fill="#ff9553"
       opacity="1"
       stroke="none"
       d="m 206.57626,76.330469 c -0.30046,5.03865 -1.37387,4.4874 -4.93573,4.41847 -1.085,-0.021 -2.17626,-0.11556 -3.25147,-0.023 -0.36244,0.0312 -0.68404,0.53683 -1.02432,0.82562 0.31027,0.26466 0.63821,0.77182 0.92766,0.75074 1.07953,-0.0786 2.14286,-0.45563 3.219,-0.48653 1.42258,-0.0409 2.86827,0.0435 4.2657,0.29064 0.34428,0.0609 0.84582,1.03201 0.74524,1.46024 -0.26576,1.13164 -0.65339,2.54665 -2.05294,2.61219 -3.60949,0.16901 -7.23043,0.18508 -10.84415,0.11881 -1.15694,-0.0212 -1.84179,-0.96174 -1.85865,-2.12724 -0.0531,-3.66845 -0.0834,-7.3385 -0.0308,-11.00661 0.0214,-1.49139 1.27411,-2.49808 2.82838,-2.4726 2.89251,0.0474 5.7847,0.11379 8.67707,0.17007 2.537,0.0494 3.49061,1.06207 3.40448,3.62204 -0.0191,0.56815 -0.0414,1.13619 -0.0695,1.84715 m -9.45279,0.22709 c 0.30783,0.32254 0.57282,0.85312 0.93186,0.9271 0.93196,0.19202 1.90532,0.18323 3.00515,0.26524 -0.0535,-0.967 -0.0948,-1.71271 -0.1444,-2.60972 -0.94924,0 -1.76913,0.0547 -2.57846,-0.0145 -0.91371,-0.0781 -1.19322,0.38297 -1.21415,1.43189 z"
       id="path12"
       style="stroke-width:0.310269" />
    <path
       fill="#ff9452"
       opacity="1"
       stroke="none"
       d="m -2.92338,83.639669 c -0.06814,-3.49271 -0.147264,-6.85049 -0.15713,-10.20847 -0.0053,-1.8175 0.885819,-2.66661 2.66378996,-2.65517 3.10024504,0.0199 6.20052604,0.0507 9.30043764,0.0994 2.0111484,0.0316 2.9750514,0.97047 2.9738164,2.92838 -0.0021,3.25553 -0.02882,6.51126 -0.07556,9.76646 -0.02817,1.96405 -0.879817,2.77943 -2.8856969,2.79214 -2.9971231,0.019 -5.9944521,0.0217 -8.99162314,0.0112 -2.11271696,-0.007 -2.58877896,-0.46341 -2.82803396,-2.73392 m 5.682546,-3.12592 c 0.13988,1.68865 1.157201,2.16717 3.37193,1.55424 0,-2.22511 0,-4.46103 0,-6.81258 -1.138971,0 -2.182921,0 -3.374768,0 0,1.69962 0,3.3344 0.0028,5.25834 z"
       id="path13"
       style="stroke-width:0.310269" />
    <path
       fill="#ff9452"
       opacity="1"
       stroke="none"
       d="m 134.74792,75.372129 c -0.94562,0.0843 -1.77029,0.13457 -2.5924,0.10739 -1.106,-0.0366 -2.28949,-0.0832 -2.42662,-1.56272 -0.11849,-1.27859 1.32901,-2.98439 2.5556,-3.02269 1.91027,-0.0597 3.82321,-0.0353 5.73504,-0.0417 1.39508,-0.005 2.79277,-0.0545 4.18463,0.0125 1.5693,0.0755 2.35376,0.90975 2.38493,2.4556 0.0781,3.87295 0.12196,7.74659 0.20134,11.61951 0.0205,0.99657 -0.26179,1.50477 -1.40699,1.47051 -3.30482,-0.0989 -6.61285,-0.0864 -9.91909,-0.14669 -0.6145,-0.0112 -1.26082,-0.0599 -1.83271,-0.26112 -1.27838,-0.44976 -2.29024,-1.09045 -1.98986,-2.78897 0.23236,-1.31394 0.18532,-2.67503 0.3122,-4.01045 0.16485,-1.73479 0.92788,-2.42056 2.71413,-2.4618 1.65291,-0.0382 3.31158,0.0261 4.95691,-0.0979 0.46313,-0.0349 0.88828,-0.57382 1.33085,-0.88155 -0.42807,-0.308 -0.85273,-0.86654 -1.28493,-0.87241 -0.9316,-0.0127 -1.86707,0.25872 -2.92303,0.48239 m 3.75439,6.87403 c 0.21679,-0.7248 0.43359,-1.44959 0.68941,-2.30488 -1.51408,0 -2.62961,0 -3.76797,0 -0.39394,1.3704 -0.13904,2.18095 1.43425,2.13147 0.45792,-0.0144 0.92024,0.11076 1.64431,0.17341 z"
       id="path14"
       style="stroke-width:0.310269" />
    <path
       fill="#ff9553"
       opacity="1"
       stroke="none"
       d="m 47.838295,86.348529 c -0.559419,-0.008 -0.977927,0.0246 -1.383752,-0.0325 -1.972482,-0.27728 -2.557656,-0.93652 -2.581813,-2.92361 -0.03827,-3.14855 -0.07093,-6.29728 -0.08124,-9.44602 -0.0087,-2.65715 0.751544,-3.30198 3.44012,-3.20489 2.733299,0.0987 5.470935,0.07 8.20569,0.13725 2.741112,0.0674 3.680452,1.17474 3.349389,3.86265 -0.399378,3.24258 -0.401378,3.17962 -3.615989,3.28176 -1.254892,0.0399 -1.882203,-0.2622 -2.057508,-1.57814 -0.29546,-2.21782 -2.041856,-1.0116 -3.439359,-1.4664 0,2.20386 -0.03822,4.19165 0.04092,6.17476 0.01196,0.29956 0.581879,0.83079 0.874445,0.8179 0.901777,-0.0398 1.972741,-0.0406 2.647151,-0.52099 0.938355,-0.66841 4.80441,-1.15294 5.050559,-0.22317 0.309579,1.16935 0.28057,2.57243 -0.08719,3.71915 -0.198151,0.61784 -1.387401,1.24041 -2.166371,1.29079 -2.673966,0.17299 -5.364229,0.0942 -8.195053,0.11143 z"
       id="path16"
       style="stroke-width:0.310269" />
    <path
       fill="#ff9553"
       opacity="1"
       stroke="none"
       d="m 24.766314,86.382229 c -1.013296,0.002 -1.882453,0.002 -2.916786,0.002 0,-3.73431 0,-7.3307 0,-11.07348 -0.865928,0.0735 -1.561856,0.18934 -2.255715,0.17804 -1.000858,-0.0163 -1.331355,0.3949 -1.308725,1.39873 0.06059,2.68717 0.02212,5.37662 0.0173,8.06516 -5.29e-4,0.302 -0.03764,0.60393 -0.0657,1.02447 -1.792811,0.15258 -3.524043,0.29992 -5.396251,0.45926 0,-5.20092 0,-10.2809 0,-15.10403 4.101092,-0.16666 8.188772,-0.34962 12.277892,-0.49104 1.757569,-0.0608 2.371058,0.49002 2.366129,2.26079 -0.0108,3.87589 -0.100783,7.75163 -0.16849,11.62726 -0.02898,1.65912 -1.208442,1.67576 -2.54967,1.65253 z"
       id="path17"
       style="stroke-width:0.310269" />
    <path
       fill="#ff9553"
       opacity="1"
       stroke="none"
       d="m 86.529482,86.390029 c -0.857327,5.3e-4 -1.568577,5.3e-4 -2.460421,5.3e-4 0,-3.78185 0,-7.42229 0,-11.06991 -3.651771,0.25429 -3.651782,0.25429 -3.651782,3.72609 0,2.26461 1.1e-5,4.52923 1.1e-5,6.94842 -1.888776,0.14478 -3.65555,0.28021 -5.526247,0.42361 0,-5.24491 0,-10.28558 0,-15.05186 4.23948,-0.19059 8.430001,-0.35155 12.616686,-0.58219 1.449742,-0.0799 2.030153,0.7154 2.046345,1.93467 0.05218,3.92739 0.05413,7.85674 -0.01386,11.78377 -0.02715,1.56681 -0.574246,1.85316 -3.01072,1.88689 z"
       id="path18"
       style="stroke-width:0.310269" />
    <path
       fill="#ff9553"
       opacity="1"
       stroke="none"
       d="m 122.24349,86.377829 c -2.0648,-0.007 -3.97488,-0.0399 -5.884,-0.0111 -1.25837,0.019 -1.96248,-0.45817 -1.95601,-1.79541 0.002,-0.45923 -0.0652,-0.92578 -0.15819,-1.37719 -0.27148,-1.31844 0.15726,-2.29206 1.28284,-3.04657 1.58481,-1.06235 3.12539,-2.19097 4.67751,-3.30157 0.39148,-0.28013 0.75491,-0.59946 1.13123,-0.90078 -0.0408,-0.14986 -0.0816,-0.29973 -0.12235,-0.44959 -1.67727,0 -3.35581,-0.04 -5.03144,0.0124 -1.37948,0.0432 -2.0153,-0.52207 -1.93327,-1.92394 0.0505,-0.86262 0.009,-1.73059 0.009,-2.60816 3.10071,0 6.02472,-0.0157 8.94842,0.007 1.23669,0.01 2.47231,0.12686 3.70921,0.14806 1.02641,0.0176 1.39644,0.52051 1.54749,1.51371 0.42298,2.78138 -0.35587,4.80626 -3.06778,6.03641 -1.32139,0.59941 -2.4645,1.59185 -3.58896,2.75413 1.31023,0 2.6205,-0.006 3.93069,10e-4 2.33499,0.0124 2.91343,0.56809 3.00905,2.90503 0.0249,0.60931 0.004,1.22051 0.004,2.03587 -2.15441,0 -4.2534,0 -6.50753,-1e-5 z"
       id="path19"
       style="stroke-width:0.310269" />
    <path
       fill="#ff9452"
       opacity="1"
       stroke="none"
       d="m 68.566295,86.376329 c -2.426406,-0.007 -4.698486,-0.0487 -6.968992,-0.006 -1.414259,0.0265 -1.854224,-0.57927 -2.145538,-1.97788 -0.540957,-2.59726 0.543769,-4.01952 2.643404,-5.22694 1.585815,-0.91196 2.990276,-2.1393 4.475448,-3.22627 -0.03718,-0.14688 -0.07437,-0.29374 -0.111556,-0.44062 -1.668801,0 -3.338131,0.0267 -5.006242,-0.007 -1.856526,-0.0377 -2.134505,-0.37634 -2.011997,-2.22935 0.05023,-0.75986 0.07651,-1.52129 0.113659,-2.28158 3.078954,0 6.058085,-0.014 9.036976,0.007 1.133724,0.008 2.270173,0.0618 3.398586,0.16741 0.431221,0.0404 0.966621,0.1672 1.241544,0.45682 0.879272,0.92627 0.269137,5.05318 -0.808929,5.79018 -1.829408,1.25063 -3.6728,2.48081 -5.507246,3.72412 -0.02177,0.0148 -0.0028,0.0898 -0.0028,0.31012 1.312408,0 2.62649,-0.005 3.940519,10e-4 2.369198,0.0116 2.885715,0.51427 3.000862,2.89013 0.02976,0.61367 0.07476,1.22661 0.125727,2.04934 -1.779698,0 -3.519114,0 -5.413515,-2.6e-4 z"
       id="path20"
       style="stroke-width:0.310269" />
    <path
       fill="#ff9452"
       opacity="1"
       stroke="none"
       d="m 183.98569,81.993319 c 1.29889,0.43911 1.94488,0.0742 2.21205,-1.2013 0.0798,-0.38105 0.70616,-0.8746 1.12623,-0.92148 3.37108,-0.37628 4.62523,1.26982 3.48434,4.49573 -0.45523,1.28719 -1.26443,2.04496 -2.75955,2.01288 -2.53222,-0.0543 -5.06679,0.0116 -7.60035,0.007 -1.66543,-0.003 -2.32769,-0.63268 -2.35236,-2.33931 -0.0351,-2.42966 0.0477,-4.8618 -0.0268,-7.2896 -0.0217,-0.70525 -0.31202,-1.45099 -0.65135,-2.08621 -0.49777,-0.93183 -0.29349,-2.88666 0.44319,-3.67055 0.29108,-0.30976 0.47771,-0.75545 0.60402,-1.17196 0.13312,-0.439 0.13988,-0.91675 0.19733,-1.37812 0.0496,-0.3981 0.0928,-0.79698 0.13643,-1.17485 4.9297,-0.48271 4.69987,-0.24586 4.95455,3.68992 1.35339,0 2.73533,-0.0541 4.11121,0.0141 1.61842,0.0802 2.32626,0.92686 2.24059,2.51134 -0.0893,1.6511 -0.78452,2.3279 -2.40969,2.28478 -1.28015,-0.034 -2.55906,-0.11522 -3.99326,-0.18276 -0.0987,1.91297 -0.21235,3.75555 -0.26712,5.59988 -0.007,0.24854 0.28134,0.50589 0.55059,0.80025 z"
       id="path21"
       style="stroke-width:0.310269" />
    <path
       fill="#fffffe"
       opacity="1"
       stroke="none"
       d="m 63.321402,48.566209 c 0.01167,-0.11299 0.06698,-0.15937 0.207049,-0.13841 0.0021,0.11322 -0.08068,0.15912 -0.207049,0.13841 z"
       id="path31"
       style="stroke-width:0.310269" />
  </g>
  <g
     inkscape:groupmode="layer"
     id="layer2"
     inkscape:label="Warstwa 2"
     style="display:inline">
    <g
       id="g36"
       transform="matrix(0.31059078,0,0,0.31043693,-7.1238008,-4.4478056)">
      <path
         fill="#ee8c02"
         opacity="1"
         stroke="none"
         d="m 424.54951,190.80023 c -23.19139,0.36008 -46.39627,0.34285 -69.57113,1.16576 -37.83583,1.34352 -75.70749,2.65979 -112.90859,10.7776 -0.73884,0.16123 -1.54402,0.0202 -2.74958,0.0202 12.09429,-15.6015 20.95419,-31.61876 4.63538,-49.88088 -0.73658,-0.32383 2.4059,-0.42873 3.30059,-0.25013 24.66543,4.92401 52.5103,4.3468 77.1817,9.24056 18.36873,3.64356 33.58693,12.6434 51.95074,16.31085 14.11722,2.81935 28.20907,5.78013 42.24598,8.96789 2.10891,0.47893 5.91151,-0.65167 5.91491,3.64812 z"
         id="path2-4"
         style="stroke-width:1.0015"
         sodipodi:nodetypes="ssscccsssss" />
      <path
         fill="#eebf01"
         opacity="1"
         stroke="none"
         d="m 349.91989,78.848004 c 10.13766,-4.832604 20.36588,-10.493336 28.99942,-18.764676 2.33847,0.237538 19.44357,0.722581 21.0615,1.050084 19.57586,3.962681 23.65969,7.791698 43.23727,11.746074 29.44955,5.948364 58.89609,11.91214 88.36835,17.745667 1.12207,0.222084 2.49932,-0.844971 3.75763,-1.31131 4.83398,4.966125 9.51086,10.098221 14.53967,14.858517 7.10357,6.72429 16.21002,8.4331 25.50549,9.82197 9.33295,1.39449 18.0957,-0.89159 26.93732,-3.10909 1.70184,-0.42681 3.4353,-0.72745 5.46826,-0.26627 -5.60742,3.59021 -11.51939,7.42811 -17.59501,10.85531 -1.92475,-0.86394 -3.5001,-1.50838 -5.03599,-1.82661 -22.50665,-4.66335 -44.53514,-9.89672 -67.07707,-14.38607 -1.31531,-0.26197 -2.4919,0.49873 -3.91914,0.79857 -9.63106,-8.606119 -24.07935,-13.126314 -37.04583,-15.252155 -24.5591,-4.02644 -26.01245,-3.47064 -52.19437,-4.502755 -1.51967,-0.05991 -21.5375,2.684791 -26.53475,4.651436 -2.16889,-1.167824 -4.11973,-1.392955 -5.78877,-1.76324 -5.59882,-1.242119 -11.14531,-2.38044 -16.73766,-3.647454 -8.60068,-1.948585 -17.37863,-4.603829 -25.94632,-6.697998 z"
         id="path3-2"
         inkscape:label="path3"
         sodipodi:nodetypes="cccsscsssccsscsscssc" />
      <path
         fill="#ee9303"
         opacity="1"
         stroke="none"
         d="m 424.45953,190.79402 c -0.46728,-4.37319 -4.25851,-3.16298 -6.36111,-3.64191 -13.99494,-3.18776 -28.04465,-6.14854 -42.11966,-8.96789 -18.3089,-3.66745 -36.67215,-7.06279 -54.98596,-10.70635 -24.59763,-4.89376 -49.16867,-9.92105 -73.76035,-14.84506 -0.89201,-0.1786 -1.91606,0.0736 -3.21589,0.29941 -1.79581,-0.92614 -3.20119,-1.94119 -4.64119,-3.01199 -0.49454,-0.51773 -0.48134,-0.51002 0.33956,-0.6297 9.66758,-1.2067 20.12879,-0.52539 29.83399,-4.24442 2.31464,1.22278 4.06912,2.47778 6.00391,2.89328 11.4436,2.45754 22.92913,4.72014 34.54123,7.26299 0.40728,0.0667 0.67388,-0.0812 0.92584,-0.20295 -0.0147,0.0261 -0.047,0.0767 -0.047,0.0767 4.332,-0.86892 8.66403,-1.73783 13.58667,-2.29137 8.90652,2.2941 17.78376,3.88793 26.16676,5.52253 4.52264,0.88183 8.63274,1.38523 13.26335,1.71334 1.07514,0.18646 2.15024,0.37292 3.73053,0.9929 2.08936,1.23224 4.11546,1.87393 5.79334,2.22519 8.87461,1.85779 17.45607,3.18121 26.34008,4.99634 2.21899,0.45338 5.66302,0.83361 5.62567,4.62332 -9.03351,0.77091 -18.55111,1.49114 -27.58462,2.26204 7.4e-4,0.16707 0.001,0.33414 0.002,0.50121 18.67295,1.09887 37.37305,1.86558 56.01126,3.38905 19.04978,1.55711 38.06668,3.62408 57.04657,5.89696 18.77707,2.24858 37.09653,6.60214 54.77347,13.53814 -40.11896,-5.46778 -80.42144,-7.13544 -121.26483,-7.64377 z"
         id="path5-7"
         inkscape:label="path5"
         sodipodi:nodetypes="cssssccccsccccccccscccssccc" />
      <path
         fill="#eec902"
         opacity="1"
         stroke="none"
         d="m 535.40463,89.387534 c -1.09943,0.735748 -3.18846,2.03289 -4.31053,1.810806 -29.47226,-5.833527 -58.42647,-12.37049 -87.87602,-18.318854 -19.57758,-3.954376 -39.15314,-7.918495 -58.729,-11.881176 -1.61793,-0.327503 -3.61751,-0.446645 -5.65361,-0.814943 3.7409,-5.912399 9.33307,-13.332801 14.21801,-19.352287 9.53904,1.718922 17.16399,2.733418 26.01305,4.411897 1.26215,0.239402 2.89303,1.452107 4.28314,1.016876 13.22791,12.824475 30.02451,17.300381 47.4924,19.418484 15.41562,1.869248 29.01096,-3.831444 41.41684,-12.605705 3.42517,-2.422497 6.70154,-5.055397 10.04614,-7.591744 0.375,0.253407 0.75006,0.506813 1.12506,0.76022 -0.63708,2.830345 -1.07629,5.723324 -1.9486,8.479217 -2.55518,8.072548 -2.62336,15.588879 3.61261,22.280789 3.49621,3.751793 6.85275,8.181349 10.31051,12.38642 z"
         id="path7-8"
         sodipodi:nodetypes="ccssccscssccssc" />
      <path
         fill="#eeb203"
         opacity="1"
         stroke="none"
         d="m 350.10242,78.758804 c 8.92749,2.032112 17.47082,4.233582 26.0715,6.182167 5.59235,1.267014 11.29269,2.055054 16.89151,3.297173 1.66904,0.370285 3.64788,1.53947 5.38488,2.701778 -13.41076,4.788993 -27.52145,9.105858 -41.02117,13.763398 -3.3913,1.17002 -6.80656,3.60403 -10.66981,5.2856 -5.73697,-1.47642 -10.31716,-3.30159 -15.44524,-4.30237 -10.69666,-2.08747 -21.48612,-3.20274 -32.22464,-5.07563 -0.95383,-6.829287 -5.46198,-11.597515 -10.62381,-15.51376 -3.33719,-2.531921 -6.155,-5.748382 -8.81058,-9.429535 23.29126,7.801003 46.37506,12.476281 70.44736,3.091179 z"
         id="path15-2"
         sodipodi:nodetypes="csscscccscc" />
      <path
         fill="#eeba03"
         opacity="1"
         stroke="none"
         d="m 514.05008,105.9908 c -1.43583,-1.24771 2.75211,-1.46883 4.06742,-1.20686 22.54193,4.48935 45.03198,9.56351 67.53863,14.22686 1.53589,0.31823 2.92352,1.35185 4.57629,2.44197 -2.41205,5.94603 -5.27048,11.80682 -8.51706,17.5759 -2.72742,-0.25878 -4.55331,-1.10332 -6.65738,-1.49301 -10.03906,-1.85942 -20.00761,-3.33022 -30.05155,-5.16323 -8.38013,-10.68785 -18.93712,-19.5476 -30.95635,-26.38163 z"
         id="path22-3"
         sodipodi:nodetypes="ccsccccc" />
      <path
         fill="#eea502"
         opacity="1"
         stroke="none"
         d="m 299.08859,100.46384 c 10.76114,1.41201 21.52884,3.13524 32.2255,5.22271 5.12808,1.00078 10.12167,2.69085 15.5188,4.23255 -4.23536,3.55163 -9.04901,6.67046 -13.31818,10.41078 -3.53156,3.09408 -6.71252,7.17675 -10.51522,10.73749 -4.46259,-0.90597 -9.83448,0.0834 -13.62977,-1.01242 -5.41885,-1.5646 -18.47613,-2.47582 -14.45034,-7.10187 3.14185,-7.02397 4.98434,-14.26953 4.16921,-22.48924 z"
         id="path23-5"
         sodipodi:nodetypes="cccscscc" />
      <path
         fill="#eeac03"
         opacity="1"
         stroke="none"
         d="m 544.99121,132.36948 c 9.98114,1.48831 20.04947,3.05907 30.08853,4.91849 2.10407,0.38969 4.18018,0.93025 6.67267,1.4564 -1.8385,10.35355 -2.92172,21.69317 -1.2728,32.58129 -6.39898,-0.24339 -12.17939,-1.06913 -18.11365,-1.73563 -1.77539,-4.27569 -3.51391,-9.23243 -5.52105,-13.3964 -3.80225,-7.8882 -7.84686,-15.65956 -11.8537,-23.82415 z"
         id="path24-0"
         sodipodi:nodetypes="cscccsc" />
      <path
         fill="#ee9905"
         opacity="1"
         stroke="none"
         d="m 364.02069,160.0303 c -4.77585,0.0225 -9.38095,-0.21074 -13.90359,-1.09257 -8.383,-1.6346 -17.07795,-3.79123 -25.57431,-6.14052 25.85104,-7.73166 52.58477,-8.37801 79.18499,-3.31696 -6.59268,1.46717 -13.21798,2.80365 -19.76892,4.4381 -6.59805,1.64622 -13.23642,3.9488 -19.93817,6.11195 z"
         id="path25-1"
         sodipodi:nodetypes="ccccsc" />
      <path
         fill="#ee9e05"
         opacity="1"
         stroke="none"
         d="m 562.26141,169.35236 c 5.88495,0.31506 11.81922,0.98158 18.17865,1.64897 1.78003,14.58452 11.32214,24.55308 24.29674,31.7418 -9.66436,0.61124 -18.39586,-0.0905 -26.95262,0.0561 -1.29626,0.0222 -3.16321,-2.4552 -3.87372,-4.15042 -4.01703,-9.58529 -7.76208,-19.28454 -11.64905,-29.29644 z"
         id="path26-3"
         sodipodi:nodetypes="cccscc" />
      <path
         fill="#ee9b02"
         opacity="1"
         stroke="none"
         d="m 294.72919,123.19121 c 5.65326,1.4583 11.02176,3.19745 16.44061,4.76205 3.79529,1.09584 7.65942,1.95339 11.87286,3.07262 -2.10592,5.00111 -5.02708,10.65756 -8.13883,15.58949 -6.41232,-1.21391 -11.84636,-3.0891 -17.57491,-4.60797 -4.95178,-1.3129 -10.1407,-2.86254 -15.02751,-4.42061 3.92429,-4.6397 8.24025,-9.5496 12.42778,-14.39558 z"
         id="path27-1"
         sodipodi:nodetypes="csccscc" />
      <path
         fill="#eed205"
         opacity="1"
         stroke="none"
         d="m 423.44489,46.310136 c -1.21335,0.688927 -3.00742,1.874274 -4.26957,1.634872 -8.84906,-1.678479 -17.93724,-3.920147 -27.16643,-5.793541 2.9638,-9.242214 6.6512,-18.634694 10.30089,-28.602106 4.93845,12.260919 11.49156,23.605978 21.13511,32.760775 z"
         id="path28-0"
         sodipodi:nodetypes="csccc" />
      <path
         fill="#ee9905"
         opacity="1"
         stroke="none"
         d="m 405.46112,172.86401 c -0.42859,-3.84607 -3.75838,-3.29744 -5.97737,-3.75082 -8.88401,-1.81513 -17.61778,-3.4763 -26.49239,-5.33409 -1.67788,-0.35126 -3.3341,-1.47707 -5.03725,-2.57091 10.32662,0.11604 20.95132,0.13545 31.36346,0.96588 13.4085,1.06937 26.63705,3.27522 38.85293,9.39066 -0.008,0.45187 -0.0159,0.90373 -0.0238,1.3556 -10.73987,0 -21.47977,0 -32.68558,-0.0563 z"
         id="path29-7"
         sodipodi:nodetypes="ssscsccss" />
      <path
         fill="#ee9500"
         opacity="1"
         stroke="none"
         d="m 282.38184,137.49222 c 5.19802,1.38244 10.03338,3.13473 14.98516,4.44763 5.72855,1.51887 11.55967,2.651 17.7403,4.10712 -1.22794,2.8764 -2.84988,5.59671 -4.3031,8.67306 0.1687,0.35607 0.66639,0.57223 0.4079,0.32909 0.69466,0.89705 -0.97166,0.0818 -1.14994,0.23129 -11.47141,-2.32817 -23.43519,-3.65321 -34.63988,-7.09334 -3.60447,-1.10667 -4.18082,-1.81743 -6.09211,-3.07906 3.99042,-2.70947 8.67648,-5.12522 13.05167,-7.6158 z"
         id="path30-8"
         inkscape:label="path30"
         sodipodi:nodetypes="ssccccscss" />
    </g>
  </g>
</svg>
