<?xml version="1.0" encoding="UTF-8" standalone="no"?>
<svg
   version="1.1"
   id="Layer_1"
   x="0px"
   y="0px"
   width="724201"
   viewBox="0 0 724201 99225"
   enable-background="new 0 0 851 315"
   xml:space="preserve"
   sodipodi:docname="file.svg"
   height="99225"
   xmlns:inkscape="http://www.inkscape.org/namespaces/inkscape"
   xmlns:sodipodi="http://sodipodi.sourceforge.net/DTD/sodipodi-0.dtd"
   xmlns="http://www.w3.org/2000/svg"
   xmlns:svg="http://www.w3.org/2000/svg"><defs
   id="defs36" /><sodipodi:namedview
   id="namedview36"
   pagecolor="#ffffff"
   bordercolor="#000000"
   borderopacity="0.25"
   inkscape:showpageshadow="2"
   inkscape:pageopacity="0.0"
   inkscape:pagecheckerboard="0"
   inkscape:deskcolor="#d1d1d1"
   inkscape:zoom="1.6734584"
   inkscape:cx="470.28359"
   inkscape:cy="150.28758"
   inkscape:window-width="2560"
   inkscape:window-height="1369"
   inkscape:window-x="1912"
   inkscape:window-y="-8"
   inkscape:window-maximized="1"
   inkscape:current-layer="Layer_1" />
<path
   fill="#fffffe"
   opacity="1"
   stroke="none"
   d="m 537,316 c -178.99997,0 -357.49991,0 -535.999904,0 -3.2e-5,-104.99994 -3.2e-5,-209.99986 -6.4e-5,-314.999848 283.666498,-5.1e-5 567.333038,-5.1e-5 850.999598,-1.01e-4 1.3e-4,104.999789 1.3e-4,209.999629 2.5e-4,314.999709 C 747.16669,316 642.33331,316 537,316 M 315.96472,145.71866 c 2.48602,-4.84583 4.97202,-9.69167 7.9563,-14.96402 3.17349,-3.50276 6.06213,-7.33068 9.59369,-10.42476 4.26917,-3.74032 9.08282,-6.85915 14.34045,-10.37751 3.18082,-1.78012 6.18268,-4.07903 9.57398,-5.24905 13.49972,-4.65754 27.12085,-8.963147 41.56073,-13.388043 1.32297,-0.159851 2.656,-0.26133 3.96737,-0.488205 24.59733,-4.255463 49.16459,-3.839638 73.30295,2.33738 12.78495,3.271667 25.05615,8.550928 38.0091,13.457328 11.79431,6.5673 22.27899,14.71515 30.78479,26.09241 3.94397,7.81988 7.98858,15.59124 11.79083,23.47944 2.00714,4.16397 3.5918,8.5316 5.46582,13.51018 3.83765,9.66045 7.5827,19.3597 11.59973,28.94499 0.71051,1.69522 2.57746,4.17263 3.87372,4.15042 8.55676,-0.14654 17.10364,-0.87782 26.768,-1.48906 -12.9746,-7.18872 -22.33209,-15.72431 -23.60784,-31.15592 -2.11365,-10.46503 -1.05219,-20.80863 1.6596,-31.6418 2.60822,-5.55683 5.21643,-11.11364 8.36865,-17.12283 5.60743,-3.59022 11.21479,-7.18043 16.82221,-10.77064 -2.03296,-0.46118 -3.76642,-0.16054 -5.46826,0.26627 -8.84162,2.2175 -17.60437,4.50358 -26.93732,3.10909 -9.29547,-1.38887 -18.40192,-3.09768 -25.50549,-9.82197 -5.02881,-4.760296 -9.70569,-9.892392 -14.85742,-15.397336 -3.29889,-3.935661 -6.43598,-8.022117 -9.93219,-11.77391 -6.23597,-6.69191 -6.16779,-14.208241 -3.61261,-22.280789 0.87231,-2.755893 1.31152,-5.648872 1.9486,-8.479217 -0.375,-0.253407 -0.75006,-0.506813 -1.12506,-0.76022 -3.3446,2.536347 -6.62097,5.169247 -10.04614,7.591744 -12.40588,8.774261 -26.00122,14.474953 -41.41684,12.605705 -17.46789,-2.118103 -34.26449,-6.594009 -47.84588,-19.925877 -9.46683,-8.9011 -15.74796,-19.94218 -20.68641,-32.203099 -3.64969,9.967412 -7.02704,19.191015 -11.02407,28.723565 -4.16156,5.883622 -8.32313,11.767243 -13.08942,17.912381 -7.91052,8.169361 -17.59641,13.678836 -28.45371,18.635562 -23.71246,9.323037 -46.79626,4.647759 -70.08752,-3.153244 2.65558,3.681153 5.47339,6.897614 8.81058,9.429535 5.16183,3.916245 9.69174,8.076516 10.60034,15.82757 0.83774,7.75882 -0.93167,15.03622 -4.60004,22.47276 -3.92428,4.6397 -7.8486,9.2794 -12.39535,14.27033 -4.06394,2.31498 -8.1279,4.62997 -12.99854,7.02264 -9.22833,4.07468 -19.29722,2.66096 -28.9648,3.86766 -0.24395,0.45404 -0.48793,0.90807 -0.73188,1.36211 1.44,1.0708 2.88,2.14158 4.59199,3.84622 16.48982,17.80054 7.41098,33.39587 -4.64715,48.99737 1.20196,0 2.00473,0.141 2.74136,-0.0202 37.08986,-8.11781 74.84828,-9.43408 112.57097,-10.7776 23.10556,-0.82291 46.24106,-0.80568 70.29086,-1.01898 40.37952,0.43495 80.68585,2.03096 120.80481,7.49874 -17.67694,-6.936 -35.9964,-11.28956 -54.77347,-13.53814 -18.97989,-2.27288 -37.99679,-4.33985 -57.04657,-5.89696 -18.63821,-1.52347 -37.33831,-2.29018 -56.01126,-3.38905 -7.6e-4,-0.16707 -10e-4,-0.33414 -0.002,-0.50121 9.03351,-0.7709 18.06699,-1.54179 28.03238,-2.20006 10.73987,0 21.47977,0 32.21964,0 0.008,-0.45187 0.0159,-0.90373 0.0238,-1.3556 -12.21588,-6.11544 -25.44443,-8.32129 -38.85293,-9.39066 -10.41214,-0.83043 -20.88453,-0.90613 -32.10251,-1.59407 -1.07514,-0.18648 -2.15024,-0.37294 -2.93491,-1.26054 6.55652,-1.81258 13.08066,-3.75489 19.67871,-5.40111 6.55094,-1.63445 13.17624,-2.97093 19.76892,-4.4381 -26.60022,-5.06105 -52.90701,-4.48237 -79.75885,2.98911 -4.332,0.86891 -8.66403,1.73782 -13.33346,1.89462 1.62195,-2.7203 3.24389,-5.44061 5.32925,-8.64532 M 70.778435,209.01704 c -0.210289,4.24355 -2.054665,9.4083 -0.290039,12.53849 3.651481,6.47718 2.334762,12.95718 2.395622,19.43158 0.03348,3.56346 -1.438873,7.14106 -2.325562,11.132 -9.032997,-9.11481 -20.384288,-3.67395 -30.205452,-8.11556 0.847722,-1.36051 1.75895,-3.86239 2.482384,-3.80921 3.697514,0.27174 7.68924,-3.18555 11.167851,1.09933 3.060711,3.77011 13.754291,3.45329 15.643543,-0.13007 3.348564,-6.35124 -0.935318,-14.18338 -8.226715,-14.21037 -10.641895,-0.0394 -21.285019,0.58142 -31.929806,0.82553 -3.98794,0.0915 -5.729452,2.33504 -5.973549,5.93273 -0.281465,4.1484 -0.353864,8.31416 -0.411491,12.47384 -0.09043,6.52721 1.532001,8.3133 7.921015,8.91779 6.289999,0.59512 12.591024,1.09741 18.860967,1.85705 1.02665,0.12436 2.533505,1.24109 2.713528,2.12439 0.217831,1.06879 -0.735035,3.41697 -1.18993,3.41916 -4.007431,0.0193 -9.45771,1.17893 -11.724457,-0.94323 -4.664165,-4.36667 -9.436619,-2.6153 -13.901901,-1.93113 -1.33041,0.20386 -1.878391,5.61423 -2.743158,8.65097 -0.132334,0.46467 -0.0488,0.99393 -0.04705,1.49326 0.01882,5.37375 1.784125,7.27194 7.112,7.2688 8.823677,-0.005 17.647365,-0.13202 26.470897,-0.22226 10.7151,-0.10959 11.133496,-0.47318 13.138905,-11.14331 0.147858,-0.78671 0.348343,-1.56351 0.624474,-2.7894 4.960845,3.97711 1.142936,9.48367 3.434768,14.21097 3.516442,-0.32895 7.284523,-1.09986 11.009049,-0.9278 5.080375,0.23471 6.292427,-2.18451 6.16304,-6.64319 -0.144684,-4.98642 -0.0086,-9.9963 0.32576,-14.97442 0.15052,-2.24072 1.024711,-4.4451 1.669632,-6.63683 0.620544,-2.1089 2.047172,-4.21322 1.947326,-6.26243 -0.515731,-10.58466 -1.403953,-21.15125 -2.190399,-31.72206 -0.02089,-0.28077 -0.362488,-0.53768 -0.78421,-1.12629 -6.577416,0 -13.387428,0 -21.137039,0.21167 m 374.321292,31.4894 c 0,-4.60243 0,-9.20486 0,-14.11472 -3.90075,0.20439 -7.17987,0.40563 -10.46173,0.54186 -6.09106,0.25281 -7.49576,1.70552 -7.70532,7.81779 -0.22229,6.48387 -0.49042,12.96688 -0.81958,19.44616 -0.24335,4.79081 -4.21811,4.46415 -7.33966,5.00443 -3.80136,0.65793 -3.32743,-2.55172 -3.48636,-4.61828 -0.36969,-4.80838 -0.28324,-9.65001 -0.57303,-14.46666 -0.84305,-14.01413 -2.48035,-15.33948 -16.48602,-13.6604 -0.30323,0.0364 -0.58066,0.28764 -1.32141,0.67412 0,1.38734 -0.0371,3.00749 0.006,4.6255 0.30594,11.47722 0.62985,22.95398 0.94482,34.43098 0.1846,6.72733 2.80405,9.23582 9.63803,8.87699 5.91275,-0.31043 11.81311,-0.85745 18.23599,-1.33866 0,2.60868 0.10676,4.56327 -0.0213,6.50236 -0.30542,4.62353 -4.2359,3.9252 -7.09982,4.57205 -3.04788,0.68841 -3.52579,-1.39005 -3.80997,-3.81168 -0.11642,-0.99216 -0.85904,-2.32382 -1.69925,-2.75384 -8.04477,-4.11753 -15.99139,0.59897 -16.08557,9.43463 -0.0691,6.47796 3.32248,10.2482 9.78882,10.52896 8.30899,0.36075 16.62497,0.61453 24.94058,0.75516 10.07187,0.17034 12.70386,-2.35312 12.8711,-12.50687 0.24667,-14.97906 0.32528,-29.96091 0.48373,-45.93988 m 130.27521,-10.00618 c 0,15.41373 0,30.82744 0,46.67207 5.091,-0.42462 9.37085,-0.96484 13.66235,-1.08185 3.46625,-0.0945 4.77228,-1.69491 4.677,-4.96365 -0.0782,-2.68558 -0.016,-5.37521 -0.016,-9.48041 6.96228,5.88459 12.61975,10.66632 18.43872,15.5846 3.17432,-3.03473 6.04566,-5.79074 8.92945,-8.53369 2.89697,-2.75556 2.8457,-5.41056 -0.17163,-8.05878 -2.98944,-2.62372 -5.93183,-5.30101 -9.2071,-8.23441 3.02918,-2.62254 5.80945,-4.97027 8.52289,-7.39282 3.99677,-3.5683 4.06848,-6.16594 0.33997,-10.10219 -1.03064,-1.08799 -2.11579,-2.12425 -3.16858,-3.19145 -4.92883,-4.99602 -4.89673,-4.96156 -10.27679,-0.21635 -3.74128,3.29977 -7.58283,6.48581 -11.77649,10.061 0,-11.728 0,-22.31917 0,-33.36178 -6.53778,0.36213 -12.92042,0.71566 -19.95313,1.10521 0,6.9492 0,13.57202 -6.7e-4,21.1945 m 70.05267,15.42059 c -3.49884,0.0285 -6.99975,-0.01 -10.49591,0.10179 -4.70855,0.15009 -7.43854,2.61634 -7.88965,7.32521 -0.44433,4.63857 -0.60064,9.30611 -1.099,13.93773 -0.50225,4.66825 1.84052,7.36322 5.93366,8.53336 2.67932,0.7659 5.57037,1.01288 8.37555,1.07327 6.79742,0.14633 13.60016,0.0476 20.60217,0.0476 -0.0513,1.12289 -0.0184,1.93561 -0.13562,2.72601 -0.86352,5.82428 5.12793,11.71808 10.70905,10.245 1.26916,-0.33499 2.18402,-2.01252 3.26196,-3.07209 -4.19373,-4.23874 -3.27814,-8.42178 0.10327,-12.60782 0.16449,-0.20367 0.0384,-0.64987 0.0319,-0.98281 -0.25635,-13.15573 -0.48321,-26.31218 -0.79175,-39.46671 -0.0908,-3.86775 -2.15753,-6.58858 -6.03643,-6.6573 -11.32508,-0.2007 -22.66492,-0.26302 -33.98218,0.11926 -4.72791,0.15968 -6.42731,4.49556 -7.43353,8.35082 -0.37946,1.45373 0.98486,4.75451 1.97253,4.93591 4.65173,0.85438 10.54687,2.79802 13.93396,0.8193 4.95996,-2.89759 8.8186,-0.77455 12.99182,-1.16316 1.21625,3.94556 0.0128,5.66399 -3.58954,5.6453 -1.83239,-0.01 -3.66504,0.0435 -6.46228,0.0894 m 149.40851,-25.50696 c 0,-3.94445 0,-7.88891 0,-12.17469 -6.79236,0.35518 -13.17029,0.68869 -19.60242,1.02504 0,22.72102 0,45.09114 0,67.9203 5.32746,-0.44183 10.29468,-0.67062 15.18335,-1.41538 0.96558,-0.14706 2.17475,-2.21786 2.32147,-3.50946 0.34321,-3.02044 0.10975,-6.10641 0.10975,-9.16586 0.50042,-0.13733 1.00091,-0.27466 1.50134,-0.41195 2.87659,2.42575 5.75269,4.85208 8.62976,7.27719 9.74463,8.21359 9.69769,8.17385 17.99316,-1.69651 2.25074,-2.67798 2.41913,-4.86978 -0.31695,-7.24127 -3.12183,-2.70584 -6.12482,-5.54875 -9.28168,-8.42528 0.73511,-0.86221 1.2096,-1.54509 1.80475,-2.09817 12.4624,-11.58151 12.46661,-11.58034 -0.58337,-22.88205 -0.21473,-0.18593 -0.61969,-0.1521 -1.03638,-0.24272 -5.59155,4.7357 -11.22583,9.5076 -17.75348,15.0361 0.37353,-7.83099 0.68829,-14.43053 1.0307,-21.99529 M 226.5091,258.89805 c 2.99617,0.0421 5.99287,0.14209 8.98837,0.11352 5.33231,-0.0509 7.99498,-2.49615 8.4449,-7.72756 0.34194,-3.97555 0.68672,-7.95351 0.8926,-11.93754 0.43731,-8.46363 -2.78588,-11.9263 -11.40819,-12.20933 -8.81406,-0.28932 -17.63146,-0.48126 -26.44797,-0.69109 -6.80605,-0.16201 -10.8683,3.81118 -10.77525,10.79416 0.13966,10.48232 0.41729,20.96317 0.69279,31.44315 0.15999,6.08587 2.4754,8.37399 8.60375,8.35718 9.82128,-0.027 19.6428,-0.14478 29.46307,-0.29703 5.60649,-0.0869 9.88843,-4.93848 9.07596,-10.44971 -0.1855,-1.25827 -1.33943,-3.28482 -2.21511,-3.37759 -4.57444,-0.48477 -9.21424,-0.7233 -13.80867,-0.52426 -3.30564,0.14318 -6.56156,1.36328 -9.87042,1.54583 -0.98219,0.0542 -2.0686,-1.78064 -3.10727,-2.74987 1.16565,-0.81858 2.25222,-2.14853 3.5143,-2.34372 2.26878,-0.35092 4.6429,-0.0209 7.95714,0.0539 m 545.31898,-14.67191 c 0.067,-1.83093 0.13874,-3.66172 0.20038,-5.49284 0.27759,-8.25081 -2.7959,-11.51474 -10.97265,-11.67384 -9.32209,-0.18138 -18.64362,-0.39525 -27.96619,-0.54813 -5.0094,-0.0821 -9.04681,3.16243 -9.11585,7.96918 -0.16973,11.82232 -0.072,23.65088 0.0991,35.4743 0.0543,3.75638 2.2616,6.78766 5.99042,6.85608 11.64704,0.21359 23.31732,0.16181 34.95069,-0.38293 4.51074,-0.21122 5.76007,-4.77179 6.61663,-8.41907 0.32416,-1.38019 -1.29229,-4.5101 -2.40191,-4.70636 -4.50391,-0.79666 -9.16339,-1.06842 -13.74835,-0.93674 -3.46839,0.0996 -6.89551,1.31467 -10.37482,1.56809 -0.93292,0.0679 -1.98987,-1.56662 -2.98987,-2.41962 1.09674,-0.93078 2.13324,-2.56036 3.30139,-2.66098 3.46539,-0.29837 6.98255,0.006 10.47949,0.0741 11.47986,0.22216 14.93946,1.99884 15.93158,-14.70124 M 96.644783,268.6788 c 0.713516,6.88321 2.247871,8.35276 9.057147,8.37677 9.65988,0.0341 19.32027,0.0252 28.98,-0.036 6.46495,-0.041 9.20975,-2.66894 9.3006,-8.99908 0.15059,-10.49152 0.23688,-20.98473 0.24353,-31.4773 0.004,-6.31035 -3.10268,-9.33642 -9.58461,-9.43817 -9.99101,-0.15686 -19.98322,-0.25606 -29.9753,-0.32036 -5.730397,-0.0369 -8.60262,2.69982 -8.5854,8.55762 0.03181,10.82277 0.286819,21.64488 0.564033,33.33656 M 540.69513,241.377 c 3.00989,-0.50005 6.0249,-1.37471 9.02746,-1.33391 1.39295,0.0189 2.76166,1.81909 4.1413,2.81175 -1.42639,0.99184 -2.79663,2.72878 -4.28931,2.84127 -5.30291,0.39958 -10.6488,0.19241 -15.97613,0.31541 -5.75708,0.13292 -8.21631,2.34314 -8.74762,7.93437 -0.40893,4.30405 -0.25732,8.69086 -1.00623,12.92569 -0.96813,5.47431 2.29309,7.53925 6.41333,8.98883 1.8432,0.64847 3.92627,0.80548 5.9068,0.84159 10.65601,0.19424 21.31781,0.15414 31.96924,0.4728 3.69098,0.11042 4.60059,-1.52752 4.53473,-4.73947 -0.25586,-12.48242 -0.39734,-24.96716 -0.64893,-37.44967 -0.10046,-4.98226 -2.62878,-7.67092 -7.68664,-7.91437 -4.48596,-0.21593 -8.99072,-0.0554 -13.48706,-0.0404 -6.16181,0.0204 -12.32721,-0.0579 -18.48401,0.13432 -3.95331,0.12344 -8.61859,5.62125 -8.23669,9.74213 0.44195,4.76843 4.25634,4.91879 7.82098,5.03665 2.64966,0.0876 5.30756,-0.0745 8.74878,-0.56697 m -280.03006,35.59779 c 8.65069,-0.0555 17.32141,0.1984 25.9396,-0.35916 2.51062,-0.16238 6.34357,-2.16891 6.98221,-4.16022 1.18528,-3.69586 1.27878,-8.21798 0.28101,-11.98681 -0.79334,-2.99665 -13.25363,-1.435 -16.27795,0.7193 -2.17362,1.54831 -5.62534,1.55099 -8.53177,1.67913 -0.94294,0.0415 -2.77979,-1.67062 -2.81833,-2.63607 -0.25507,-6.39157 -0.1319,-12.79824 -0.1319,-19.90125 4.50415,1.46579 10.13278,-2.42184 11.08505,4.7262 0.56501,4.24125 2.58683,5.21484 6.63135,5.08633 10.36069,-0.32921 10.36713,-0.12628 11.65433,-10.57709 1.06701,-8.66313 -1.96048,-12.23217 -10.79508,-12.44932 -8.81411,-0.21666 -17.63751,-0.12428 -26.44693,-0.44238 -8.66528,-0.31292 -11.11554,1.76538 -11.08751,10.32937 0.0332,10.14838 0.13851,20.29674 0.26186,30.44451 0.0778,6.40439 1.96387,8.52914 8.32118,9.42279 1.30797,0.18387 2.65682,0.0773 4.93288,0.10467 m -74.36948,0.10117 c 3.85823,0.0823 7.65961,0.0287 7.75304,-5.31867 0.21822,-12.49115 0.50828,-24.98265 0.54304,-37.47464 0.0159,-5.70718 -1.96139,-7.48246 -7.62603,-7.28654 -13.17923,0.45582 -26.35382,1.0455 -39.57164,1.58262 0,15.54496 0,31.91773 0,48.6803 6.03413,-0.51355 11.61389,-0.98843 17.39212,-1.48019 0.0904,-1.35541 0.21,-2.32852 0.21174,-3.30188 0.0155,-8.66516 0.13947,-17.33325 -0.0558,-25.994 -0.0729,-3.23536 0.99225,-4.56063 4.21802,-4.50811 2.2363,0.0364 4.47928,-0.33682 7.27017,-0.57382 0,12.06297 0,23.65415 0,35.68982 3.33365,0 6.13494,0 9.86534,-0.0149 m 199.06885,0.031 c 7.38199,-0.10714 9.14533,-1.03003 9.23279,-6.07986 0.21918,-12.65683 0.21289,-25.32112 0.0447,-37.97907 -0.0522,-3.92973 -1.92285,-6.49286 -6.59537,-6.23544 -13.49368,0.74333 -26.99973,1.26212 -40.66357,1.87639 0,15.36171 0,31.6078 0,48.51213 6.02926,-0.46219 11.72357,-0.89868 17.81109,-1.3653 0,-7.79705 -3e-5,-15.09591 -3e-5,-22.39476 0,-11.1896 3e-5,-11.1896 11.76969,-12.00917 0,11.75628 0,23.48941 0,35.67829 2.87441,0 5.16677,0 8.40069,-0.003 m 115.13544,-0.0377 c 6.76504,0 13.53009,0 20.47375,0 0,-2.6279 0.0683,-4.5978 -0.0121,-6.56161 -0.30817,-7.53195 -2.17249,-9.32279 -9.69815,-9.36292 -4.22275,-0.0225 -8.44574,-0.004 -12.66861,-0.004 3.62411,-3.74604 7.30835,-6.94468 11.5672,-8.87656 8.74048,-3.96478 11.25073,-10.49097 9.88745,-19.45535 -0.48682,-3.20108 -1.67944,-4.82196 -4.98755,-4.87868 -3.98654,-0.0684 -7.96893,-0.44562 -11.95477,-0.4772 -9.4231,-0.0747 -18.84717,-0.024 -28.84076,-0.024 0,2.82843 0.1326,5.6259 -0.0301,8.40612 -0.26438,4.51821 1.78488,6.34008 6.23092,6.20086 5.40058,-0.1691 10.81049,-0.0401 16.21634,-0.0401 0.13144,0.48301 0.26288,0.96603 0.39432,1.44903 -1.21289,0.97115 -2.38422,2.00037 -3.64594,2.90323 -5.0025,3.57947 -9.96777,7.21701 -15.07562,10.64096 -3.62774,2.43176 -5.00958,5.56974 -4.13458,9.81909 0.29959,1.45487 0.517,2.95856 0.50983,4.43866 -0.0208,4.30994 2.2485,5.84772 6.30423,5.78662 6.1531,-0.0927 12.30926,0.0139 19.46411,0.0359 m -173.00202,-0.003 c 5.60614,0 11.21228,0 16.94825,0 -0.16428,-2.65168 -0.30936,-4.62717 -0.40522,-6.60504 -0.37112,-7.65741 -2.03585,-9.2775 -9.67178,-9.31489 -4.23511,-0.0207 -8.4704,-0.004 -12.70029,-0.004 0,-0.71023 -0.0614,-0.95199 0.009,-0.99954 5.91242,-4.00717 11.85367,-7.97206 17.74985,-12.00284 3.47461,-2.37533 5.44107,-15.67637 2.60718,-18.66173 -0.88608,-0.93345 -2.61167,-1.34222 -4.0015,-1.47233 -3.63687,-0.34044 -7.29965,-0.51354 -10.95364,-0.53958 -9.60096,-0.0684 -19.2027,-0.0231 -29.12616,-0.0231 -0.11975,2.45043 -0.20444,4.90453 -0.36633,7.35354 -0.39484,5.97224 0.50109,7.06358 6.48467,7.18518 5.37632,0.10926 10.75657,0.023 16.13511,0.023 0.11984,0.47338 0.23971,0.94673 0.35955,1.42011 -4.78671,3.50331 -9.31329,7.45904 -14.42437,10.39827 -6.76712,3.89152 -10.26319,8.47548 -8.51969,16.84642 0.93891,4.50772 2.35691,6.45999 6.91507,6.37472 7.31784,-0.13687 14.64075,-0.002 22.96057,0.0215 m 371.11786,-14.26035 c -0.48858,-0.81631 -1.41913,-1.64575 -1.39532,-2.44681 0.17651,-5.94427 0.54266,-11.8829 0.8609,-18.04838 4.62244,0.21766 8.74438,0.47954 12.8703,0.58902 5.23791,0.13899 7.47858,-2.04236 7.76642,-7.36383 0.27612,-5.1068 -2.00525,-7.83553 -7.22144,-8.09404 -4.43445,-0.21978 -8.88843,-0.0454 -13.25042,-0.0454 -0.82081,-12.68501 -0.0801,-13.44839 -15.96851,-11.89259 -0.14063,1.21785 -0.27991,2.50345 -0.4397,3.78653 -0.18518,1.487 -0.20697,3.02678 -0.63599,4.44166 -0.4071,1.34243 -1.0086,2.7789 -1.94677,3.77723 -2.37433,2.52648 -3.03272,8.82691 -1.42841,11.83018 1.09369,2.04733 2.02954,4.45085 2.09931,6.72386 0.24023,7.82479 -0.0267,15.66359 0.0865,23.49437 0.0795,5.50049 2.21399,7.53052 7.58167,7.53961 8.16565,0.0138 16.33459,-0.19864 24.49591,-0.0235 4.81879,0.10339 7.42682,-2.3389 8.89404,-6.48749 3.67707,-10.39713 -0.36505,-15.70249 -11.23004,-14.48975 -1.35388,0.15109 -3.37262,1.74182 -3.62982,2.96994 -0.86108,4.11084 -2.94312,5.28702 -7.50867,3.73935 z"
   id="path1" />
<path
   fill="#ee8c02"
   opacity="1"
   stroke="none"
   d="m 423.99564,190.80023 c -23.12204,0.36008 -46.25754,0.34285 -69.3631,1.16576 -37.72269,1.34352 -75.48111,2.65979 -112.57097,10.7776 -0.73663,0.16123 -1.5394,0.0202 -2.74136,0.0202 12.05813,-15.6015 21.13697,-31.19683 4.86695,-49.45895 1.16385,-0.54276 2.15328,-0.85066 3.04529,-0.67206 24.59168,4.92401 49.16272,9.9513 73.76035,14.84506 18.31381,3.64356 36.67706,7.0389 54.98596,10.70635 14.07501,2.81935 28.12472,5.78013 42.11966,8.96789 2.1026,0.47893 5.89383,-0.65167 5.89722,3.64812 z"
   id="path2" />
<path
   fill="#eebf01"
   opacity="1"
   stroke="none"
   d="m 350.46222,78.696747 c 10.13766,-4.832604 19.82355,-10.342079 28.45709,-18.613419 2.33847,0.237538 3.95184,0.587479 5.56977,0.914982 19.57586,3.962681 39.15142,7.9268 58.729,11.881176 29.44955,5.948364 58.89609,11.91214 88.36835,17.745667 1.12207,0.222084 2.49932,-0.844971 3.75763,-1.31131 4.83398,4.966125 9.51086,10.098221 14.53967,14.858517 7.10357,6.72429 16.21002,8.4331 25.50549,9.82197 9.33295,1.39449 18.0957,-0.89159 26.93732,-3.10909 1.70184,-0.42681 3.4353,-0.72745 5.46826,-0.26627 -5.60742,3.59021 -11.21478,7.18042 -17.2904,10.60762 -1.92475,-0.86394 -3.31238,-1.89756 -4.84827,-2.21579 -22.50665,-4.66335 -45.02747,-9.25985 -67.5694,-13.7492 -1.31531,-0.26197 -2.84003,0.52688 -4.26727,0.82672 -12.50312,-4.37294 -24.77432,-9.652201 -37.55927,-12.923868 -24.13836,-6.177018 -48.70562,-6.592843 -73.30295,-2.33738 -1.31137,0.226875 -2.6444,0.328354 -4.5646,0.129624 -2.16889,-1.167824 -3.65817,-2.348267 -5.32721,-2.718552 -5.59882,-1.242119 -11.29916,-2.030159 -16.89151,-3.297173 -8.60068,-1.948585 -17.14401,-4.150055 -25.7117,-6.244224 z"
   id="path3" />
<path
   fill="#ff9553"
   opacity="1"
   stroke="none"
   d="m 71.24823,208.91121 c 7.279816,-0.10584 14.089828,-0.10584 20.667244,-0.10584 0.421722,0.58861 0.763321,0.84552 0.78421,1.12629 0.786446,10.57081 1.674668,21.1374 2.190399,31.72206 0.09985,2.04921 -1.326782,4.15353 -1.947326,6.26243 -0.644921,2.19173 -1.519112,4.39611 -1.669632,6.63683 -0.334397,4.97812 -0.470444,9.988 -0.32576,14.97442 0.129387,4.45868 -1.082665,6.8779 -6.16304,6.64319 -3.724526,-0.17206 -7.492607,0.59885 -11.009049,0.9278 -2.291832,-4.7273 1.526077,-10.23386 -3.434768,-14.21097 -0.276131,1.22589 -0.476616,2.00269 -0.624474,2.7894 -2.005409,10.67013 -2.423805,11.03372 -13.138905,11.14331 -8.823532,0.0902 -17.64722,0.21704 -26.470897,0.22226 -5.327875,0.003 -7.093182,-1.89505 -7.112,-7.2688 -0.0017,-0.49933 -0.08528,-1.02859 0.04705,-1.49326 0.864767,-3.03674 1.412748,-8.44711 2.743158,-8.65097 4.465282,-0.68417 9.237736,-2.43554 13.901901,1.93113 2.266747,2.12216 7.717026,0.96255 11.724457,0.94323 0.454895,-0.002 1.407761,-2.35037 1.18993,-3.41916 -0.180023,-0.8833 -1.686878,-2.00003 -2.713528,-2.12439 -6.269943,-0.75964 -12.570968,-1.26193 -18.860967,-1.85705 -6.389014,-0.60449 -8.011443,-2.39058 -7.921015,-8.91779 0.05763,-4.15968 0.130026,-8.32544 0.411491,-12.47384 0.244097,-3.59769 1.985609,-5.84127 5.973549,-5.93273 10.644787,-0.24411 21.287911,-0.86496 31.929806,-0.82553 7.291397,0.027 11.575279,7.85913 8.226715,14.21037 -1.889252,3.58336 -12.582832,3.90018 -15.643543,0.13007 -3.478611,-4.28488 -7.470337,-0.82759 -11.167851,-1.09933 -0.723434,-0.0532 -1.634662,2.4487 -2.482384,3.80921 9.821164,4.44161 21.172455,-0.99925 30.205452,8.11556 0.886689,-3.99094 2.359047,-7.56854 2.325562,-11.132 -0.06086,-6.4744 1.255859,-12.9544 -2.395622,-19.43158 -1.764626,-3.13019 0.07975,-8.29494 0.759834,-12.64432 z"
   id="path4" />
<path
   fill="#ee9303"
   opacity="1"
   stroke="none"
   d="m 424.45953,190.87363 c -0.46728,-4.37319 -4.25851,-3.24259 -6.36111,-3.72152 -13.99494,-3.18776 -28.04465,-6.14854 -42.11966,-8.96789 -18.3089,-3.66745 -36.67215,-7.06279 -54.98596,-10.70635 -24.59763,-4.89376 -49.16867,-9.92105 -73.76035,-14.84506 -0.89201,-0.1786 -1.88144,0.1293 -3.18127,0.35514 -1.79581,-0.92614 -3.23581,-1.99692 -4.67581,-3.06772 0.24395,-0.45404 0.48793,-0.90807 0.73188,-1.36211 9.66758,-1.2067 19.73647,0.20702 29.44167,-3.51201 2.31464,1.22278 4.06912,2.47778 6.00391,2.89328 11.4436,2.45754 22.92913,4.72014 34.54123,7.26299 0.40728,0.0667 0.67388,-0.0812 0.92584,-0.20295 -0.0147,0.0261 -0.047,0.0767 -0.047,0.0767 4.332,-0.86892 8.66403,-1.73783 13.58667,-2.29137 8.90652,2.2941 17.17453,4.5184 25.55753,6.153 4.52264,0.88183 9.24197,0.75476 13.87258,1.08287 1.07514,0.18646 2.15024,0.37292 3.73053,0.9929 2.08936,1.23224 3.59327,2.41434 5.27115,2.7656 8.87461,1.85779 17.8042,3.45141 26.68821,5.26654 2.21899,0.45338 5.35296,-0.0277 5.31561,3.76205 -9.03351,0.77091 -18.06699,1.5418 -27.1005,2.3127 7.4e-4,0.16707 0.001,0.33414 0.002,0.50121 18.67295,1.09887 37.37305,1.86558 56.01126,3.38905 19.04978,1.55711 38.06668,3.62408 57.04657,5.89696 18.77707,2.24858 37.09653,6.60214 54.77347,13.53814 -40.11896,-5.46778 -80.42529,-7.06379 -121.26868,-7.57212 z"
   id="path5" />
<path
   fill="#ff9553"
   opacity="1"
   stroke="none"
   d="m 445.09558,241.0056 c -0.1543,15.47981 -0.23291,30.46166 -0.47958,45.44072 -0.16724,10.15375 -2.79923,12.67721 -12.8711,12.50687 -8.31561,-0.14063 -16.63159,-0.39441 -24.94058,-0.75516 -6.46634,-0.28076 -9.85788,-4.051 -9.78882,-10.52896 0.0942,-8.83566 8.0408,-13.55216 16.08557,-9.43463 0.84021,0.43002 1.58283,1.76168 1.69925,2.75384 0.28418,2.42163 0.76209,4.50009 3.80997,3.81168 2.86392,-0.64685 6.7944,0.0515 7.09982,-4.57205 0.12809,-1.93909 0.0213,-3.89368 0.0213,-6.50236 -6.42288,0.48121 -12.32324,1.02823 -18.23599,1.33866 -6.83398,0.35883 -9.45343,-2.14966 -9.63803,-8.87699 -0.31497,-11.477 -0.63888,-22.95376 -0.94482,-34.43098 -0.0431,-1.61801 -0.006,-3.23816 -0.006,-4.6255 0.74075,-0.38648 1.01818,-0.63777 1.32141,-0.67412 14.00567,-1.67908 15.64297,-0.35373 16.48602,13.6604 0.28979,4.81665 0.20334,9.65828 0.57303,14.46666 0.15893,2.06656 -0.315,5.27621 3.48636,4.61828 3.12155,-0.54028 7.09631,-0.21362 7.33966,-5.00443 0.32916,-6.47928 0.59729,-12.96229 0.81958,-19.44616 0.20956,-6.11227 1.61426,-7.56498 7.70532,-7.81779 3.28186,-0.13623 6.56098,-0.33747 10.46173,-0.54186 0,4.90986 0,9.51229 -0.004,14.61388 z"
   id="path6" />
<path
   fill="#eec902"
   opacity="1"
   stroke="none"
   d="m 535.18518,89.044434 c -1.09943,0.735748 -2.47668,1.802803 -3.59875,1.580719 -29.47226,-5.833527 -58.9188,-11.797303 -88.36835,-17.745667 -19.57758,-3.954376 -39.15314,-7.918495 -58.729,-11.881176 -1.61793,-0.327503 -3.2313,-0.677444 -5.2674,-1.045742 3.7409,-5.912399 7.90247,-11.79602 12.78741,-17.815506 9.53904,1.718922 18.33893,3.656612 27.18799,5.335091 1.26215,0.239402 2.76248,-0.777069 4.15259,-1.2123 13.22791,12.824475 30.02451,17.300381 47.4924,19.418484 15.41562,1.869248 29.01096,-3.831444 41.41684,-12.605705 3.42517,-2.422497 6.70154,-5.055397 10.04614,-7.591744 0.375,0.253407 0.75006,0.506813 1.12506,0.76022 -0.63708,2.830345 -1.07629,5.723324 -1.9486,8.479217 -2.55518,8.072548 -2.62336,15.588879 3.61261,22.280789 3.49621,3.751793 6.6333,7.838249 10.09106,12.04332 z"
   id="path7" />
<path
   fill="#ff9452"
   opacity="1"
   stroke="none"
   d="m 575.37524,230.00043 c 3.7e-4,-7.12265 3.7e-4,-13.74547 3.7e-4,-20.69467 7.03271,-0.38955 13.41535,-0.74308 19.95313,-1.10521 0,11.04261 0,21.63378 0,33.36178 4.19366,-3.57519 8.03521,-6.76123 11.77649,-10.061 5.38006,-4.74521 5.34796,-4.77967 10.27679,0.21635 1.05279,1.0672 2.13794,2.10346 3.16858,3.19145 3.72851,3.93625 3.6568,6.53389 -0.33997,10.10219 -2.71344,2.42255 -5.49371,4.77028 -8.52289,7.39282 3.27527,2.9334 6.21766,5.61069 9.2071,8.23441 3.01733,2.64822 3.0686,5.30322 0.17163,8.05878 -2.88379,2.74295 -5.75513,5.49896 -8.92945,8.53369 -5.81897,-4.91828 -11.47644,-9.70001 -18.43872,-15.5846 0,4.1052 -0.0623,6.79483 0.016,9.48041 0.0953,3.26874 -1.21075,4.86917 -4.677,4.96365 -4.2915,0.11701 -8.57135,0.65723 -13.66235,1.08185 0,-15.84463 0,-31.25834 3e-4,-47.1719 z"
   id="path8" />
<path
   fill="#ff9452"
   opacity="1"
   stroke="none"
   d="m 645.90991,245.91029 c 2.31494,-0.0353 4.14759,-0.0883 5.97998,-0.0788 3.60236,0.0187 4.80579,-1.69974 3.58954,-5.6453 -4.17322,0.38861 -8.03186,-1.73443 -12.99182,1.16316 -3.38709,1.97872 -9.28223,0.0351 -13.93396,-0.8193 -0.98767,-0.1814 -2.35199,-3.48218 -1.97253,-4.93591 1.00622,-3.85526 2.70562,-8.19114 7.43353,-8.35082 11.31726,-0.38228 22.6571,-0.31996 33.98218,-0.11926 3.8789,0.0687 5.94567,2.78955 6.03643,6.6573 0.30854,13.15453 0.5354,26.31098 0.79175,39.46671 0.006,0.33294 0.13257,0.77914 -0.0319,0.98281 -3.38141,4.18604 -4.297,8.36908 -0.10327,12.60782 -1.07794,1.05957 -1.9928,2.7371 -3.26196,3.07209 -5.58112,1.47308 -11.57257,-4.42072 -10.70905,-10.245 0.11725,-0.7904 0.0844,-1.60312 0.13562,-2.72601 -7.00201,0 -13.80475,0.0988 -20.60217,-0.0476 -2.80518,-0.0604 -5.69623,-0.30737 -8.37555,-1.07327 -4.09314,-1.17014 -6.43591,-3.86511 -5.93366,-8.53336 0.49836,-4.63162 0.65467,-9.29916 1.099,-13.93773 0.45111,-4.70887 3.1811,-7.17512 7.88965,-7.32521 3.49616,-0.11143 6.99707,-0.0733 10.97821,-0.11235 m -1.6521,12.62026 c 0.71814,1.45621 1.23828,3.99588 2.19068,4.16992 3.13275,0.57236 6.42364,0.33517 9.64813,0.23142 0.23291,-0.007 0.70569,-1.4983 0.56921,-2.20304 -0.29388,-1.51779 -0.95349,-4.26404 -1.39117,-4.25 -3.64173,0.11652 -7.26703,0.7468 -11.01685,2.0517 z"
   id="path9" />
<path
   fill="#ff9452"
   opacity="1"
   stroke="none"
   d="m 794.82227,220.89651 c -0.32856,7.08214 -0.64332,13.68168 -1.01685,21.51267 6.52765,-5.5285 12.16193,-10.3004 17.75348,-15.0361 0.41669,0.0906 0.82165,0.0568 1.03638,0.24272 13.04998,11.30171 13.04577,11.30054 0.58337,22.88205 -0.59515,0.55308 -1.06964,1.23596 -1.80475,2.09817 3.15686,2.87653 6.15985,5.71944 9.28168,8.42528 2.73608,2.37149 2.56769,4.56329 0.31695,7.24127 -8.29547,9.87036 -8.24853,9.9101 -17.99316,1.69651 -2.87707,-2.42511 -5.75317,-4.85144 -8.62976,-7.27719 -0.50043,0.13729 -1.00092,0.27462 -1.50134,0.41195 0,3.05945 0.23346,6.14542 -0.10975,9.16586 -0.14672,1.2916 -1.35589,3.3624 -2.32147,3.50946 -4.88867,0.74476 -9.85589,0.97355 -15.18335,1.41538 0,-22.82916 0,-45.19928 0,-67.9203 6.43213,-0.33635 12.81006,-0.66986 19.60242,-1.02504 0,4.28578 0,8.23024 -0.0139,12.65731 z"
   id="path10" />
<path
   fill="#ff9553"
   opacity="1"
   stroke="none"
   d="m 226.01701,258.88336 c -2.82217,-0.0602 -5.19629,-0.39016 -7.46507,-0.0392 -1.26208,0.19519 -2.34865,1.52514 -3.5143,2.34372 1.03867,0.96923 2.12508,2.80407 3.10727,2.74987 3.30886,-0.18255 6.56478,-1.40265 9.87042,-1.54583 4.59443,-0.19904 9.23423,0.0395 13.80867,0.52426 0.87568,0.0928 2.02961,2.11932 2.21511,3.37759 0.81247,5.51123 -3.46947,10.36279 -9.07596,10.44971 -9.82027,0.15225 -19.64179,0.27002 -29.46307,0.29703 -6.12835,0.0168 -8.44376,-2.27131 -8.60375,-8.35718 -0.2755,-10.47998 -0.55313,-20.96083 -0.69279,-31.44315 -0.0931,-6.98298 3.9692,-10.95617 10.77525,-10.79416 8.81651,0.20983 17.63391,0.40177 26.44797,0.69109 8.62231,0.28303 11.8455,3.7457 11.40819,12.20933 -0.20588,3.98403 -0.55066,7.96199 -0.8926,11.93754 -0.44992,5.23141 -3.11259,7.67666 -8.4449,7.72756 -2.9955,0.0286 -5.9922,-0.0714 -9.48044,-0.12814 m -4.4192,-18.19559 c -2.25781,0.16286 -4.51561,0.32572 -6.5894,0.47532 -2.78553,6.51388 0.22104,9.1565 11.52598,7.18145 -0.31518,-3.1743 2.17617,-7.65899 -4.93658,-7.65677 z"
   id="path11" />
<path
   fill="#ff9553"
   opacity="1"
   stroke="none"
   d="m 771.80432,244.68657 c -0.96838,16.23958 -4.42798,14.4629 -15.90784,14.24074 -3.49694,-0.0677 -7.0141,-0.37247 -10.47949,-0.0741 -1.16815,0.10062 -2.20465,1.7302 -3.30139,2.66098 1,0.853 2.05695,2.48755 2.98987,2.41962 3.47931,-0.25342 6.90643,-1.46851 10.37482,-1.56809 4.58496,-0.13168 9.24444,0.14008 13.74835,0.93674 1.10962,0.19626 2.72607,3.32617 2.40191,4.70636 -0.85656,3.64728 -2.10589,8.20785 -6.61663,8.41907 -11.63337,0.54474 -23.30365,0.59652 -34.95069,0.38293 -3.72882,-0.0684 -5.93609,-3.0997 -5.99042,-6.85608 -0.17108,-11.82342 -0.26879,-23.65198 -0.0991,-35.4743 0.069,-4.80675 4.10645,-8.05133 9.11585,-7.96918 9.32257,0.15288 18.6441,0.36675 27.96619,0.54813 8.17675,0.1591 11.25024,3.42303 10.97265,11.67384 -0.0616,1.83112 -0.13336,3.66191 -0.22412,5.95334 m -30.46631,0.73192 c 0.99213,1.03955 1.84619,2.74962 3.00336,2.98805 3.00372,0.61887 6.14087,0.59053 9.68561,0.85486 -0.17243,-3.11663 -0.30542,-5.52005 -0.4654,-8.41113 -3.05938,0 -5.7019,0.17631 -8.31036,-0.0468 -2.94489,-0.2518 -3.84576,1.23429 -3.91321,4.61498 z"
   id="path12" />
<path
   fill="#ff9452"
   opacity="1"
   stroke="none"
   d="m 96.587189,268.24414 c -0.21962,-11.25702 -0.474633,-22.07913 -0.506439,-32.9019 -0.01722,-5.8578 2.855003,-8.59448 8.5854,-8.55762 9.99208,0.0643 19.98429,0.1635 29.9753,0.32036 6.48193,0.10175 9.58859,3.12782 9.58461,9.43817 -0.007,10.49257 -0.0929,20.98578 -0.24353,31.4773 -0.0908,6.33014 -2.83565,8.9581 -9.3006,8.99908 -9.65973,0.0613 -19.32012,0.0701 -28.98,0.036 -6.809276,-0.024 -8.343631,-1.49356 -9.114741,-8.81143 m 18.314841,-10.07483 c 0.45083,5.44251 3.72965,6.9848 10.86772,5.00931 0,-7.17151 0,-14.37789 0,-21.95693 -3.6709,0 -7.03555,0 -10.87687,0 0,5.47786 0,10.74677 0.009,16.94762 z"
   id="path13" />
<path
   fill="#ff9452"
   opacity="1"
   stroke="none"
   d="m 540.30164,241.59784 c -3.04773,0.27168 -5.70563,0.43373 -8.35529,0.34613 -3.56464,-0.11786 -7.37903,-0.26822 -7.82098,-5.03665 -0.3819,-4.12088 4.28338,-9.61869 8.23669,-9.74213 6.1568,-0.19224 12.3222,-0.11389 18.48401,-0.13432 4.49634,-0.0149 9.0011,-0.17551 13.48706,0.0404 5.05786,0.24345 7.58618,2.93211 7.68664,7.91437 0.25159,12.48251 0.39307,24.96725 0.64893,37.44967 0.0659,3.21195 -0.84375,4.84989 -4.53473,4.73947 -10.65143,-0.31866 -21.31323,-0.27856 -31.96924,-0.4728 -1.98053,-0.0361 -4.0636,-0.19312 -5.9068,-0.84159 -4.12024,-1.44958 -7.38146,-3.51452 -6.41333,-8.98883 0.74891,-4.23483 0.5973,-8.62164 1.00623,-12.92569 0.53131,-5.59123 2.99054,-7.80145 8.74762,-7.93437 5.32733,-0.123 10.67322,0.0842 15.97613,-0.31541 1.49268,-0.11249 2.86292,-1.84943 4.28931,-2.84125 -1.37964,-0.99268 -2.74835,-2.79283 -4.1413,-2.81177 -3.00256,-0.0408 -6.01757,0.83386 -9.42095,1.55475 m 12.1004,22.155 c 0.69873,-2.33603 1.39746,-4.67203 2.22198,-7.42862 -4.87988,0 -8.47522,0 -12.14416,0 -1.26966,4.41678 -0.44812,7.0292 4.62256,6.86972 1.47589,-0.0464 2.96594,0.35699 5.29962,0.5589 z"
   id="path14" />
<path
   fill="#eeb203"
   opacity="1"
   stroke="none"
   d="m 350.10242,78.758804 c 8.92749,2.032112 17.47082,4.233582 26.0715,6.182167 5.59235,1.267014 11.29269,2.055054 16.89151,3.297173 1.66904,0.370285 3.15832,1.550728 4.89532,2.713036 -13.41076,4.788993 -27.03189,9.0946 -40.53161,13.75214 -3.3913,1.17002 -6.39316,3.46893 -10.25641,5.1505 -5.73697,-1.47642 -10.73056,-3.16649 -15.85864,-4.16727 -10.69666,-2.08747 -21.46436,-3.8107 -32.20288,-5.68359 -0.95383,-6.829284 -5.48374,-10.989555 -10.64557,-14.9058 -3.33719,-2.531921 -6.155,-5.748382 -8.81058,-9.429535 23.29126,7.801003 46.37506,12.476281 70.44736,3.091179 z"
   id="path15" />
<path
   fill="#ff9553"
   opacity="1"
   stroke="none"
   d="m 260.19202,276.97479 c -1.80301,-0.0273 -3.15186,0.0792 -4.45983,-0.10467 -6.35731,-0.89365 -8.24333,-3.0184 -8.32118,-9.42279 -0.12335,-10.14777 -0.22862,-20.29613 -0.26186,-30.44451 -0.028,-8.56399 2.42223,-10.64229 11.08751,-10.32937 8.80942,0.3181 17.63282,0.22572 26.44693,0.44238 8.8346,0.21715 11.86209,3.78619 10.79508,12.44932 -1.2872,10.45081 -1.29364,10.24788 -11.65433,10.57709 -4.04452,0.12851 -6.06634,-0.84508 -6.63135,-5.08633 -0.95227,-7.14804 -6.5809,-3.26041 -11.08505,-4.7262 0,7.10301 -0.12317,13.50968 0.1319,19.90125 0.0385,0.96545 1.87539,2.67761 2.81833,2.63607 2.90643,-0.12814 6.35815,-0.13082 8.53177,-1.67913 3.02432,-2.1543 15.48461,-3.71595 16.27795,-0.7193 0.99777,3.76883 0.90427,8.29095 -0.28101,11.98681 -0.63864,1.99131 -4.47159,3.99784 -6.98221,4.16022 -8.61819,0.55756 -17.28891,0.30371 -26.41265,0.35916 z"
   id="path16" />
<path
   fill="#ff9553"
   opacity="1"
   stroke="none"
   d="m 185.83104,277.08341 c -3.26585,0.007 -6.06714,0.007 -9.40079,0.007 0,-12.03567 0,-23.62685 0,-35.68982 -2.79089,0.237 -5.03387,0.61025 -7.27017,0.57382 -3.22577,-0.0525 -4.29096,1.27275 -4.21802,4.50811 0.19527,8.66075 0.0713,17.32884 0.0558,25.994 -0.002,0.97336 -0.12132,1.94647 -0.21174,3.30188 -5.77823,0.49176 -11.35799,0.96664 -17.39212,1.48019 0,-16.76257 0,-33.13534 0,-48.6803 13.21782,-0.53712 26.39241,-1.1268 39.57164,-1.58262 5.66464,-0.19592 7.64192,1.57936 7.62603,7.28654 -0.0348,12.49199 -0.32482,24.98349 -0.54304,37.47464 -0.0934,5.34735 -3.89481,5.40097 -8.21759,5.32612 z"
   id="path17" />
<path
   fill="#ff9553"
   opacity="1"
   stroke="none"
   d="m 384.89368,277.10852 c -2.76316,0.002 -5.05552,0.002 -7.92993,0.002 0,-12.18888 0,-23.92201 0,-35.67829 -11.76966,0.81957 -11.76969,0.81957 -11.76969,12.00917 0,7.29885 3e-5,14.59771 3e-5,22.39476 -6.08752,0.46662 -11.78183,0.90311 -17.81109,1.3653 0,-16.90433 0,-33.15042 0,-48.51213 13.66384,-0.61427 27.16989,-1.13306 40.66357,-1.87639 4.67252,-0.25742 6.54318,2.30571 6.59537,6.23544 0.16818,12.65795 0.17447,25.32224 -0.0447,37.97907 -0.0875,5.04983 -1.8508,5.97272 -9.70355,6.08145 z"
   id="path18" />
<path
   fill="#ff9553"
   opacity="1"
   stroke="none"
   d="m 499.99988,277.06921 c -6.65485,-0.022 -12.81101,-0.12863 -18.96411,-0.0359 -4.05573,0.0611 -6.32505,-1.47668 -6.30423,-5.78662 0.007,-1.4801 -0.21024,-2.98379 -0.50983,-4.43866 -0.875,-4.24935 0.50684,-7.38733 4.13458,-9.81909 5.10785,-3.42395 10.07312,-7.06149 15.07562,-10.64096 1.26172,-0.90286 2.43305,-1.93208 3.64594,-2.90323 -0.13144,-0.483 -0.26288,-0.96602 -0.39432,-1.44903 -5.40585,0 -10.81576,-0.12899 -16.21634,0.0401 -4.44604,0.13922 -6.4953,-1.68265 -6.23092,-6.20086 0.16269,-2.78022 0.0301,-5.57769 0.0301,-8.40612 9.99359,0 19.41766,-0.0507 28.84076,0.024 3.98584,0.0316 7.96823,0.40885 11.95477,0.4772 3.30811,0.0567 4.50073,1.6776 4.98755,4.87868 1.36328,8.96438 -1.14697,15.49057 -9.88745,19.45535 -4.25885,1.93188 -7.94309,5.13052 -11.5672,8.87656 4.22287,0 8.44586,-0.0185 12.66861,0.004 7.52566,0.0401 9.38998,1.83097 9.69815,9.36292 0.0804,1.96381 0.0121,3.93371 0.0121,6.56161 -6.94366,0 -13.70871,0 -20.97375,-3e-5 z"
   id="path19" />
<path
   fill="#ff9452"
   opacity="1"
   stroke="none"
   d="m 326.99835,277.06439 c -7.82031,-0.0217 -15.14322,-0.15689 -22.46106,-0.02 -4.55816,0.0853 -5.97616,-1.867 -6.91507,-6.37472 -1.7435,-8.37094 1.75257,-12.9549 8.51969,-16.84642 5.11108,-2.93923 9.63766,-6.89496 14.42437,-10.39827 -0.11984,-0.47338 -0.23971,-0.94673 -0.35955,-1.42011 -5.37854,0 -10.75879,0.0862 -16.13511,-0.023 -5.98358,-0.1216 -6.87951,-1.21294 -6.48467,-7.18518 0.16189,-2.44901 0.24658,-4.90311 0.36633,-7.35354 9.92346,0 19.5252,-0.0453 29.12616,0.0231 3.65399,0.026 7.31677,0.19914 10.95364,0.53958 1.38983,0.13011 3.11542,0.53888 4.0015,1.47233 2.83389,2.98536 0.86743,16.2864 -2.60718,18.66173 -5.89618,4.03078 -11.83743,7.99567 -17.74985,12.00284 -0.0702,0.0476 -0.009,0.28931 -0.009,0.99954 4.22989,0 8.46518,-0.017 12.70029,0.004 7.63593,0.0374 9.30066,1.65748 9.67178,9.31489 0.0959,1.97787 0.24094,3.95336 0.40522,6.60504 -5.73597,0 -11.34211,0 -17.44776,-10e-4 z"
   id="path20" />
<path
   fill="#ff9452"
   opacity="1"
   stroke="none"
   d="m 698.99493,262.93793 c 4.18634,1.41525 6.26838,0.23907 7.12946,-3.87177 0.2572,-1.22812 2.27594,-2.81885 3.62982,-2.96994 10.86499,-1.21274 14.90711,4.09262 11.23004,14.48975 -1.46722,4.14859 -4.07525,6.59088 -8.89404,6.48749 -8.16132,-0.17518 -16.33026,0.0373 -24.49591,0.0235 -5.36768,-0.009 -7.50214,-2.03912 -7.58167,-7.53961 -0.11322,-7.83078 0.15369,-15.66958 -0.0865,-23.49437 -0.0698,-2.27301 -1.00562,-4.67653 -2.09931,-6.72386 -1.60431,-3.00327 -0.94592,-9.3037 1.42841,-11.83018 0.93817,-0.99833 1.53967,-2.4348 1.94677,-3.77723 0.42902,-1.41488 0.45081,-2.95466 0.63599,-4.44166 0.15979,-1.28308 0.29907,-2.56868 0.4397,-3.78653 15.88843,-1.5558 15.1477,-0.79242 15.96851,11.89259 4.36199,0 8.81597,-0.17438 13.25042,0.0454 5.21619,0.25851 7.49756,2.98724 7.22144,8.09404 -0.28784,5.32147 -2.52851,7.50282 -7.76642,7.36383 -4.12592,-0.10948 -8.24786,-0.37136 -12.8703,-0.58902 -0.31824,6.16548 -0.68439,12.10411 -0.8609,18.04838 -0.0238,0.80106 0.90674,1.6305 1.77453,2.57923 z"
   id="path21" />
<path
   fill="#eeba03"
   opacity="1"
   stroke="none"
   d="m 514.04437,106.35505 c 1.20233,-0.56657 2.72705,-1.35542 4.04236,-1.09345 22.54193,4.48935 45.06275,9.08585 67.5694,13.7492 1.53589,0.31823 2.92352,1.35185 4.57629,2.44197 -2.41205,5.94603 -5.02026,11.50284 -8.26684,17.27192 -2.72742,-0.25878 -4.80353,-0.79934 -6.9076,-1.18903 -10.03906,-1.85942 -20.08563,-3.67787 -30.12957,-5.51088 -8.38013,-10.68785 -18.86481,-18.8357 -30.88404,-25.66973 z"
   id="path22" />
<path
   fill="#eea502"
   opacity="1"
   stroke="none"
   d="m 299.08859,100.46384 c 10.76114,1.41201 21.52884,3.13524 32.2255,5.22271 5.12808,1.00078 10.12167,2.69085 15.5188,4.23255 -4.23536,3.55163 -9.04901,6.67046 -13.31818,10.41078 -3.53156,3.09408 -6.4202,6.922 -10.2229,10.48274 -4.46259,-0.90597 -8.32672,-1.76352 -12.12201,-2.85936 -5.41885,-1.5646 -10.78735,-3.30375 -16.17734,-4.96834 3.14185,-7.02397 4.91126,-14.30137 4.09613,-22.52108 z"
   id="path23" />
<path
   fill="#eeac03"
   opacity="1"
   stroke="none"
   d="m 544.99121,132.36948 c 9.98114,1.48831 20.02771,3.30676 30.06677,5.16618 2.10407,0.38969 4.18018,0.93025 6.67267,1.4564 -1.8385,10.35355 -2.89996,20.69715 -1.25104,31.58527 -6.39898,-0.24339 -12.33325,-0.90991 -18.26751,-1.57641 -1.77539,-4.27569 -3.36005,-8.64332 -5.36719,-12.80729 -3.80225,-7.8882 -7.84686,-15.65956 -11.8537,-23.82415 z"
   id="path24" />
<path
   fill="#ee9905"
   opacity="1"
   stroke="none"
   d="m 364.13492,159.67003 c -4.77585,0.0225 -9.49518,0.14953 -14.01782,-0.7323 -8.383,-1.6346 -16.65101,-3.8589 -25.14737,-6.20819 25.85104,-7.73166 52.15783,-8.31034 78.75805,-3.24929 -6.59268,1.46717 -13.21798,2.80365 -19.76892,4.4381 -6.59805,1.64622 -13.12219,3.58853 -19.82394,5.75168 z"
   id="path25" />
<path
   fill="#ee9e05"
   opacity="1"
   stroke="none"
   d="m 562.26141,169.35236 c 5.88495,0.31506 11.81922,0.98158 18.17865,1.64897 1.78003,14.58452 11.13752,23.12011 24.11212,30.30883 -9.66436,0.61124 -18.21124,1.34252 -26.768,1.48906 -1.29626,0.0222 -3.16321,-2.4552 -3.87372,-4.15042 -4.01703,-9.58529 -7.76208,-19.28454 -11.64905,-29.29644 z"
   id="path26" />
<path
   fill="#ee9b02"
   opacity="1"
   stroke="none"
   d="m 294.72919,123.19121 c 5.65326,1.4583 11.02176,3.19745 16.44061,4.76205 3.79529,1.09584 7.65942,1.95339 11.87286,3.07262 -2.10592,5.00111 -4.59192,9.84695 -7.70367,14.77888 -6.41232,-1.21391 -12.24344,-2.34604 -17.97199,-3.86491 -4.95178,-1.3129 -9.78714,-3.06519 -14.67395,-4.62326 3.92429,-4.6397 7.84861,-9.2794 12.03614,-14.12538 z"
   id="path27" />
<path
   fill="#eed205"
   opacity="1"
   stroke="none"
   d="m 423.17291,46.006157 c -1.21335,0.688927 -2.71368,1.705398 -3.97583,1.465996 -8.84906,-1.678479 -17.64895,-3.616169 -26.87814,-5.489563 2.9638,-9.242214 6.34115,-18.465817 9.99084,-28.433229 4.93845,12.260919 11.21958,23.301999 20.86313,32.456796 z"
   id="path28" />
<path
   fill="#ee9905"
   opacity="1"
   stroke="none"
   d="m 405.46112,172.86401 c -0.42859,-3.84607 -3.56256,-3.36499 -5.78155,-3.81837 -8.88401,-1.81513 -17.8136,-3.40875 -26.68821,-5.26654 -1.67788,-0.35126 -3.18179,-1.53336 -4.88494,-2.6272 10.32662,0.11604 20.79901,0.19174 31.21115,1.02217 13.4085,1.06937 26.63705,3.27522 38.85293,9.39066 -0.008,0.45187 -0.0159,0.90373 -0.0238,1.3556 -10.73987,0 -21.47977,0 -32.68558,-0.0563 z"
   id="path29" />
<path
   fill="#ee9500"
   opacity="1"
   stroke="none"
   d="m 282.38184,137.49222 c 5.19802,1.38244 10.03338,3.13473 14.98516,4.44763 5.72855,1.51887 11.55967,2.651 17.7403,4.10712 -1.22794,2.8764 -2.84988,5.59671 -4.3031,8.67306 0.1687,0.35607 0.20099,0.30554 -0.0575,0.0624 -0.43676,-0.0937 -0.61505,0.0558 -0.79333,0.20526 -11.47141,-2.32817 -22.95694,-4.59077 -34.40054,-7.04831 -1.93479,-0.4155 -3.68927,-1.6705 -5.60056,-2.93213 3.99042,-2.70947 8.05438,-5.02446 12.42957,-7.51504 z"
   id="path30" />
<path
   fill="#fffffe"
   opacity="1"
   stroke="none"
   d="m 310.09406,155.20238 c 0.0376,-0.36415 0.21588,-0.51363 0.66732,-0.44609 0.007,0.36493 -0.26004,0.51284 -0.66732,0.44609 z"
   id="path31" />
<path
   fill="#fff9f5"
   opacity="1"
   stroke="none"
   d="m 644.31763,258.11566 c 3.69,-0.89001 7.3153,-1.52029 10.95703,-1.63681 0.43768,-0.014 1.09729,2.73221 1.39117,4.25 0.13648,0.70474 -0.3363,2.19556 -0.56921,2.20304 -3.22449,0.10375 -6.51538,0.34094 -9.64813,-0.23142 -0.9524,-0.17404 -1.47254,-2.71371 -2.13086,-4.58481 z"
   id="path32" />
<path
   fill="#fff9f5"
   opacity="1"
   stroke="none"
   d="m 221.9964,240.63083 c 6.71416,0.0547 4.22281,4.53941 4.53799,7.71371 -11.30494,1.97505 -14.31151,-0.66757 -11.52598,-7.18145 2.07379,-0.1496 4.33159,-0.31246 6.98799,-0.53226 z"
   id="path33" />
<path
   fill="#fffcfa"
   opacity="1"
   stroke="none"
   d="m 741.34839,245.00107 c 0.0571,-2.96327 0.95794,-4.44936 3.90283,-4.19756 2.60846,0.22307 5.25098,0.0468 8.31036,0.0468 0.15998,2.89108 0.29297,5.2945 0.4654,8.41113 -3.54474,-0.26433 -6.68189,-0.23599 -9.68561,-0.85486 -1.15717,-0.23843 -2.01123,-1.9485 -2.99298,-3.40547 z"
   id="path34" />
<path
   fill="#fffefe"
   opacity="1"
   stroke="none"
   d="m 114.89745,257.70334 c -0.005,-5.73488 -0.005,-11.00379 -0.005,-16.48165 3.84132,0 7.20597,0 10.87687,0 0,7.57904 0,14.78542 0,21.95693 -7.13807,1.97549 -10.41689,0.4332 -10.8723,-5.47528 z"
   id="path35" />
<path
   fill="#fff9f5"
   opacity="1"
   stroke="none"
   d="m 551.97693,263.75049 c -1.90857,-0.19956 -3.39862,-0.60294 -4.87451,-0.55655 -5.07068,0.15948 -5.89222,-2.45294 -4.62256,-6.86972 3.66894,0 7.26428,0 12.14416,0 -0.82452,2.75659 -1.52325,5.09259 -2.64709,7.42627 z"
   id="path36" />
</svg>
