<?xml version="1.0" encoding="UTF-8" standalone="no"?>
<!-- Created with Inkscape (http://www.inkscape.org/) -->

<svg
   width="264.03973mm"
   height="97.735046mm"
   viewBox="0 0 264.03973 97.735046"
   version="1.1"
   id="svg1"
   xmlns="http://www.w3.org/2000/svg"
   xmlns:svg="http://www.w3.org/2000/svg">
  <defs
     id="defs1" />
  <g
     id="layer1"
     transform="translate(32.581207,-0.72184603)">
    <path
       fill="#fffffe"
       opacity="1"
       stroke="none"
       d="m 133.72352,98.456889 c -55.538332,0 -110.92151,0 -166.304707,0 -1e-5,-32.57834 -1e-5,-65.15666 -2e-5,-97.73501197 88.01321,-1.6e-5 176.026437,-1.6e-5 264.039667,-3.1e-5 4e-5,32.57828297 4e-5,65.15659297 7e-5,97.73496297 -32.52659,8e-5 -65.05325,8e-5 -97.73501,8e-5 m -68.580629,-52.8332 c 0.771337,-1.50351 1.542669,-3.00703 2.468602,-4.64288 0.984639,-1.08681 1.880897,-2.27449 2.976634,-3.2345 1.324597,-1.16051 2.818128,-2.12818 4.449414,-3.21983 0.986911,-0.55231 1.918297,-1.2656 2.970516,-1.62862 4.188561,-1.44509 8.414787,-2.78099 12.895051,-4.15391 0.410477,-0.0496 0.824076,-0.0811 1.230955,-0.15147 7.631814,-1.32034 15.254297,-1.19133 22.743707,0.72522 3.96679,1.0151 7.77418,2.65309 11.79309,4.1754 3.65942,2.03764 6.9125,4.56567 9.5516,8.0957 1.22369,2.42627 2.47861,4.83749 3.65834,7.28496 0.62275,1.29196 1.11442,2.6471 1.69588,4.19181 1.1907,2.99734 2.35268,6.00673 3.59905,8.98076 0.22045,0.52597 0.7997,1.29464 1.20189,1.28775 2.65491,-0.0455 5.30675,-0.27236 8.30531,-0.46201 -4.02563,-2.23045 -6.92898,-4.87878 -7.3248,-9.66675 -0.6558,-3.24698 -0.32647,-6.45629 0.51492,-9.8175 0.80925,-1.72412 1.6185,-3.44823 2.59654,-5.3127 1.73982,-1.11394 3.47962,-2.22788 5.21943,-3.34181 -0.63077,-0.14309 -1.16861,-0.0498 -1.69664,0.0826 -2.74329,0.68802 -5.46211,1.39732 -8.35784,0.96465 -2.8841,-0.43092 -5.70956,-0.96111 -7.91359,-3.04746 -1.56029,-1.47698 -3.01138,-3.06931 -4.60981,-4.77733 -1.02355,-1.22112 -1.99689,-2.48902 -3.08166,-3.65309 -1.93484,-2.0763 -1.91368,-4.40839 -1.12089,-6.913063 0.27065,-0.855071 0.40693,-1.752675 0.6046,-2.630847 -0.11635,-0.07862 -0.23273,-0.157249 -0.34908,-0.235873 -1.03772,0.786952 -2.05429,1.603862 -3.11701,2.35549 -3.84917,2.722393 -8.06741,4.491143 -12.85041,3.911173 -5.41976,-0.65718 -10.63124,-2.045924 -14.845143,-6.182402 -2.937272,-2.761745 -4.886119,-6.187461 -6.418371,-9.991656 -1.13239,3.092589 -2.180281,5.954396 -3.420438,8.91206 -1.291209,1.825512 -2.582418,3.651023 -4.061256,5.557675 -2.454397,2.534713 -5.459638,4.244133 -8.828334,5.782053 -7.357263,2.89266 -14.519476,1.44206 -21.746056,-0.97835 0.823947,1.14215 1.698231,2.14012 2.733659,2.9257 1.601562,1.21509 3.007058,2.5059 3.288969,4.91082 0.259924,2.40733 -0.28907,4.66529 -1.427255,6.97262 -1.217586,1.43956 -2.435185,2.87912 -3.845906,4.42766 -1.260917,0.71827 -2.521842,1.43654 -4.033057,2.17891 -2.863274,1.26425 -5.987349,0.82562 -8.986909,1.20002 -0.07569,0.14088 -0.15139,0.28175 -0.227079,0.42262 0.446789,0.33224 0.893577,0.66447 1.424755,1.19337 5.116298,5.52297 2.299406,10.36174 -1.441871,15.20242 0.372933,0 0.622009,0.0437 0.850562,-0.006 11.507872,-2.51872 23.223177,-2.92712 34.927396,-3.34397 7.168962,-0.25533 14.347216,-0.24998 21.809146,-0.31616 12.528558,0.13495 25.034408,0.63015 37.482118,2.32663 -5.48463,-2.15203 -11.16861,-3.50281 -16.99457,-4.20047 -5.88889,-0.70521 -11.78927,-1.34653 -17.69984,-1.82966 -5.782881,-0.47268 -11.58496,-0.71057 -17.378616,-1.05152 -2.35e-4,-0.0518 -2.64e-4,-0.10367 -5.29e-4,-0.15551 2.802829,-0.23918 5.605645,-0.47837 8.697608,-0.68261 3.332261,0 6.664529,0 9.996787,0 0.002,-0.1402 0.005,-0.2804 0.007,-0.4206 -3.790219,-1.89744 -7.894642,-2.58185 -12.054898,-2.91364 -3.230575,-0.25766 -6.479844,-0.28115 -9.960445,-0.49459 -0.333584,-0.0579 -0.667155,-0.11572 -0.910614,-0.39111 2.034291,-0.56239 4.058536,-1.16503 6.105713,-1.6758 2.03256,-0.50712 4.08819,-0.92179 6.133703,-1.37701 -8.253251,-1.57029 -16.415459,-1.39075 -24.746781,0.92743 -1.344088,0.2696 -2.688188,0.53919 -4.136972,0.58784 0.503243,-0.84402 1.00648,-1.68806 1.653506,-2.68238 m -76.074114,19.63958 c -0.06525,1.31665 -0.637501,2.91911 -0.08999,3.89032 1.132945,2.00967 0.724406,4.02022 0.743289,6.02904 0.01039,1.10563 -0.446439,2.21565 -0.721552,3.45392 -2.802668,-2.82805 -6.324633,-1.13992 -9.371846,-2.51801 0.263023,-0.42213 0.54575,-1.19839 0.770209,-1.18189 1.147228,0.0843 2.385741,-0.98838 3.46505,0.34109 0.949647,1.16975 4.267544,1.07146 4.853722,-0.0404 1.038959,-1.97059 -0.290201,-4.40067 -2.552503,-4.40905 -3.301861,-0.0122 -6.604103,0.1804 -9.906861,0.25614 -1.237338,0.0284 -1.777677,0.72449 -1.853414,1.84075 -0.08733,1.28712 -0.109793,2.57963 -0.127673,3.87026 -0.02806,2.0252 0.475334,2.57937 2.457654,2.76692 1.951598,0.18465 3.906617,0.34049 5.851992,0.57619 0.318539,0.0386 0.786071,0.38507 0.841927,0.65913 0.06759,0.33161 -0.22806,1.06018 -0.3692,1.06086 -1.243386,0.006 -2.934444,0.36579 -3.637747,-0.29265 -1.447151,-1.35485 -2.927901,-0.81145 -4.313344,-0.59917 -0.412786,0.0632 -0.582808,1.74192 -0.851119,2.68413 -0.04106,0.14418 -0.01514,0.30839 -0.0146,0.46332 0.0058,1.66731 0.55356,2.25626 2.20664,2.25529 2.737722,-0.002 5.475448,-0.041 8.213126,-0.069 3.324574,-0.034 3.45439,-0.14682 4.076608,-3.45744 0.04588,-0.24409 0.10808,-0.48511 0.193755,-0.86547 1.539202,1.23398 0.354619,2.9425 1.065706,4.40924 1.091046,-0.10206 2.260169,-0.34125 3.415778,-0.28787 1.576287,0.0728 1.95235,-0.67778 1.912205,-2.06118 -0.04489,-1.54714 -0.0027,-3.10155 0.101073,-4.64611 0.0467,-0.69523 0.317939,-1.37918 0.518038,-2.05921 0.192535,-0.65433 0.635175,-1.30724 0.604197,-1.94305 -0.160017,-3.2841 -0.435604,-6.56259 -0.679616,-9.8424 -0.0065,-0.0871 -0.112469,-0.16683 -0.243316,-0.34945 -2.040774,0 -4.153717,0 -6.558189,0.0657 m 116.140673,9.77022 c 0,-1.428 0,-2.85599 0,-4.37938 -1.21029,0.0634 -2.2277,0.12586 -3.24596,0.16813 -1.88987,0.0784 -2.325711,0.52917 -2.390732,2.42562 -0.06897,2.01175 -0.152162,4.02324 -0.254291,6.03356 -0.07551,1.48645 -1.308751,1.3851 -2.277274,1.55273 -1.179449,0.20413 -1.032405,-0.79173 -1.081715,-1.43292 -0.114702,-1.49189 -0.08788,-2.9941 -0.177795,-4.48857 -0.261572,-4.34816 -0.769577,-4.75938 -5.115115,-4.23841 -0.09408,0.0113 -0.180163,0.0892 -0.409996,0.20916 0,0.43045 -0.01151,0.93313 0.0019,1.43515 0.09493,3.56104 0.195424,7.12193 0.293148,10.6829 0.05728,2.08729 0.870013,2.8656 2.990392,2.75427 1.83455,-0.0963 3.665255,-0.26604 5.65808,-0.41535 0,0.8094 0.03313,1.41585 -0.0066,2.01749 -0.09476,1.43454 -1.314273,1.21787 -2.202863,1.41857 -0.945666,0.21359 -1.093946,-0.43129 -1.182118,-1.18265 -0.03612,-0.30784 -0.266536,-0.72101 -0.527228,-0.85443 -2.49605,-1.27755 -4.961649,0.18584 -4.99087,2.92728 -0.02143,2.00992 1.030867,3.17971 3.037179,3.26682 2.578029,0.11193 5.158229,0.19067 7.738318,0.2343 3.12499,0.0529 3.94162,-0.7301 3.99351,-3.8805 0.0765,-4.64756 0.10093,-9.29598 0.15009,-14.25377 m 40.42052,-3.10462 c 0,4.78242 0,9.56483 0,14.48094 1.57958,-0.13174 2.90749,-0.29936 4.23901,-0.33566 1.07548,-0.0293 1.4807,-0.52588 1.45114,-1.54007 -0.0243,-0.83326 -0.005,-1.66777 -0.005,-2.94149 2.16019,1.82581 3.91553,3.30944 5.72098,4.83543 0.9849,-0.94158 1.87579,-1.79669 2.77055,-2.64774 0.89884,-0.85497 0.88293,-1.67874 -0.0533,-2.5004 -0.92753,-0.81406 -1.84046,-1.64474 -2.85668,-2.55489 0.93986,-0.8137 1.8025,-1.54213 2.64439,-2.29377 1.24008,-1.10714 1.26233,-1.91311 0.10549,-3.13441 -0.31978,-0.33757 -0.65647,-0.65909 -0.98312,-0.99021 -1.52927,-1.55012 -1.51931,-1.53943 -3.18858,-0.0671 -1.16081,1.02382 -2.35272,2.01235 -3.65389,3.12163 0,-3.63885 0,-6.92497 0,-10.35116 -2.02848,0.11236 -4.00882,0.22205 -6.19086,0.34291 0,2.15613 0,4.21099 -2.1e-4,6.57602 m 21.73525,4.78455 c -1.08559,0.009 -2.17182,-0.003 -3.25657,0.0316 -1.46092,0.0466 -2.30796,0.81177 -2.44792,2.27279 -0.13786,1.43921 -0.18636,2.88741 -0.34099,4.32446 -0.15583,1.44842 0.57106,2.28459 1.84104,2.64765 0.83131,0.23763 1.72832,0.31426 2.59868,0.333 2.10904,0.0454 4.21972,0.0148 6.39224,0.0148 -0.0159,0.34839 -0.006,0.60056 -0.0421,0.84579 -0.26793,1.8071 1.59104,3.63577 3.3227,3.17872 0.39378,-0.10394 0.67763,-0.62442 1.01208,-0.95318 -1.30119,-1.31515 -1.01711,-2.61302 0.032,-3.91183 0.051,-0.0632 0.0119,-0.20163 0.01,-0.30493 -0.0795,-4.08183 -0.14993,-8.16388 -0.24566,-12.24534 -0.0282,-1.20004 -0.66941,-2.04424 -1.87292,-2.06556 -3.51383,-0.0623 -7.03224,-0.0816 -10.54365,0.037 -1.46693,0.0495 -1.9942,1.39484 -2.3064,2.59101 -0.11774,0.45105 0.30557,1.47519 0.61202,1.53147 1.44329,0.26509 3.27237,0.86814 4.32328,0.2542 1.53893,-0.89903 2.73615,-0.24032 4.03098,-0.36089 0.37736,1.22419 0.004,1.75736 -1.11373,1.75156 -0.56854,-0.003 -1.13715,0.0135 -2.00505,0.0277 m 46.35698,-7.91404 c 0,-1.22385 0,-2.44769 0,-3.77744 -2.10747,0.1102 -4.08635,0.21368 -6.08204,0.31804 0,7.04965 0,13.99042 0,21.07363 1.65295,-0.13709 3.19413,-0.20807 4.71093,-0.43915 0.29959,-0.0456 0.67476,-0.68814 0.72029,-1.08888 0.10648,-0.93715 0.034,-1.89464 0.034,-2.84389 0.15526,-0.0426 0.31055,-0.0852 0.46582,-0.12782 0.89252,0.75264 1.78489,1.50546 2.67756,2.2579 3.02346,2.54843 3.0089,2.5361 5.58273,-0.52638 0.69834,-0.8309 0.75059,-1.51095 -0.0983,-2.24675 -0.96861,-0.83954 -1.90034,-1.72161 -2.87982,-2.61411 0.22808,-0.26752 0.3753,-0.4794 0.55996,-0.651 3.8667,-3.5934 3.86801,-3.59303 -0.18101,-7.09961 -0.0666,-0.0577 -0.19227,-0.0472 -0.32155,-0.0753 -1.73489,1.46934 -3.48304,2.94992 -5.50838,4.66525 0.1159,-2.42972 0.21356,-4.47736 0.3198,-6.82448 M 37.387483,80.739859 c 0.929625,0.0131 1.85941,0.0441 2.788823,0.0352 1.654455,-0.0158 2.480603,-0.77448 2.6202,-2.39763 0.106093,-1.23349 0.213069,-2.46774 0.276947,-3.70386 0.135684,-2.62601 -0.864375,-3.70037 -3.539619,-3.78819 -2.734739,-0.0898 -5.470515,-0.14932 -8.206013,-0.21443 -2.111713,-0.0503 -3.372106,1.1825 -3.343238,3.34911 0.04333,3.25235 0.129474,6.50424 0.214953,9.75587 0.04964,1.88826 0.768043,2.59819 2.669485,2.59298 3.047248,-0.008 6.094574,-0.0449 9.141507,-0.0922 1.739527,-0.027 3.068085,-1.53226 2.816,-3.24223 -0.05756,-0.39041 -0.415586,-1.01918 -0.687284,-1.04797 -1.41931,-0.15041 -2.858902,-0.22442 -4.284416,-0.16266 -1.025639,0.0444 -2.035855,0.42298 -3.062494,0.47962 -0.304745,0.0168 -0.641824,-0.55248 -0.964094,-0.8532 0.361667,-0.25398 0.698796,-0.66662 1.090382,-0.72718 0.703935,-0.10888 1.440553,-0.006 2.468861,0.0167 m 169.196137,-4.55226 c 0.0208,-0.56808 0.043,-1.13612 0.0622,-1.70426 0.0861,-2.55998 -0.86748,-3.57268 -3.40449,-3.62204 -2.89236,-0.0563 -5.78455,-0.12264 -8.67706,-0.17007 -1.55427,-0.0255 -2.80696,0.98121 -2.82838,2.4726 -0.0527,3.66811 -0.0223,7.33816 0.0308,11.00661 0.0169,1.16549 0.70171,2.10601 1.85865,2.12723 3.61372,0.0663 7.23466,0.0502 10.84415,-0.11881 1.39954,-0.0655 1.78717,-1.48054 2.05294,-2.61218 0.10058,-0.42823 -0.40096,-1.39935 -0.74524,-1.46024 -1.39743,-0.24718 -2.84313,-0.3315 -4.2657,-0.29065 -1.07614,0.0309 -2.13947,0.40791 -3.219,0.48654 -0.28946,0.0211 -0.6174,-0.48608 -0.92767,-0.75074 0.34029,-0.28879 0.66189,-0.7944 1.02433,-0.82562 1.0752,-0.0926 2.16647,0.002 3.25147,0.023 3.56186,0.0689 4.63527,0.62018 4.94309,-4.56135 m -209.48915,7.58691 c 0.221385,2.13566 0.697447,2.59161 2.81016296,2.59906 2.99717104,0.0106 5.99450104,0.008 8.99162384,-0.0112 2.0058802,-0.0127 2.8575102,-0.8281 2.8856962,-2.79215 0.04673,-3.2552 0.0735,-6.51093 0.07556,-9.76646 0.0013,-1.95791 -0.962668,-2.89681 -2.9738157,-2.92838 -3.0999113,-0.0487 -6.2001933,-0.0795 -9.30043734,-0.0994 -1.77797096,-0.0115 -2.66913596,0.83767 -2.66379096,2.65517 0.0099,3.35798 0.08899,6.71576 0.175001,10.34334 m 137.77551,-8.47094 c 0.93388,-0.15515 1.86935,-0.42653 2.80095,-0.41388 0.43219,0.006 0.85686,0.56441 1.28493,0.87241 -0.44257,0.30773 -0.86772,0.84666 -1.33085,0.88156 -1.64533,0.12398 -3.304,0.0597 -4.95691,0.0979 -1.78625,0.0412 -2.54928,0.727 -2.71413,2.4618 -0.12688,1.33541 -0.0798,2.69651 -0.3122,4.01045 -0.30038,1.69852 0.71148,2.3392 1.98986,2.78896 0.57189,0.20121 1.21821,0.24992 1.83271,0.26112 3.30624,0.0603 6.61427,0.0478 9.91909,0.1467 1.1452,0.0343 1.42743,-0.47394 1.40699,-1.47051 -0.0794,-3.87293 -0.12328,-7.74657 -0.20134,-11.61952 -0.0312,-1.54584 -0.81563,-2.38005 -2.38493,-2.45559 -1.39186,-0.067 -2.78955,-0.0172 -4.18463,-0.0125 -1.91183,0.006 -3.82477,-0.018 -5.73504,0.0417 -1.22659,0.0383 -2.67409,1.74411 -2.5556,3.02269 0.13713,1.4795 1.32062,1.52615 2.42662,1.56272 0.82211,0.0272 1.64678,-0.0231 2.71448,-0.17591 m -86.88492,11.04493 c 2.684049,-0.0172 5.374312,0.0616 8.048278,-0.11144 0.77897,-0.0504 1.96822,-0.67294 2.166371,-1.29079 0.367758,-1.14671 0.396767,-2.54979 0.08719,-3.71915 -0.246149,-0.92977 -4.112204,-0.44523 -5.050559,0.22318 -0.67441,0.4804 -1.745374,0.48123 -2.647151,0.52099 -0.292566,0.0129 -0.862486,-0.51835 -0.874445,-0.8179 -0.07914,-1.98311 -0.04092,-3.97091 -0.04092,-6.17476 1.397503,0.45479 3.143899,-0.75142 3.439359,1.4664 0.175305,1.31593 0.802616,1.61801 2.057508,1.57814 3.214611,-0.10215 3.216611,-0.0392 3.615989,-3.28176 0.331063,-2.68791 -0.608277,-3.79527 -3.349389,-3.86265 -2.734755,-0.0672 -5.472391,-0.0386 -8.20569,-0.13726 -2.688576,-0.0971 -3.448817,0.54775 -3.44012,3.2049 0.01029,3.14873 0.04297,6.29747 0.08124,9.44602 0.02413,1.98709 0.609331,2.64633 2.581813,2.9236 0.405825,0.0571 0.824333,0.024 1.530527,0.0325 m -23.074622,0.0314 c 1.197094,0.0255 2.376549,0.009 2.405536,-1.65023 0.06771,-3.87562 0.157705,-7.75136 0.16849,-11.62725 0.005,-1.77077 -0.608561,-2.32158 -2.366129,-2.2608 -4.08912,0.14143 -8.1768,0.32439 -12.277892,0.49104 0,4.82314 0,9.90312 0,15.10404 1.872208,-0.15934 3.60344,-0.30668 5.396251,-0.45926 0.02805,-0.42054 0.06516,-0.72247 0.0657,-1.02447 0.0048,-2.68854 0.04327,-5.37799 -0.0173,-8.06516 -0.02262,-1.00384 0.307867,-1.41503 1.308725,-1.39873 0.693859,0.0113 1.389787,-0.10451 2.255715,-0.17804 0,3.74278 0,7.33917 0,11.07348 1.034333,0 1.90349,0 3.06092,-0.005 m 61.765097,0.01 c 2.290408,-0.0332 2.837521,-0.31958 2.864657,-1.88639 0.06801,-3.92704 0.06605,-7.85639 0.01386,-11.78377 -0.01619,-1.21928 -0.596604,-2.01454 -2.046346,-1.93467 -4.186684,0.23063 -8.377208,0.3916 -12.616688,0.58219 0,4.76627 0,9.80695 0,15.05186 1.8707,-0.14341 3.637473,-0.27884 5.526249,-0.42361 0,-2.4192 -10e-6,-4.68381 -10e-6,-6.94843 0,-3.4718 10e-6,-3.4718 3.651781,-3.72608 0,3.64762 0,7.28806 0,11.0699 0.891845,0 1.603095,0 2.606482,-0.001 m 35.723083,-0.0117 c 2.09899,0 4.19799,0 6.3524,0 0,-0.81536 0.0212,-1.42656 -0.004,-2.03587 -0.0956,-2.33694 -0.67406,-2.89259 -3.00905,-2.90504 -1.31019,-0.007 -2.62046,-0.001 -3.93069,-0.001 1.12446,-1.16228 2.26757,-2.15472 3.58896,-2.75413 2.71191,-1.23015 3.49076,-3.25503 3.06778,-6.03641 -0.15105,-0.9932 -0.52108,-1.49611 -1.54749,-1.51371 -1.2369,-0.0212 -2.47252,-0.13826 -3.70921,-0.14806 -2.9237,-0.0232 -5.84772,-0.007 -8.94843,-0.007 0,0.87757 0.0411,1.74554 -0.009,2.60816 -0.082,1.40187 0.5538,1.96714 1.93327,1.92394 1.67564,-0.0525 3.35418,-0.0124 5.03145,-0.0124 0.0408,0.14986 0.0816,0.29973 0.12235,0.44959 -0.37632,0.30132 -0.73975,0.62066 -1.13123,0.90079 -1.55212,1.1106 -3.0927,2.23922 -4.67752,3.30157 -1.12557,0.7545 -1.55432,1.72812 -1.28283,3.04657 0.093,0.4514 0.16041,0.91795 0.15818,1.37718 -0.007,1.33724 0.69764,1.81437 1.95602,1.79541 1.90912,-0.0288 3.8192,0.004 6.03913,0.0111 m -53.677348,-10e-4 c 1.739418,0 3.478834,0 5.258533,0 -0.05097,-0.82273 -0.09598,-1.43567 -0.125728,-2.04934 -0.115147,-2.37587 -0.631663,-2.87853 -3.000862,-2.89013 -1.314029,-0.006 -2.628111,-0.001 -3.940519,-0.001 0,-0.22036 -0.01905,-0.29537 0.0028,-0.31012 1.834446,-1.24331 3.677838,-2.47349 5.507246,-3.72413 1.078066,-0.73699 1.688201,-4.8639 0.80893,-5.79017 -0.274924,-0.28962 -0.810324,-0.41645 -1.241544,-0.45682 -1.128414,-0.10563 -2.264863,-0.15934 -3.398587,-0.16742 -2.97889,-0.0212 -5.958022,-0.007 -9.036975,-0.007 -0.03715,0.7603 -0.06343,1.52173 -0.11366,2.28159 -0.122508,1.85301 0.155472,2.19162 2.011997,2.22934 1.668111,0.0339 3.337441,0.007 5.006242,0.007 0.03718,0.14687 0.07438,0.29374 0.111557,0.44061 -1.485173,1.08697 -2.889634,2.31432 -4.475449,3.22627 -2.099635,1.20743 -3.18436,2.62969 -2.643404,5.22694 0.291314,1.39861 0.731277,2.00435 2.145538,1.97789 2.270506,-0.0425 4.542586,-5.3e-4 7.123978,0.007 M 183.8683,81.953509 c -0.1516,-0.25327 -0.44032,-0.51062 -0.43293,-0.75917 0.0548,-1.84433 0.16837,-3.68691 0.26711,-5.59987 1.4342,0.0675 2.71312,0.14879 3.99327,0.18276 1.62517,0.0431 2.32038,-0.63369 2.40969,-2.28478 0.0857,-1.58449 -0.62217,-2.43113 -2.2406,-2.51134 -1.37588,-0.0682 -2.75781,-0.0141 -4.11121,-0.0141 -0.25467,-3.93578 -0.0248,-4.17263 -4.95455,-3.68992 -0.0436,0.37787 -0.0868,0.77675 -0.13642,1.17485 -0.0575,0.46137 -0.0642,0.93912 -0.19733,1.37811 -0.12631,0.41652 -0.31294,0.86221 -0.60403,1.17196 -0.73668,0.7839 -0.94096,2.73873 -0.44319,3.67056 0.33934,0.63522 0.6297,1.38096 0.65135,2.08621 0.0745,2.42779 -0.008,4.85994 0.0268,7.2896 0.0247,1.70663 0.68694,2.33649 2.35237,2.33931 2.53355,0.004 5.06813,-0.0616 7.60034,-0.007 1.49513,0.0321 2.30432,-0.72569 2.75956,-2.01287 1.14088,-3.22592 -0.11327,-4.87202 -3.48435,-4.49574 -0.42007,0.0469 -1.04642,0.54043 -1.12622,0.92148 -0.26717,1.27547 -0.91316,1.64041 -2.32972,1.16021 z"
       id="path1"
       style="stroke-width:0.310269" />
    <path
       fill="#ee8c02"
       opacity="1"
       stroke="none"
       d="m 98.661646,59.611149 c -7.174074,0.11172 -14.352328,0.10638 -21.52129,0.3617 -11.704219,0.41686 -23.419524,0.82526 -34.927396,3.34397 -0.228553,0.05 -0.477629,0.006 -0.850562,0.006 3.741277,-4.84068 6.558169,-9.67944 1.51007,-15.34563 0.361106,-0.1684 0.668097,-0.26394 0.944861,-0.20852 7.630062,1.52777 15.253719,3.08759 22.885625,4.60598 5.682226,1.13048 11.379792,2.18396 17.060494,3.32186 4.367054,0.87476 8.726258,1.7934 13.06847,2.78246 0.652372,0.1486 1.828678,-0.20219 1.829728,1.13191 z"
       id="path2"
       style="stroke-width:0.310269" />
    <path
       fill="#eebf01"
       opacity="1"
       stroke="none"
       d="m 75.846433,24.828799 c 3.145411,-1.49941 6.150652,-3.20883 8.829381,-5.775184 0.725556,0.0737 1.226137,0.182274 1.728131,0.283894 6.073804,1.2295 12.147513,2.45945 18.221845,3.68637 9.13732,1.8456 18.2737,3.69598 27.41806,5.50595 0.34814,0.0689 0.77546,-0.26217 1.16588,-0.40686 1.49984,1.54084 2.95093,3.13317 4.51122,4.61015 2.20403,2.08635 5.02949,2.61654 7.91359,3.04746 2.89573,0.43267 5.61455,-0.27663 8.35784,-0.96465 0.52803,-0.13243 1.06587,-0.22571 1.69664,-0.0826 -1.73981,1.11393 -3.47961,2.22787 -5.36469,3.29123 -0.59719,-0.26806 -1.02774,-0.58876 -1.50428,-0.6875 -6.98313,-1.44689 -13.97067,-2.87305 -20.96475,-4.26596 -0.40811,-0.0813 -0.88118,0.16348 -1.32401,0.25651 -3.87934,-1.3568 -7.68673,-2.99479 -11.65352,-4.00989 -7.48941,-1.91655 -15.111893,-2.04556 -22.743707,-0.72522 -0.406879,0.0704 -0.820478,0.10188 -1.416259,0.0402 -0.672941,-0.36234 -1.13502,-0.7286 -1.652873,-0.84349 -1.737146,-0.38539 -3.50579,-0.6299 -5.24093,-1.02301 -2.668532,-0.60459 -5.319271,-1.28764 -7.977568,-1.9374 z"
       id="path3"
       style="stroke-width:0.310269" />
    <path
       fill="#ff9553"
       opacity="1"
       stroke="none"
       d="m -10.785298,65.230449 c 2.258709,-0.0328 4.371651,-0.0328 6.412428,-0.0328 0.130847,0.18262 0.236834,0.26233 0.243316,0.34945 0.244009,3.27981 0.519599,6.5583 0.679614,9.8424 0.03098,0.63581 -0.41166,1.28872 -0.604197,1.94305 -0.200099,0.68003 -0.471334,1.36398 -0.518036,2.05921 -0.103754,1.54456 -0.145965,3.09897 -0.101073,4.64611 0.04014,1.3834 -0.335918,2.13401 -1.912207,2.06118 -1.155609,-0.0534 -2.324731,0.18581 -3.415778,0.28787 -0.711087,-1.46674 0.473496,-3.17526 -1.065706,-4.40924 -0.08568,0.38036 -0.147879,0.62138 -0.193755,0.86547 -0.622218,3.31062 -0.752034,3.42344 -4.076608,3.45744 -2.737678,0.028 -5.475404,0.0673 -8.213126,0.069 -1.65308,10e-4 -2.200802,-0.58798 -2.20664,-2.25529 -5.29e-4,-0.15493 -0.02646,-0.31914 0.0146,-0.46332 0.268311,-0.94221 0.438333,-2.62088 0.851119,-2.68413 1.385444,-0.21228 2.866193,-0.75568 4.313343,0.59917 0.703304,0.65844 2.394362,0.29865 3.637748,0.29265 0.14114,-5.2e-4 0.436786,-0.72925 0.369199,-1.06086 -0.05585,-0.27406 -0.523387,-0.62055 -0.841926,-0.65913 -1.945375,-0.2357 -3.900394,-0.39154 -5.851992,-0.57619 -1.98232,-0.18755 -2.485711,-0.74172 -2.457654,-2.76692 0.01788,-1.29063 0.04034,-2.58314 0.127674,-3.87026 0.07574,-1.11626 0.616074,-1.81237 1.853413,-1.84075 3.302758,-0.0757 6.605,-0.26837 9.906861,-0.25614 2.262302,0.008 3.591462,2.43846 2.552503,4.40905 -0.586178,1.11182 -3.904075,1.21011 -4.853722,0.0404 -1.079309,-1.32947 -2.317822,-0.25677 -3.465049,-0.34109 -0.224461,-0.0165 -0.507187,0.75976 -0.77021,1.18189 3.047213,1.37809 6.569178,-0.31004 9.371846,2.51801 0.275113,-1.23827 0.731942,-2.34829 0.721552,-3.45392 -0.01888,-2.00882 0.389656,-4.01937 -0.743289,-6.02904 -0.547511,-0.97121 0.02474,-2.57367 0.235753,-3.92315 z"
       id="path4"
       style="stroke-width:0.310269" />
    <path
       fill="#ee9303"
       opacity="1"
       stroke="none"
       d="m 98.80558,59.633929 c -0.144984,-1.35687 -1.32129,-1.00608 -1.973662,-1.15468 -4.342212,-0.98907 -8.701416,-1.90771 -13.06847,-2.78247 -5.680702,-1.1379 -11.378268,-2.19137 -17.060494,-3.32186 -7.631906,-1.51838 -15.255563,-3.0782 -22.885625,-4.60597 -0.276764,-0.0554 -0.583755,0.0401 -0.987052,0.11018 -0.557186,-0.28735 -1.003974,-0.61958 -1.450763,-0.95182 0.07569,-0.14087 0.151389,-0.28174 0.227079,-0.42262 2.99956,-0.3744 6.123635,0.0642 9.134869,-1.08967 0.718161,0.37939 1.262525,0.76878 1.862833,0.8977 3.550605,0.7625 7.11422,1.46452 10.717107,2.25349 0.126367,0.0207 0.209084,-0.0252 0.28726,-0.063 -0.0046,0.008 -0.01458,0.0238 -0.01458,0.0238 1.344091,-0.2696 2.68819,-0.5392 4.215537,-0.71094 2.763428,0.71179 5.328743,1.40192 7.929735,1.90909 1.403241,0.2736 2.867506,0.23418 4.304247,0.33598 0.333584,0.0579 0.667154,0.1157 1.15747,0.30806 0.648266,0.38233 1.114885,0.7491 1.635482,0.85809 2.753524,0.57641 5.524108,1.07087 8.280551,1.63405 0.688485,0.14067 1.660863,-0.009 1.649274,1.16725 -2.802829,0.23919 -5.605645,0.47837 -8.408474,0.71756 2.31e-4,0.0518 2.65e-4,0.10367 5.3e-4,0.15551 5.793655,0.34095 11.595737,0.57883 17.378616,1.05152 5.91057,0.48313 11.81095,1.12444 17.69984,1.82965 5.82597,0.69767 11.50995,2.04845 16.99457,4.20048 -12.44771,-1.69649 -24.95356,-2.19168 -37.626041,-2.3494 z"
       id="path5"
       style="stroke-width:0.310269" />
    <path
       fill="#ff9553"
       opacity="1"
       stroke="none"
       d="m 105.20833,75.188369 c -0.0479,4.80292 -0.0723,9.45134 -0.1488,14.0989 -0.0519,3.1504 -0.86852,3.93335 -3.99352,3.8805 -2.580084,-0.0436 -5.160282,-0.12237 -7.738313,-0.2343 -2.006312,-0.0871 -3.058605,-1.2569 -3.037179,-3.26682 0.02923,-2.74144 2.49482,-4.20483 4.99087,-2.92728 0.260694,0.13342 0.491106,0.54659 0.527227,0.85443 0.08817,0.75136 0.236453,1.39624 1.182119,1.18265 0.88859,-0.2007 2.108099,0.016 2.202862,-1.41857 0.03974,-0.60164 0.0066,-1.20809 0.0066,-2.01749 -1.992828,0.14931 -3.823533,0.31903 -5.658083,0.41535 -2.120379,0.11133 -2.933115,-0.66698 -2.990389,-2.75427 -0.09773,-3.56097 -0.198226,-7.12186 -0.293151,-10.6829 -0.01336,-0.50202 -0.0019,-1.0047 -0.0019,-1.43515 0.229833,-0.11991 0.315913,-0.19788 0.409996,-0.20916 4.345538,-0.52097 4.853543,-0.10975 5.115115,4.23841 0.08991,1.49447 0.06309,2.99668 0.177795,4.48857 0.04931,0.64119 -0.09773,1.63705 1.081715,1.43292 0.968523,-0.16763 2.201772,-0.0663 2.277276,-1.55273 0.102127,-2.01032 0.18532,-4.02181 0.254291,-6.03356 0.06502,-1.89645 0.500859,-2.34718 2.390729,-2.42562 1.01826,-0.0423 2.03568,-0.10471 3.24596,-0.16813 0,1.52339 0,2.95138 -10e-4,4.53425 z"
       id="path6"
       style="stroke-width:0.310269" />
    <path
       fill="#eec902"
       opacity="1"
       stroke="none"
       d="m 133.16043,28.039379 c -0.34112,0.22828 -0.76844,0.55936 -1.11658,0.49045 -9.14436,-1.80997 -18.28074,-3.66035 -27.41806,-5.50595 -6.074332,-1.22692 -12.148041,-2.45687 -18.221845,-3.68637 -0.501994,-0.10162 -1.002575,-0.210193 -1.634315,-0.324465 1.16069,-1.83444 2.451899,-3.659951 3.967551,-5.527617 2.959677,0.53333 5.690018,1.134537 8.435618,1.655319 0.391607,0.07428 0.857115,-0.241102 1.288423,-0.376141 4.104228,3.97905 9.315708,5.367794 14.735468,6.024974 4.783,0.57997 9.00124,-1.18878 12.85041,-3.911173 1.06272,-0.751628 2.07929,-1.568538 3.11701,-2.35549 0.11635,0.07862 0.23273,0.157249 0.34908,0.235873 -0.19767,0.878172 -0.33395,1.775776 -0.6046,2.630847 -0.79279,2.504673 -0.81395,4.836763 1.12089,6.913063 1.08477,1.16407 2.05811,2.43197 3.13095,3.73668 z"
       id="path7"
       style="stroke-width:0.310269" />
    <path
       fill="#ff9452"
       opacity="1"
       stroke="none"
       d="m 145.6302,71.773799 c 1.2e-4,-2.20995 1.2e-4,-4.26481 1.2e-4,-6.42094 2.18204,-0.12086 4.16238,-0.23055 6.19085,-0.34291 0,3.42619 0,6.71231 0,10.35116 1.30117,-1.10928 2.49309,-2.09781 3.6539,-3.12163 1.66927,-1.4723 1.65931,-1.48299 3.18858,0.0671 0.32665,0.33112 0.66334,0.65264 0.98311,0.99021 1.15685,1.2213 1.1346,2.02727 -0.10548,3.13441 -0.8419,0.75164 -1.70453,1.48007 -2.6444,2.29377 1.01622,0.91015 1.92916,1.74083 2.85669,2.55489 0.93619,0.82166 0.95209,1.64543 0.0532,2.5004 -0.89475,0.85105 -1.78564,1.70616 -2.77054,2.64774 -1.80545,-1.52599 -3.5608,-3.00962 -5.72098,-4.83543 0,1.27372 -0.0193,2.10823 0.005,2.94149 0.0296,1.01419 -0.37566,1.51076 -1.45113,1.54007 -1.33152,0.0363 -2.65943,0.20392 -4.23902,0.33566 0,-4.91611 0,-9.69852 1e-4,-14.63602 z"
       id="path8"
       style="stroke-width:0.310269" />
    <path
       fill="#ff9452"
       opacity="1"
       stroke="none"
       d="m 167.515,76.710149 c 0.71825,-0.011 1.28687,-0.0274 1.8554,-0.0245 1.11771,0.006 1.4911,-0.52738 1.11373,-1.75157 -1.29482,0.12058 -2.49205,-0.53814 -4.03097,0.3609 -1.05092,0.61394 -2.88,0.0109 -4.32329,-0.25421 -0.30645,-0.0563 -0.72975,-1.08041 -0.61202,-1.53146 0.3122,-1.19617 0.83947,-2.54147 2.3064,-2.59101 3.51141,-0.11861 7.02982,-0.0993 10.54366,-0.037 1.2035,0.0213 1.84476,0.86551 1.87292,2.06556 0.0957,4.08145 0.16612,8.16351 0.24565,12.24533 0.002,0.10331 0.0411,0.24175 -0.01,0.30494 -1.04915,1.2988 -1.33323,2.59668 -0.032,3.91183 -0.33445,0.32875 -0.61831,0.84924 -1.01209,0.95318 -1.73165,0.45705 -3.59062,-1.37162 -3.3227,-3.17872 0.0364,-0.24524 0.0262,-0.4974 0.0421,-0.8458 -2.17251,0 -4.2832,0.0307 -6.39224,-0.0148 -0.87036,-0.0187 -1.76736,-0.0954 -2.59868,-0.33301 -1.26998,-0.36306 -1.99687,-1.19922 -1.84103,-2.64764 0.15462,-1.43705 0.20312,-2.88525 0.34098,-4.32446 0.13997,-1.46102 0.987,-2.22622 2.44792,-2.27279 1.08476,-0.0346 2.17099,-0.0228 3.40621,-0.0349 m -0.51259,3.91568 c 0.22281,0.45182 0.3842,1.23981 0.6797,1.29381 0.972,0.17758 1.99306,0.10399 2.99352,0.0718 0.0723,-0.002 0.21896,-0.46488 0.17661,-0.68354 -0.0912,-0.47092 -0.29584,-1.323 -0.43164,-1.31864 -1.12991,0.0361 -2.25474,0.2317 -3.41819,0.63657 z"
       id="path9"
       style="stroke-width:0.310269" />
    <path
       fill="#ff9452"
       opacity="1"
       stroke="none"
       d="m 213.71804,68.949119 c -0.10195,2.19738 -0.19961,4.24502 -0.3155,6.67474 2.02533,-1.71533 3.77348,-3.1959 5.50837,-4.66525 0.12929,0.0281 0.25493,0.0176 0.32156,0.0753 4.04902,3.50658 4.04771,3.50622 0.181,7.09961 -0.18466,0.17161 -0.33188,0.38348 -0.55996,0.651 0.97948,0.8925 1.91122,1.77457 2.87983,2.61411 0.84892,0.73581 0.79667,1.41586 0.0983,2.24675 -2.57384,3.06248 -2.55927,3.07481 -5.58274,0.52638 -0.89267,-0.75244 -1.78504,-1.50526 -2.67756,-2.2579 -0.15526,0.0426 -0.31055,0.0852 -0.46582,0.12782 0,0.94926 0.0724,1.90674 -0.034,2.84389 -0.0455,0.40075 -0.42069,1.04325 -0.72028,1.08888 -1.51681,0.23108 -3.05799,0.30207 -4.71094,0.43915 0,-7.0832 0,-14.02398 0,-21.07363 1.9957,-0.10436 3.97458,-0.20784 6.08204,-0.31804 0,1.32975 0,2.5536 -0.004,3.92718 z"
       id="path10"
       style="stroke-width:0.310269" />
    <path
       fill="#ff9553"
       opacity="1"
       stroke="none"
       d="m 37.234814,80.735309 c -0.875634,-0.0187 -1.612252,-0.12106 -2.316187,-0.0122 -0.391586,0.0606 -0.728715,0.4732 -1.090382,0.72718 0.322268,0.30072 0.65935,0.87002 0.964094,0.8532 1.026639,-0.0566 2.036852,-0.4352 3.062494,-0.47962 1.425514,-0.0618 2.865104,0.0123 4.284416,0.16266 0.271698,0.0288 0.629727,0.65756 0.687282,1.04796 0.252087,1.70998 -1.076471,3.21527 -2.815998,3.24224 -3.046936,0.0472 -6.094258,0.0838 -9.141507,0.0922 -1.901444,0.005 -2.619846,-0.70472 -2.669484,-2.59299 -0.08548,-3.25162 -0.171622,-6.50351 -0.214953,-9.75586 -0.02889,-2.16661 1.231524,-3.39937 3.343238,-3.34911 2.735498,0.0651 5.471273,0.12466 8.206009,0.21443 2.675245,0.0878 3.675306,1.16218 3.53962,3.78819 -0.06388,1.23612 -0.170852,2.47036 -0.276947,3.70386 -0.139595,1.62315 -0.965743,2.38183 -2.620198,2.39763 -0.929415,0.009 -1.859201,-0.0222 -2.941497,-0.0398 m -1.371145,-5.64555 c -0.70053,0.0505 -1.401059,0.10107 -2.044494,0.14748 -0.864267,2.02106 0.06858,2.84099 3.576167,2.22819 -0.09779,-0.98489 0.6752,-2.37636 -1.531673,-2.37567 z"
       id="path11"
       style="stroke-width:0.310269" />
    <path
       fill="#ff9553"
       opacity="1"
       stroke="none"
       d="m 206.57626,76.330469 c -0.30046,5.03865 -1.37387,4.4874 -4.93573,4.41847 -1.085,-0.021 -2.17626,-0.11556 -3.25147,-0.023 -0.36244,0.0312 -0.68404,0.53683 -1.02432,0.82562 0.31027,0.26466 0.63821,0.77182 0.92766,0.75074 1.07953,-0.0786 2.14286,-0.45563 3.219,-0.48653 1.42258,-0.0409 2.86827,0.0435 4.2657,0.29064 0.34428,0.0609 0.84582,1.03201 0.74524,1.46024 -0.26576,1.13164 -0.65339,2.54665 -2.05294,2.61219 -3.60949,0.16901 -7.23043,0.18508 -10.84415,0.11881 -1.15694,-0.0212 -1.84179,-0.96174 -1.85865,-2.12724 -0.0531,-3.66845 -0.0834,-7.3385 -0.0308,-11.00661 0.0214,-1.49139 1.27411,-2.49808 2.82838,-2.4726 2.89251,0.0474 5.7847,0.11379 8.67707,0.17007 2.537,0.0494 3.49061,1.06207 3.40448,3.62204 -0.0191,0.56815 -0.0414,1.13619 -0.0695,1.84715 m -9.45279,0.22709 c 0.30783,0.32254 0.57282,0.85312 0.93186,0.9271 0.93196,0.19202 1.90532,0.18323 3.00515,0.26524 -0.0535,-0.967 -0.0948,-1.71271 -0.1444,-2.60972 -0.94924,0 -1.76913,0.0547 -2.57846,-0.0145 -0.91371,-0.0781 -1.19322,0.38297 -1.21415,1.43189 z"
       id="path12"
       style="stroke-width:0.310269" />
    <path
       fill="#ff9452"
       opacity="1"
       stroke="none"
       d="m -2.92338,83.639669 c -0.06814,-3.49271 -0.147264,-6.85049 -0.15713,-10.20847 -0.0053,-1.8175 0.885819,-2.66661 2.66378996,-2.65517 3.10024504,0.0199 6.20052604,0.0507 9.30043764,0.0994 2.0111484,0.0316 2.9750514,0.97047 2.9738164,2.92838 -0.0021,3.25553 -0.02882,6.51126 -0.07556,9.76646 -0.02817,1.96405 -0.879817,2.77943 -2.8856969,2.79214 -2.9971231,0.019 -5.9944521,0.0217 -8.99162314,0.0112 -2.11271696,-0.007 -2.58877896,-0.46341 -2.82803396,-2.73392 m 5.682546,-3.12592 c 0.13988,1.68865 1.157201,2.16717 3.37193,1.55424 0,-2.22511 0,-4.46103 0,-6.81258 -1.138971,0 -2.182921,0 -3.374768,0 0,1.69962 0,3.3344 0.0028,5.25834 z"
       id="path13"
       style="stroke-width:0.310269" />
    <path
       fill="#ff9452"
       opacity="1"
       stroke="none"
       d="m 134.74792,75.372129 c -0.94562,0.0843 -1.77029,0.13457 -2.5924,0.10739 -1.106,-0.0366 -2.28949,-0.0832 -2.42662,-1.56272 -0.11849,-1.27859 1.32901,-2.98439 2.5556,-3.02269 1.91027,-0.0597 3.82321,-0.0353 5.73504,-0.0417 1.39508,-0.005 2.79277,-0.0545 4.18463,0.0125 1.5693,0.0755 2.35376,0.90975 2.38493,2.4556 0.0781,3.87295 0.12196,7.74659 0.20134,11.61951 0.0205,0.99657 -0.26179,1.50477 -1.40699,1.47051 -3.30482,-0.0989 -6.61285,-0.0864 -9.91909,-0.14669 -0.6145,-0.0112 -1.26082,-0.0599 -1.83271,-0.26112 -1.27838,-0.44976 -2.29024,-1.09045 -1.98986,-2.78897 0.23236,-1.31394 0.18532,-2.67503 0.3122,-4.01045 0.16485,-1.73479 0.92788,-2.42056 2.71413,-2.4618 1.65291,-0.0382 3.31158,0.0261 4.95691,-0.0979 0.46313,-0.0349 0.88828,-0.57382 1.33085,-0.88155 -0.42807,-0.308 -0.85273,-0.86654 -1.28493,-0.87241 -0.9316,-0.0127 -1.86707,0.25872 -2.92303,0.48239 m 3.75439,6.87403 c 0.21679,-0.7248 0.43359,-1.44959 0.68941,-2.30488 -1.51408,0 -2.62961,0 -3.76797,0 -0.39394,1.3704 -0.13904,2.18095 1.43425,2.13147 0.45792,-0.0144 0.92024,0.11076 1.64431,0.17341 z"
       id="path14"
       style="stroke-width:0.310269" />
    <path
       fill="#eeb203"
       opacity="1"
       stroke="none"
       d="m 75.734797,24.848059 c 2.769933,0.6305 5.420672,1.31355 8.089204,1.91814 1.73514,0.39311 3.503784,0.63762 5.24093,1.02301 0.517853,0.11489 0.979932,0.48115 1.51887,0.84178 -4.160957,1.48588 -8.387183,2.82178 -12.575744,4.26687 -1.052219,0.36302 -1.983605,1.07631 -3.182255,1.59805 -1.78001,-0.45809 -3.329371,-0.98247 -4.920461,-1.29298 -3.318854,-0.64768 -6.659748,-1.18235 -9.991587,-1.76345 -0.295945,-2.11892 -1.701441,-3.40973 -3.303003,-4.62482 -1.035428,-0.78558 -1.909712,-1.78355 -2.733659,-2.9257 7.22658,2.42041 14.388793,3.87101 21.857705,0.9591 z"
       id="path15"
       style="stroke-width:0.310269" />
    <path
       fill="#ff9553"
       opacity="1"
       stroke="none"
       d="m 47.838295,86.348529 c -0.559419,-0.008 -0.977927,0.0246 -1.383752,-0.0325 -1.972482,-0.27728 -2.557656,-0.93652 -2.581813,-2.92361 -0.03827,-3.14855 -0.07093,-6.29728 -0.08124,-9.44602 -0.0087,-2.65715 0.751544,-3.30198 3.44012,-3.20489 2.733299,0.0987 5.470935,0.07 8.20569,0.13725 2.741112,0.0674 3.680452,1.17474 3.349389,3.86265 -0.399378,3.24258 -0.401378,3.17962 -3.615989,3.28176 -1.254892,0.0399 -1.882203,-0.2622 -2.057508,-1.57814 -0.29546,-2.21782 -2.041856,-1.0116 -3.439359,-1.4664 0,2.20386 -0.03822,4.19165 0.04092,6.17476 0.01196,0.29956 0.581879,0.83079 0.874445,0.8179 0.901777,-0.0398 1.972741,-0.0406 2.647151,-0.52099 0.938355,-0.66841 4.80441,-1.15294 5.050559,-0.22317 0.309579,1.16935 0.28057,2.57243 -0.08719,3.71915 -0.198151,0.61784 -1.387401,1.24041 -2.166371,1.29079 -2.673966,0.17299 -5.364229,0.0942 -8.195053,0.11143 z"
       id="path16"
       style="stroke-width:0.310269" />
    <path
       fill="#ff9553"
       opacity="1"
       stroke="none"
       d="m 24.766314,86.382229 c -1.013296,0.002 -1.882453,0.002 -2.916786,0.002 0,-3.73431 0,-7.3307 0,-11.07348 -0.865928,0.0735 -1.561856,0.18934 -2.255715,0.17804 -1.000858,-0.0163 -1.331355,0.3949 -1.308725,1.39873 0.06059,2.68717 0.02212,5.37662 0.0173,8.06516 -5.29e-4,0.302 -0.03764,0.60393 -0.0657,1.02447 -1.792811,0.15258 -3.524043,0.29992 -5.396251,0.45926 0,-5.20092 0,-10.2809 0,-15.10403 4.101092,-0.16666 8.188772,-0.34962 12.277892,-0.49104 1.757569,-0.0608 2.371058,0.49002 2.366129,2.26079 -0.0108,3.87589 -0.100783,7.75163 -0.16849,11.62726 -0.02898,1.65912 -1.208442,1.67576 -2.54967,1.65253 z"
       id="path17"
       style="stroke-width:0.310269" />
    <path
       fill="#ff9553"
       opacity="1"
       stroke="none"
       d="m 86.529482,86.390029 c -0.857327,5.3e-4 -1.568577,5.3e-4 -2.460421,5.3e-4 0,-3.78185 0,-7.42229 0,-11.06991 -3.651771,0.25429 -3.651782,0.25429 -3.651782,3.72609 0,2.26461 1.1e-5,4.52923 1.1e-5,6.94842 -1.888776,0.14478 -3.65555,0.28021 -5.526247,0.42361 0,-5.24491 0,-10.28558 0,-15.05186 4.23948,-0.19059 8.430001,-0.35155 12.616686,-0.58219 1.449742,-0.0799 2.030153,0.7154 2.046345,1.93467 0.05218,3.92739 0.05413,7.85674 -0.01386,11.78377 -0.02715,1.56681 -0.574246,1.85316 -3.01072,1.88689 z"
       id="path18"
       style="stroke-width:0.310269" />
    <path
       fill="#ff9553"
       opacity="1"
       stroke="none"
       d="m 122.24349,86.377829 c -2.0648,-0.007 -3.97488,-0.0399 -5.884,-0.0111 -1.25837,0.019 -1.96248,-0.45817 -1.95601,-1.79541 0.002,-0.45923 -0.0652,-0.92578 -0.15819,-1.37719 -0.27148,-1.31844 0.15726,-2.29206 1.28284,-3.04657 1.58481,-1.06235 3.12539,-2.19097 4.67751,-3.30157 0.39148,-0.28013 0.75491,-0.59946 1.13123,-0.90078 -0.0408,-0.14986 -0.0816,-0.29973 -0.12235,-0.44959 -1.67727,0 -3.35581,-0.04 -5.03144,0.0124 -1.37948,0.0432 -2.0153,-0.52207 -1.93327,-1.92394 0.0505,-0.86262 0.009,-1.73059 0.009,-2.60816 3.10071,0 6.02472,-0.0157 8.94842,0.007 1.23669,0.01 2.47231,0.12686 3.70921,0.14806 1.02641,0.0176 1.39644,0.52051 1.54749,1.51371 0.42298,2.78138 -0.35587,4.80626 -3.06778,6.03641 -1.32139,0.59941 -2.4645,1.59185 -3.58896,2.75413 1.31023,0 2.6205,-0.006 3.93069,10e-4 2.33499,0.0124 2.91343,0.56809 3.00905,2.90503 0.0249,0.60931 0.004,1.22051 0.004,2.03587 -2.15441,0 -4.2534,0 -6.50753,-1e-5 z"
       id="path19"
       style="stroke-width:0.310269" />
    <path
       fill="#ff9452"
       opacity="1"
       stroke="none"
       d="m 68.566295,86.376329 c -2.426406,-0.007 -4.698486,-0.0487 -6.968992,-0.006 -1.414259,0.0265 -1.854224,-0.57927 -2.145538,-1.97788 -0.540957,-2.59726 0.543769,-4.01952 2.643404,-5.22694 1.585815,-0.91196 2.990276,-2.1393 4.475448,-3.22627 -0.03718,-0.14688 -0.07437,-0.29374 -0.111556,-0.44062 -1.668801,0 -3.338131,0.0267 -5.006242,-0.007 -1.856526,-0.0377 -2.134505,-0.37634 -2.011997,-2.22935 0.05023,-0.75986 0.07651,-1.52129 0.113659,-2.28158 3.078954,0 6.058085,-0.014 9.036976,0.007 1.133724,0.008 2.270173,0.0618 3.398586,0.16741 0.431221,0.0404 0.966621,0.1672 1.241544,0.45682 0.879272,0.92627 0.269137,5.05318 -0.808929,5.79018 -1.829408,1.25063 -3.6728,2.48081 -5.507246,3.72412 -0.02177,0.0148 -0.0028,0.0898 -0.0028,0.31012 1.312408,0 2.62649,-0.005 3.940519,10e-4 2.369198,0.0116 2.885715,0.51427 3.000862,2.89013 0.02976,0.61367 0.07476,1.22661 0.125727,2.04934 -1.779698,0 -3.519114,0 -5.413515,-2.6e-4 z"
       id="path20"
       style="stroke-width:0.310269" />
    <path
       fill="#ff9452"
       opacity="1"
       stroke="none"
       d="m 183.98569,81.993319 c 1.29889,0.43911 1.94488,0.0742 2.21205,-1.2013 0.0798,-0.38105 0.70616,-0.8746 1.12623,-0.92148 3.37108,-0.37628 4.62523,1.26982 3.48434,4.49573 -0.45523,1.28719 -1.26443,2.04496 -2.75955,2.01288 -2.53222,-0.0543 -5.06679,0.0116 -7.60035,0.007 -1.66543,-0.003 -2.32769,-0.63268 -2.35236,-2.33931 -0.0351,-2.42966 0.0477,-4.8618 -0.0268,-7.2896 -0.0217,-0.70525 -0.31202,-1.45099 -0.65135,-2.08621 -0.49777,-0.93183 -0.29349,-2.88666 0.44319,-3.67055 0.29108,-0.30976 0.47771,-0.75545 0.60402,-1.17196 0.13312,-0.439 0.13988,-0.91675 0.19733,-1.37812 0.0496,-0.3981 0.0928,-0.79698 0.13643,-1.17485 4.9297,-0.48271 4.69987,-0.24586 4.95455,3.68992 1.35339,0 2.73533,-0.0541 4.11121,0.0141 1.61842,0.0802 2.32626,0.92686 2.24059,2.51134 -0.0893,1.6511 -0.78452,2.3279 -2.40969,2.28478 -1.28015,-0.034 -2.55906,-0.11522 -3.99326,-0.18276 -0.0987,1.91297 -0.21235,3.75555 -0.26712,5.59988 -0.007,0.24854 0.28134,0.50589 0.55059,0.80025 z"
       id="path21"
       style="stroke-width:0.310269" />
    <path
       fill="#eeba03"
       opacity="1"
       stroke="none"
       d="m 126.60107,33.410339 c 0.37305,-0.17578 0.84612,-0.42054 1.25423,-0.33926 6.99408,1.39291 13.98162,2.81907 20.96475,4.26596 0.47654,0.0987 0.90709,0.41944 1.41989,0.75767 -0.74839,1.84488 -1.55764,3.56899 -2.56495,5.35896 -0.84624,-0.0803 -1.4904,-0.24801 -2.14322,-0.36892 -3.11482,-0.57692 -6.23197,-1.14113 -9.34831,-1.70986 -2.6001,-3.31612 -5.85318,-5.84415 -9.58239,-7.96455 z"
       id="path22"
       style="stroke-width:0.310269" />
    <path
       fill="#eea502"
       opacity="1"
       stroke="none"
       d="m 59.906734,31.582479 c 3.338859,0.4381 6.679753,0.97277 9.998607,1.62045 1.59109,0.31051 3.140451,0.83489 4.81502,1.31323 -1.314106,1.10197 -2.807637,2.06964 -4.132234,3.23015 -1.095737,0.96001 -1.991995,2.14769 -3.171859,3.25249 -1.384607,-0.2811 -2.583532,-0.54717 -3.761097,-0.88718 -1.681305,-0.48545 -3.34699,-1.02505 -5.019342,-1.54152 0.974821,-2.17933 1.523815,-4.43729 1.270905,-6.98762 z"
       id="path23"
       style="stroke-width:0.310269" />
    <path
       fill="#eeac03"
       opacity="1"
       stroke="none"
       d="m 136.20295,41.481839 c 3.09685,0.46178 6.214,1.02599 9.32882,1.60291 0.65282,0.12091 1.29698,0.28863 2.07032,0.45188 -0.57043,3.2124 -0.89976,6.42171 -0.38816,9.79996 -1.98541,-0.0755 -3.82663,-0.28231 -5.66785,-0.48911 -0.55086,-1.32662 -1.04253,-2.68176 -1.66528,-3.97372 -1.17973,-2.44747 -2.43465,-4.85869 -3.67785,-7.39192 z"
       id="path24"
       style="stroke-width:0.310269" />
    <path
       fill="#ee9905"
       opacity="1"
       stroke="none"
       d="m 80.088661,49.952389 c -1.481804,0.007 -2.946069,0.0464 -4.349311,-0.22722 -2.600991,-0.50716 -5.166307,-1.1973 -7.802475,-1.92621 8.020804,-2.39891 16.183012,-2.57845 24.436263,-1.00816 -2.045512,0.45522 -4.101142,0.86989 -6.133703,1.37701 -2.047176,0.51077 -4.071421,1.11341 -6.150774,1.78458 z"
       id="path25"
       style="stroke-width:0.310269" />
    <path
       fill="#ee9e05"
       opacity="1"
       stroke="none"
       d="m 141.56137,52.956519 c 1.82593,0.0978 3.66715,0.30456 5.64029,0.51163 0.55229,4.52514 3.45564,7.17347 7.48127,9.40392 -2.99856,0.18965 -5.6504,0.41654 -8.30531,0.46201 -0.40219,0.007 -0.98144,-0.76178 -1.20189,-1.28775 -1.24637,-2.97403 -2.40835,-5.98342 -3.61436,-9.08981 z"
       id="path26"
       style="stroke-width:0.310269" />
    <path
       fill="#ee9b02"
       opacity="1"
       stroke="none"
       d="m 58.554145,38.634099 c 1.754036,0.45247 3.419721,0.99207 5.101026,1.47752 1.177565,0.34001 2.37649,0.60608 3.683794,0.95334 -0.653405,1.5517 -1.424737,3.05522 -2.390217,4.58545 -1.989553,-0.37664 -3.798774,-0.72791 -5.57617,-1.19917 -1.536391,-0.40735 -3.036658,-0.95104 -4.552887,-1.43446 1.217589,-1.43956 2.435188,-2.87912 3.734454,-4.38268 z"
       id="path27"
       style="stroke-width:0.310269" />
    <path
       fill="#eed205"
       opacity="1"
       stroke="none"
       d="m 98.406379,14.685891 c -0.376465,0.213753 -0.841973,0.529134 -1.23358,0.454855 -2.7456,-0.520782 -5.475941,-1.121989 -8.339481,-1.703247 0.919577,-2.867582 1.967468,-5.729389 3.099858,-8.821978 1.532252,3.804195 3.481099,7.229911 6.473203,10.07037 z"
       id="path28"
       style="stroke-width:0.310269" />
    <path
       fill="#ee9905"
       opacity="1"
       stroke="none"
       d="m 92.910941,54.046079 c -0.132977,-1.19332 -1.105355,-1.04405 -1.793841,-1.18473 -2.756442,-0.56318 -5.527026,-1.05763 -8.28055,-1.63405 -0.520597,-0.10898 -0.987216,-0.47575 -1.515653,-0.81514 3.204041,0.036 6.453309,0.0595 9.683885,0.31715 4.160255,0.3318 8.264678,1.0162 12.054898,2.91364 -0.002,0.1402 -0.005,0.2804 -0.007,0.42061 -3.33226,0 -6.664528,0 -10.141357,-0.0175 z"
       id="path29"
       style="stroke-width:0.310269" />
    <path
       fill="#ee9500"
       opacity="1"
       stroke="none"
       d="m 54.723131,43.071269 c 1.612789,0.42893 3.113056,0.97262 4.649447,1.37997 1.777396,0.47126 3.586617,0.82253 5.504283,1.27432 -0.380995,0.89246 -0.884233,1.73649 -1.335125,2.69099 0.05234,0.11047 0.06236,0.0948 -0.01783,0.0194 -0.135514,-0.0291 -0.190833,0.0173 -0.246147,0.0637 -3.559236,-0.72236 -7.12285,-1.42438 -10.673456,-2.18688 -0.600307,-0.12891 -1.144672,-0.5183 -1.737688,-0.90975 1.23811,-0.84067 2.499035,-1.55894 3.856525,-2.33169 z"
       id="path30"
       style="stroke-width:0.310269" />
    <path
       fill="#fffffe"
       opacity="1"
       stroke="none"
       d="m 63.321402,48.566209 c 0.01167,-0.11299 0.06698,-0.15937 0.207049,-0.13841 0.0021,0.11322 -0.08068,0.15912 -0.207049,0.13841 z"
       id="path31"
       style="stroke-width:0.310269" />
    <path
       fill="#fff9f5"
       opacity="1"
       stroke="none"
       d="m 167.02096,80.497109 c 1.14489,-0.27614 2.26972,-0.4717 3.39964,-0.50785 0.1358,-0.004 0.34045,0.84772 0.43164,1.31865 0.0423,0.21866 -0.10435,0.68121 -0.17661,0.68353 -1.00047,0.0322 -2.02153,0.10579 -2.99353,-0.0718 -0.2955,-0.054 -0.45688,-0.84198 -0.66114,-1.42253 z"
       id="path32"
       style="stroke-width:0.310269" />
    <path
       fill="#fff9f5"
       opacity="1"
       stroke="none"
       d="m 35.98734,75.072089 c 2.083202,0.017 1.310212,1.40845 1.408002,2.39334 -3.507584,0.6128 -4.440434,-0.20713 -3.576167,-2.22819 0.643435,-0.0464 1.343964,-0.0969 2.168165,-0.16515 z"
       id="path33"
       style="stroke-width:0.310269" />
    <path
       fill="#fffcfa"
       opacity="1"
       stroke="none"
       d="m 197.12669,76.428049 c 0.0177,-0.91942 0.29722,-1.3805 1.21094,-1.30238 0.80932,0.0692 1.62922,0.0145 2.57845,0.0145 0.0496,0.89701 0.0909,1.64272 0.1444,2.60972 -1.09983,-0.082 -2.07319,-0.0732 -3.00515,-0.26524 -0.35904,-0.074 -0.62403,-0.60456 -0.92864,-1.05662 z"
       id="path34"
       style="stroke-width:0.310269" />
    <path
       fill="#fffefe"
       opacity="1"
       stroke="none"
       d="m 2.757746,80.369179 c -0.0016,-1.77936 -0.0016,-3.41415 -0.0016,-5.11376 1.191848,0 2.235795,0 3.374766,0 0,2.35155 0,4.58747 0,6.81258 -2.214729,0.61293 -3.232047,0.1344 -3.373348,-1.69882 z"
       id="path35"
       style="stroke-width:0.310269" />
    <path
       fill="#fff9f5"
       opacity="1"
       stroke="none"
       d="m 138.37041,82.245429 c -0.59217,-0.0619 -1.05449,-0.18707 -1.51241,-0.17268 -1.57329,0.0495 -1.82819,-0.76108 -1.43425,-2.13147 1.13836,0 2.25389,0 3.76797,0 -0.25582,0.85529 -0.47262,1.58008 -0.82131,2.30415 z"
       id="path36"
       style="stroke-width:0.310269" />
  </g>
</svg>
