<?xml version="1.0" encoding="UTF-8" standalone="no"?>
<!-- Created with Inkscape (http://www.inkscape.org/) -->

<svg
   width="99.085938mm"
   height="49.190208mm"
   viewBox="0 0 99.085937 49.190208"
   version="1.1"
   id="svg1"
   inkscape:export-filename="test1.svg"
   inkscape:export-xdpi="96"
   inkscape:export-ydpi="96"
   sodipodi:docname="big-logo.svg"
   inkscape:version="1.3.2 (091e20e, 2023-11-25, custom)"
   xmlns:inkscape="http://www.inkscape.org/namespaces/inkscape"
   xmlns:sodipodi="http://sodipodi.sourceforge.net/DTD/sodipodi-0.dtd"
   xmlns="http://www.w3.org/2000/svg"
   xmlns:svg="http://www.w3.org/2000/svg">
  <sodipodi:namedview
     id="namedview1"
     pagecolor="#ffffff"
     bordercolor="#000000"
     borderopacity="0.25"
     inkscape:showpageshadow="2"
     inkscape:pageopacity="0.0"
     inkscape:pagecheckerboard="0"
     inkscape:deskcolor="#d1d1d1"
     inkscape:document-units="mm"
     inkscape:export-bgcolor="#ffffffff"
     inkscape:zoom="0.70710678"
     inkscape:cx="429.21382"
     inkscape:cy="-168.99852"
     inkscape:window-width="2560"
     inkscape:window-height="1369"
     inkscape:window-x="-8"
     inkscape:window-y="-8"
     inkscape:window-maximized="1"
     inkscape:current-layer="layer1" />
  <defs
     id="defs1" />
  <g
     inkscape:label="Warstwa 1"
     inkscape:groupmode="layer"
     id="layer1"
     transform="translate(0.04534325,-4.9180753)">
    <g
       id="g36"
       transform="matrix(0.26870622,0,0,0.25965002,-64.277657,1.3999834)">
      <path
         fill="#ee8c02"
         opacity="1"
         stroke="none"
         d="m 424.54951,190.80023 c -23.19139,0.36008 -46.39627,0.34285 -69.57113,1.16576 -37.83583,1.34352 -75.70749,2.65979 -112.90859,10.7776 -0.73884,0.16123 -1.54402,0.0202 -2.74958,0.0202 12.09429,-15.6015 20.95419,-31.61876 4.63538,-49.88088 -0.73658,-0.32383 2.4059,-0.42873 3.30059,-0.25013 24.66543,4.92401 52.5103,4.3468 77.1817,9.24056 18.36873,3.64356 33.58693,12.6434 51.95074,16.31085 14.11722,2.81935 28.20907,5.78013 42.24598,8.96789 2.10891,0.47893 5.91151,-0.65167 5.91491,3.64812 z"
         id="path2"
         style="stroke-width:1.0015"
         sodipodi:nodetypes="ssscccsssss" />
      <path
         fill="#eebf01"
         opacity="1"
         stroke="none"
         d="m 349.91989,78.848004 c 10.13766,-4.832604 20.36588,-10.493336 28.99942,-18.764676 2.33847,0.237538 19.44357,0.722581 21.0615,1.050084 19.57586,3.962681 23.65969,7.791698 43.23727,11.746074 29.44955,5.948364 58.89609,11.91214 88.36835,17.745667 1.12207,0.222084 2.49932,-0.844971 3.75763,-1.31131 4.83398,4.966125 9.51086,10.098221 14.53967,14.858517 7.10357,6.72429 16.21002,8.4331 25.50549,9.82197 9.33295,1.39449 18.0957,-0.89159 26.93732,-3.10909 1.70184,-0.42681 3.4353,-0.72745 5.46826,-0.26627 -5.60742,3.59021 -11.51939,7.42811 -17.59501,10.85531 -1.92475,-0.86394 -3.5001,-1.50838 -5.03599,-1.82661 -22.50665,-4.66335 -44.53514,-9.89672 -67.07707,-14.38607 -1.31531,-0.26197 -2.4919,0.49873 -3.91914,0.79857 -9.63106,-8.606119 -24.07935,-13.126314 -37.04583,-15.252155 -24.5591,-4.02644 -26.01245,-3.47064 -52.19437,-4.502755 -1.51967,-0.05991 -21.5375,2.684791 -26.53475,4.651436 -2.16889,-1.167824 -4.11973,-1.392955 -5.78877,-1.76324 -5.59882,-1.242119 -11.14531,-2.38044 -16.73766,-3.647454 -8.60068,-1.948585 -17.37863,-4.603829 -25.94632,-6.697998 z"
         id="path3"
         inkscape:label="path3"
         sodipodi:nodetypes="cccsscsssccsscsscssc" />
      <path
         fill="#ee9303"
         opacity="1"
         stroke="none"
         d="m 424.45953,190.79402 c -0.46728,-4.37319 -4.25851,-3.16298 -6.36111,-3.64191 -13.99494,-3.18776 -28.04465,-6.14854 -42.11966,-8.96789 -18.3089,-3.66745 -36.67215,-7.06279 -54.98596,-10.70635 -24.59763,-4.89376 -49.16867,-9.92105 -73.76035,-14.84506 -0.89201,-0.1786 -1.91606,0.0736 -3.21589,0.29941 -1.79581,-0.92614 -3.20119,-1.94119 -4.64119,-3.01199 -0.49454,-0.51773 -0.48134,-0.51002 0.33956,-0.6297 9.66758,-1.2067 20.12879,-0.52539 29.83399,-4.24442 2.31464,1.22278 4.06912,2.47778 6.00391,2.89328 11.4436,2.45754 22.92913,4.72014 34.54123,7.26299 0.40728,0.0667 0.67388,-0.0812 0.92584,-0.20295 -0.0147,0.0261 -0.047,0.0767 -0.047,0.0767 4.332,-0.86892 8.66403,-1.73783 13.58667,-2.29137 8.90652,2.2941 17.78376,3.88793 26.16676,5.52253 4.52264,0.88183 8.63274,1.38523 13.26335,1.71334 1.07514,0.18646 2.15024,0.37292 3.73053,0.9929 2.08936,1.23224 4.11546,1.87393 5.79334,2.22519 8.87461,1.85779 17.45607,3.18121 26.34008,4.99634 2.21899,0.45338 5.66302,0.83361 5.62567,4.62332 -9.03351,0.77091 -18.55111,1.49114 -27.58462,2.26204 7.4e-4,0.16707 0.001,0.33414 0.002,0.50121 18.67295,1.09887 37.37305,1.86558 56.01126,3.38905 19.04978,1.55711 38.06668,3.62408 57.04657,5.89696 18.77707,2.24858 37.09653,6.60214 54.77347,13.53814 -40.11896,-5.46778 -80.42144,-7.13544 -121.26483,-7.64377 z"
         id="path5"
         inkscape:label="path5"
         sodipodi:nodetypes="cssssccccsccccccccscccssccc" />
      <path
         fill="#eec902"
         opacity="1"
         stroke="none"
         d="m 535.40463,89.387534 c -1.09943,0.735748 -3.18846,2.03289 -4.31053,1.810806 -29.47226,-5.833527 -58.42647,-12.37049 -87.87602,-18.318854 -19.57758,-3.954376 -39.15314,-7.918495 -58.729,-11.881176 -1.61793,-0.327503 -3.61751,-0.446645 -5.65361,-0.814943 3.7409,-5.912399 9.33307,-13.332801 14.21801,-19.352287 9.53904,1.718922 17.16399,2.733418 26.01305,4.411897 1.26215,0.239402 2.89303,1.452107 4.28314,1.016876 13.22791,12.824475 30.02451,17.300381 47.4924,19.418484 15.41562,1.869248 29.01096,-3.831444 41.41684,-12.605705 3.42517,-2.422497 6.70154,-5.055397 10.04614,-7.591744 0.375,0.253407 0.75006,0.506813 1.12506,0.76022 -0.63708,2.830345 -1.07629,5.723324 -1.9486,8.479217 -2.55518,8.072548 -2.62336,15.588879 3.61261,22.280789 3.49621,3.751793 6.85275,8.181349 10.31051,12.38642 z"
         id="path7"
         sodipodi:nodetypes="ccssccscssccssc" />
      <path
         fill="#eeb203"
         opacity="1"
         stroke="none"
         d="m 350.10242,78.758804 c 8.92749,2.032112 17.47082,4.233582 26.0715,6.182167 5.59235,1.267014 11.29269,2.055054 16.89151,3.297173 1.66904,0.370285 3.64788,1.53947 5.38488,2.701778 -13.41076,4.788993 -27.52145,9.105858 -41.02117,13.763398 -3.3913,1.17002 -6.80656,3.60403 -10.66981,5.2856 -5.73697,-1.47642 -10.31716,-3.30159 -15.44524,-4.30237 -10.69666,-2.08747 -21.48612,-3.20274 -32.22464,-5.07563 -0.95383,-6.829287 -5.46198,-11.597515 -10.62381,-15.51376 -3.33719,-2.531921 -6.155,-5.748382 -8.81058,-9.429535 23.29126,7.801003 46.37506,12.476281 70.44736,3.091179 z"
         id="path15"
         sodipodi:nodetypes="csscscccscc" />
      <path
         fill="#eeba03"
         opacity="1"
         stroke="none"
         d="m 514.05008,105.9908 c -1.43583,-1.24771 2.75211,-1.46883 4.06742,-1.20686 22.54193,4.48935 45.03198,9.56351 67.53863,14.22686 1.53589,0.31823 2.92352,1.35185 4.57629,2.44197 -2.41205,5.94603 -5.27048,11.80682 -8.51706,17.5759 -2.72742,-0.25878 -4.55331,-1.10332 -6.65738,-1.49301 -10.03906,-1.85942 -20.00761,-3.33022 -30.05155,-5.16323 -8.38013,-10.68785 -18.93712,-19.5476 -30.95635,-26.38163 z"
         id="path22"
         sodipodi:nodetypes="ccsccccc" />
      <path
         fill="#eea502"
         opacity="1"
         stroke="none"
         d="m 299.08859,100.46384 c 10.76114,1.41201 21.52884,3.13524 32.2255,5.22271 5.12808,1.00078 10.12167,2.69085 15.5188,4.23255 -4.23536,3.55163 -9.04901,6.67046 -13.31818,10.41078 -3.53156,3.09408 -6.71252,7.17675 -10.51522,10.73749 -4.46259,-0.90597 -9.83448,0.0834 -13.62977,-1.01242 -5.41885,-1.5646 -18.47613,-2.47582 -14.45034,-7.10187 3.14185,-7.02397 4.98434,-14.26953 4.16921,-22.48924 z"
         id="path23"
         sodipodi:nodetypes="cccscscc" />
      <path
         fill="#eeac03"
         opacity="1"
         stroke="none"
         d="m 544.99121,132.36948 c 9.98114,1.48831 20.04947,3.05907 30.08853,4.91849 2.10407,0.38969 4.18018,0.93025 6.67267,1.4564 -1.8385,10.35355 -2.92172,21.69317 -1.2728,32.58129 -6.39898,-0.24339 -12.17939,-1.06913 -18.11365,-1.73563 -1.77539,-4.27569 -3.51391,-9.23243 -5.52105,-13.3964 -3.80225,-7.8882 -7.84686,-15.65956 -11.8537,-23.82415 z"
         id="path24"
         sodipodi:nodetypes="cscccsc" />
      <path
         fill="#ee9905"
         opacity="1"
         stroke="none"
         d="m 364.02069,160.0303 c -4.77585,0.0225 -9.38095,-0.21074 -13.90359,-1.09257 -8.383,-1.6346 -17.07795,-3.79123 -25.57431,-6.14052 25.85104,-7.73166 52.58477,-8.37801 79.18499,-3.31696 -6.59268,1.46717 -13.21798,2.80365 -19.76892,4.4381 -6.59805,1.64622 -13.23642,3.9488 -19.93817,6.11195 z"
         id="path25"
         sodipodi:nodetypes="ccccsc" />
      <path
         fill="#ee9e05"
         opacity="1"
         stroke="none"
         d="m 562.26141,169.35236 c 5.88495,0.31506 11.81922,0.98158 18.17865,1.64897 1.78003,14.58452 11.32214,24.55308 24.29674,31.7418 -9.66436,0.61124 -18.39586,-0.0905 -26.95262,0.0561 -1.29626,0.0222 -3.16321,-2.4552 -3.87372,-4.15042 -4.01703,-9.58529 -7.76208,-19.28454 -11.64905,-29.29644 z"
         id="path26"
         sodipodi:nodetypes="cccscc" />
      <path
         fill="#ee9b02"
         opacity="1"
         stroke="none"
         d="m 294.72919,123.19121 c 5.65326,1.4583 11.02176,3.19745 16.44061,4.76205 3.79529,1.09584 7.65942,1.95339 11.87286,3.07262 -2.10592,5.00111 -5.02708,10.65756 -8.13883,15.58949 -6.41232,-1.21391 -11.84636,-3.0891 -17.57491,-4.60797 -4.95178,-1.3129 -10.1407,-2.86254 -15.02751,-4.42061 3.92429,-4.6397 8.24025,-9.5496 12.42778,-14.39558 z"
         id="path27"
         sodipodi:nodetypes="csccscc" />
      <path
         fill="#eed205"
         opacity="1"
         stroke="none"
         d="m 423.44489,46.310136 c -1.21335,0.688927 -3.00742,1.874274 -4.26957,1.634872 -8.84906,-1.678479 -17.93724,-3.920147 -27.16643,-5.793541 2.9638,-9.242214 6.6512,-18.634694 10.30089,-28.602106 4.93845,12.260919 11.49156,23.605978 21.13511,32.760775 z"
         id="path28"
         sodipodi:nodetypes="csccc" />
      <path
         fill="#ee9905"
         opacity="1"
         stroke="none"
         d="m 405.46112,172.86401 c -0.42859,-3.84607 -3.75838,-3.29744 -5.97737,-3.75082 -8.88401,-1.81513 -17.61778,-3.4763 -26.49239,-5.33409 -1.67788,-0.35126 -3.3341,-1.47707 -5.03725,-2.57091 10.32662,0.11604 20.95132,0.13545 31.36346,0.96588 13.4085,1.06937 26.63705,3.27522 38.85293,9.39066 -0.008,0.45187 -0.0159,0.90373 -0.0238,1.3556 -10.73987,0 -21.47977,0 -32.68558,-0.0563 z"
         id="path29"
         sodipodi:nodetypes="ssscsccss" />
      <path
         fill="#ee9500"
         opacity="1"
         stroke="none"
         d="m 282.38184,137.49222 c 5.19802,1.38244 10.03338,3.13473 14.98516,4.44763 5.72855,1.51887 11.55967,2.651 17.7403,4.10712 -1.22794,2.8764 -2.84988,5.59671 -4.3031,8.67306 0.1687,0.35607 0.66639,0.57223 0.4079,0.32909 0.69466,0.89705 -0.97166,0.0818 -1.14994,0.23129 -11.47141,-2.32817 -23.43519,-3.65321 -34.63988,-7.09334 -3.60447,-1.10667 -4.18082,-1.81743 -6.09211,-3.07906 3.99042,-2.70947 8.67648,-5.12522 13.05167,-7.6158 z"
         id="path30"
         inkscape:label="path30"
         sodipodi:nodetypes="ssccccscss" />
    </g>
  </g>
</svg>
