<?xml version="1.0" encoding="UTF-8" standalone="no"?>
<svg
   version="1.1"
   id="Layer_1"
   x="0px"
   y="0px"
   width="997.94543"
   viewBox="0 0 997.94543 369.39227"
   enable-background="new 0 0 851 315"
   xml:space="preserve"
   sodipodi:docname="logo1.svg"
   height="369.39227"
   inkscape:export-filename="teest.svg"
   inkscape:export-xdpi="96"
   inkscape:export-ydpi="96"
   xmlns:inkscape="http://www.inkscape.org/namespaces/inkscape"
   xmlns:sodipodi="http://sodipodi.sourceforge.net/DTD/sodipodi-0.dtd"
   xmlns="http://www.w3.org/2000/svg"
   xmlns:svg="http://www.w3.org/2000/svg"><defs
   id="defs36" /><sodipodi:namedview
   id="namedview36"
   pagecolor="#ffffff"
   bordercolor="#000000"
   borderopacity="0.25"
   inkscape:showpageshadow="2"
   inkscape:pageopacity="0.0"
   inkscape:pagecheckerboard="0"
   inkscape:deskcolor="#d1d1d1"
   inkscape:zoom="0.90509668"
   inkscape:cx="323.1699"
   inkscape:cy="211.57961"
   inkscape:window-width="2560"
   inkscape:window-height="1369"
   inkscape:window-x="-8"
   inkscape:window-y="-8"
   inkscape:window-maximized="1"
   inkscape:current-layer="Layer_1" />
<path
   fill="#fffffe"
   opacity="1"
   stroke="none"
   d="m 628.55328,369.39228 c -209.90863,0 -419.23088,0 -628.55320484809,0 C 3.755191e-5,246.26157 3.755191e-5,123.13089 5.19104e-8,1.1837842e-4 332.64836,5.8578424e-5 665.29676,5.8578424e-5 997.94519,-2.1575928e-8 997.94534,123.13053 997.94534,246.26113 997.94548,369.392 c -122.93517,2.8e-4 -245.87056,2.8e-4 -369.3922,2.8e-4 M 369.35093,169.70776 c 2.91529,-5.68257 5.83056,-11.36517 9.33015,-17.54791 3.72147,-4.1076 7.1089,-8.5965 11.25027,-12.22485 5.00635,-4.38618 10.65119,-8.04355 16.81668,-12.16944 3.73006,-2.0875 7.25026,-4.78337 11.22715,-6.15542 15.83078,-5.46178 31.80392,-10.51085 48.7372,-15.69981 1.55141,-0.18746 3.11462,-0.30646 4.65243,-0.57251 28.84465,-4.99027 57.65404,-4.50264 85.96047,2.74099 14.99258,3.8366 29.3827,10.02745 44.57228,15.78106 13.83089,7.7013 26.126,17.25607 36.10053,30.59789 4.62499,9.17017 9.368,18.28344 13.8268,27.53373 2.35372,4.88298 4.21201,10.00479 6.40963,15.84304 4.50031,11.32856 8.89203,22.70262 13.6027,33.94304 0.8332,1.98794 3.02252,4.89313 4.54261,4.86709 10.03429,-0.17184 20.057,-1.0294 31.39014,-1.74618 -15.21498,-8.43003 -26.18826,-18.43949 -27.6843,-36.53574 -2.47862,-12.27207 -1.23388,-24.40174 1.94617,-37.10552 3.05859,-6.51635 6.11717,-13.03268 9.8137,-20.0795 6.57569,-4.21016 13.15129,-8.42031 19.72697,-12.63045 -2.384,-0.54082 -4.41679,-0.18826 -6.41249,0.31225 -10.36834,2.6004 -20.64419,5.28123 -31.5887,3.64594 -10.90055,-1.62869 -21.57945,-3.63256 -29.90962,-11.51796 -5.89716,-5.58228 -11.38162,-11.60056 -17.42292,-18.05606 -3.86852,-4.615251 -7.5473,-9.407332 -11.64722,-13.806962 -7.31276,-7.84743 -7.23281,-16.661636 -4.23641,-26.128104 1.02293,-3.231765 1.53798,-6.624286 2.28507,-9.943358 -0.43975,-0.297164 -0.87958,-0.594327 -1.31933,-0.891491 -3.92212,2.974309 -7.76424,6.061842 -11.78085,8.902642 -14.54805,10.289348 -30.49095,16.974402 -48.56845,14.782383 -20.48414,-2.483844 -40.18108,-7.732623 -56.10763,-23.366559 -11.1015,-10.43809 -18.46722,-23.385678 -24.25841,-37.76374 -4.2799,11.688526 -8.24043,22.504806 -12.92764,33.68338 -4.88016,6.899571 -9.76032,13.799141 -15.34963,21.005386 -9.27646,9.579998 -20.63485,16.040816 -33.36693,21.85344 -27.80698,10.932883 -54.87676,5.450307 -82.18982,-3.697727 3.11413,4.316793 6.41851,8.088653 10.33194,11.057771 6.05315,4.592479 11.36526,9.471119 12.43075,18.560579 0.98239,9.09857 -1.09255,17.63259 -5.39435,26.35323 -4.6019,5.44085 -9.20385,10.88171 -14.53571,16.73444 -4.76567,2.71472 -9.53137,5.42945 -15.24305,8.23527 -10.82182,4.77827 -22.62935,3.12044 -33.96627,4.53551 -0.28607,0.53244 -0.57218,1.06487 -0.85825,1.59731 1.68865,1.2557 3.3773,2.51137 5.3849,4.51036 19.33719,20.87423 8.69067,39.16247 -5.44959,57.45795 1.40951,0 2.3509,0.16534 3.21472,-0.0237 43.49432,-9.51955 87.77264,-11.0631 132.00906,-12.63861 27.09529,-0.96501 54.2257,-0.9448 82.42827,-1.19494 47.35202,0.51006 94.61821,2.38166 141.66468,8.79358 -20.72929,-8.13366 -42.21205,-13.23897 -64.23143,-15.87582 -22.25723,-2.66535 -44.55786,-5.08923 -66.89704,-6.91522 -21.85655,-1.78653 -43.78567,-2.68563 -65.68295,-3.97425 -8.9e-4,-0.19592 -0.001,-0.39183 -0.002,-0.58775 10.59337,-0.90402 21.18669,-1.80802 32.87285,-2.57996 12.59437,0 25.18877,0 37.78313,0 0.009,-0.52989 0.0187,-1.05978 0.0279,-1.58967 -14.32524,-7.17142 -29.83802,-9.75816 -45.56182,-11.01219 -12.21005,-0.97382 -24.49075,-1.06259 -37.64578,-1.86932 -1.26079,-0.21868 -2.52153,-0.43734 -3.44169,-1.4782 7.68866,-2.12557 15.33935,-4.40327 23.07671,-6.33375 7.68212,-1.91667 15.45143,-3.48393 23.1825,-5.20444 -31.19339,-5.93496 -62.04268,-5.25636 -93.53114,3.50525 -5.08002,1.01895 -10.16008,2.0379 -15.6358,2.22177 1.90202,-3.19002 3.80402,-6.38006 6.24947,-10.13814 M 81.827326,243.93614 c -0.246601,4.9763 -2.409453,11.03286 -0.340122,14.70356 4.281998,7.59562 2.737915,15.19455 2.809284,22.78691 0.03926,4.17878 -1.687329,8.37413 -2.727126,13.05421 -10.592762,-10.68871 -23.904127,-4.30835 -35.421151,-9.51691 0.994101,-1.59544 2.062675,-4.52933 2.911027,-4.46696 4.335979,0.31866 9.016973,-3.73561 13.09625,1.28915 3.589216,4.42111 16.129301,4.04959 18.344777,-0.15253 3.926775,-7.44793 -1.096823,-16.63248 -9.647255,-16.66413 -12.479475,-0.0462 -24.960391,0.68182 -37.443256,0.96808 -4.676554,0.1073 -6.71878,2.73824 -7.005027,6.95716 -0.330066,4.86472 -0.414967,9.7498 -0.482544,14.62775 -0.106045,7.65429 1.796537,9.74879 9.288769,10.45766 7.376118,0.69788 14.765167,1.2869 22.117767,2.17771 1.203926,0.14584 2.970976,1.4554 3.182084,2.49122 0.255445,1.25334 -0.861957,4.00699 -1.3954,4.00956 -4.699411,0.0226 -11.090812,1.3825 -13.748967,-1.1061 -5.469546,-5.12068 -11.066079,-3.0669 -16.302399,-2.26459 -1.560138,0.23906 -2.202741,6.58366 -3.216831,10.14477 -0.155184,0.54491 -0.05723,1.16556 -0.05517,1.75111 0.02207,6.30165 2.092197,8.52761 8.340058,8.52393 10.347298,-0.006 20.694608,-0.15482 31.041735,-0.26064 12.565321,-0.12851 13.055963,-0.55488 15.407654,-13.06747 0.173389,-0.92255 0.408493,-1.83349 0.732304,-3.27106 5.817455,4.66386 1.340292,11.12126 4.027864,16.66484 4.12364,-0.38575 8.542371,-1.28978 12.910026,-1.08801 5.957623,0.27524 7.378963,-2.56171 7.227233,-7.79029 -0.16966,-5.84745 -0.0101,-11.72241 0.38201,-17.56012 0.17651,-2.62763 1.20166,-5.21265 1.95794,-7.78284 0.72769,-2.47305 2.40066,-4.94073 2.28358,-7.34379 -0.60479,-12.41235 -1.64638,-24.80352 -2.56863,-37.19963 -0.0245,-0.32926 -0.42508,-0.63053 -0.91962,-1.32077 -7.713164,0 -15.699089,0 -24.786857,0.24822 m 438.956877,36.9268 c 0,-5.39715 0,-10.7943 0,-16.55197 -4.57431,0.23969 -8.41964,0.47567 -12.2682,0.63543 -7.14282,0.29646 -8.79008,2.00002 -9.03583,9.16772 -0.26067,7.60346 -0.5751,15.20592 -0.9611,22.80401 -0.28537,5.61805 -4.94646,5.23499 -8.60702,5.86856 -4.45776,0.77154 -3.902,-2.99234 -4.08837,-5.41574 -0.43352,-5.63866 -0.33215,-11.31631 -0.67198,-16.96467 -0.98862,-16.43401 -2.90864,-17.98821 -19.33272,-16.0192 -0.35559,0.0427 -0.68093,0.33731 -1.54959,0.79052 0,1.6269 -0.0435,3.52681 0.007,5.42421 0.35877,13.45903 0.73861,26.91753 1.10796,40.37631 0.21648,7.88897 3.28824,10.83061 11.30227,10.40982 6.93373,-0.36403 13.85293,-1.00551 21.38487,-1.56981 0,3.05913 0.1252,5.35123 -0.025,7.62515 -0.35816,5.42189 -4.96733,4.60298 -8.32578,5.36152 -3.57417,0.80728 -4.1346,-1.63007 -4.46785,-4.46986 -0.13652,-1.16348 -1.00738,-2.72508 -1.99267,-3.22935 -9.43389,-4.82852 -18.75269,0.70239 -18.86313,11.06374 -0.081,7.59654 3.89619,12.0178 11.4791,12.34704 9.74373,0.42304 19.49567,0.72065 29.24717,0.88556 11.81102,0.19975 14.89749,-2.75944 15.0936,-14.66648 0.28927,-17.56556 0.38145,-35.13439 0.56726,-53.87251 m 152.77044,-11.73399 c 0,18.07528 0,36.15054 0,54.73113 5.97008,-0.49794 10.98895,-1.13144 16.02148,-1.26866 4.06478,-0.11082 5.59633,-1.98758 5.4846,-5.82074 -0.0917,-3.14931 -0.0188,-6.30337 -0.0188,-11.11743 8.16449,6.9007 14.79886,12.50811 21.62261,18.27565 3.72245,-3.55875 7.08959,-6.79065 10.47134,-10.00723 3.3972,-3.23138 3.33708,-6.34483 -0.20127,-9.45033 -3.50564,-3.07677 -6.9561,-6.21635 -10.79693,-9.65628 3.55225,-3.07538 6.8126,-5.8285 9.99458,-8.66936 4.68691,-4.18446 4.771,-7.23064 0.39867,-11.84658 -1.2086,-1.27586 -2.48113,-2.49105 -3.71571,-3.74253 -5.77991,-5.85871 -5.74227,-5.8183 -12.05133,-0.25371 -4.3873,3.86955 -8.89218,7.60574 -13.80998,11.79827 0,-13.75312 0,-26.17311 0,-39.12249 -7.66669,0.42466 -15.15144,0.83923 -23.39852,1.29605 0,8.14915 0,15.91556 -7.9e-4,24.85424 m 82.14896,18.08333 c -4.103,0.0334 -8.20843,-0.0117 -12.30829,0.11936 -5.52159,0.17601 -8.72298,3.06812 -9.25198,8.59009 -0.52106,5.43953 -0.70436,10.91303 -1.28877,16.34441 -0.58898,5.47434 2.15833,8.63466 6.95825,10.00685 3.14197,0.89815 6.53222,1.18778 9.82179,1.2586 7.97116,0.1716 15.94855,0.0558 24.15963,0.0558 -0.0602,1.31678 -0.0216,2.26984 -0.15904,3.19672 -1.01263,6.82998 6.01339,13.74149 12.55823,12.01405 1.48831,-0.39284 2.56114,-2.36003 3.82521,-3.60256 -4.91788,-4.97067 -3.84419,-9.87601 0.1211,-14.78487 0.1929,-0.23884 0.045,-0.76208 0.0374,-1.15251 -0.30061,-15.42739 -0.56665,-30.85562 -0.92846,-46.28159 -0.10648,-4.53561 -2.53008,-7.72626 -7.07877,-7.80685 -13.28063,-0.23535 -26.57856,-0.30843 -39.85002,0.13986 -5.5443,0.18725 -7.53714,5.27182 -8.71711,9.79279 -0.44498,1.70475 1.15492,5.57549 2.31314,5.78821 5.45496,1.00191 12.36804,3.28117 16.33999,0.96077 5.81642,-3.39793 10.34134,-0.90829 15.23517,-1.364 1.42627,4.62685 0.015,6.64201 -4.20936,6.62009 -2.1488,-0.0117 -4.2979,0.051 -7.57815,0.10484 M 930.911,257.30099 c 0,-4.62556 0,-9.25112 0,-14.27695 -7.96522,0.41651 -15.44446,0.80761 -22.98725,1.20204 0,26.64435 0,52.87721 0,79.64838 6.24738,-0.51812 12.07231,-0.78642 17.80512,-1.65978 1.13231,-0.17245 2.55028,-2.60083 2.72233,-4.11545 0.40247,-3.542 0.1287,-7.16083 0.1287,-10.74857 0.58683,-0.16104 1.17374,-0.32209 1.76058,-0.48308 3.37331,2.84461 6.74603,5.68991 10.1199,8.53377 11.42727,9.63186 11.37223,9.58526 21.10011,-1.98945 2.63939,-3.1404 2.83685,-5.71067 -0.37168,-8.49165 -3.66089,-3.17307 -7.18241,-6.50688 -10.88438,-9.88011 0.86204,-1.01109 1.41846,-1.81189 2.11638,-2.46047 14.61433,-13.58134 14.61927,-13.57997 -0.6841,-26.83319 -0.25181,-0.21803 -0.7267,-0.17836 -1.21534,-0.28463 -6.55706,5.55343 -13.16424,11.14932 -20.81904,17.63244 0.43803,-9.18319 0.80714,-16.9223 1.20867,-25.7933 m -666.4624,45.12929 c 3.51354,0.0494 7.02769,0.16663 10.54043,0.13313 6.25306,-0.0597 9.37551,-2.92717 9.90312,-9.06191 0.40098,-4.66203 0.8053,-9.32688 1.04673,-13.99885 0.51282,-9.92508 -3.26693,-13.98566 -13.37809,-14.31756 -10.33602,-0.33928 -20.67596,-0.56436 -31.01485,-0.81043 -7.98128,-0.18998 -12.74497,4.46928 -12.63586,12.65804 0.16378,12.29234 0.48935,24.58296 0.81242,36.87256 0.18762,7.13675 2.90284,9.81996 10.08939,9.80025 11.51716,-0.0317 23.03461,-0.16978 34.55058,-0.34832 6.57459,-0.1019 11.59591,-5.79123 10.64315,-12.2541 -0.21753,-1.47554 -1.57072,-3.85203 -2.59761,-3.96081 -5.36432,-0.56848 -10.8053,-0.8482 -16.19307,-0.61479 -3.87643,0.1679 -7.69457,1.59868 -11.57478,1.81275 -1.15179,0.0636 -2.42579,-2.08811 -3.64382,-3.2247 1.36693,-0.95992 2.64112,-2.51952 4.12113,-2.74842 2.66054,-0.41151 5.44461,-0.0245 9.33113,0.0632 m 639.48145,-17.20537 c 0.0786,-2.14708 0.16269,-4.294 0.23498,-6.44131 0.32552,-9.67551 -3.27868,-13.50304 -12.86735,-13.68961 -10.93177,-0.2127 -21.86289,-0.4635 -32.79522,-0.64278 -5.8744,-0.0963 -10.60896,3.7085 -10.68992,9.34525 -0.19904,13.86373 -0.0844,27.73478 0.11621,41.5998 0.0637,4.40501 2.65212,7.95971 7.02481,8.03994 13.65818,0.25048 27.34362,0.18975 40.98577,-0.44905 5.28962,-0.24769 6.75468,-5.59575 7.75915,-9.87282 0.38013,-1.61852 -1.51544,-5.28888 -2.81666,-5.51903 -5.28162,-0.93422 -10.74567,-1.25291 -16.12233,-1.09849 -4.0673,0.1168 -8.08619,1.54168 -12.16629,1.83886 -1.09401,0.0796 -2.33347,-1.83714 -3.50614,-2.83743 1.28612,-1.0915 2.5016,-3.00247 3.87145,-3.12046 4.06378,-0.34989 8.18826,0.007 12.28903,0.0869 13.46214,0.26053 17.51912,2.34399 18.68255,-17.23976 m -791.77001,28.67496 c 0.83673,8.07176 2.63602,9.79506 10.62109,9.82322 11.32789,0.04 22.65638,0.0296 33.98409,-0.0422 7.58128,-0.0481 10.80004,-3.1298 10.90657,-10.55299 0.1766,-12.30313 0.27779,-24.60825 0.28558,-36.91261 0.005,-7.39999 -3.63843,-10.94858 -11.23962,-11.0679 -11.7162,-0.18394 -23.4338,-0.30027 -35.15126,-0.37568 -6.71989,-0.0433 -10.08807,3.16601 -10.06787,10.0353 0.0373,12.69158 0.33634,25.38239 0.66142,39.09292 m 520.72634,-32.01616 c 3.52962,-0.58639 7.06525,-1.61208 10.58627,-1.56424 1.63348,0.0222 3.23853,2.1332 4.8564,3.29727 -1.67269,1.1631 -3.27954,3.19997 -5.02997,3.33188 -6.21858,0.46858 -12.48757,0.22563 -18.73479,0.36987 -6.75118,0.15588 -9.63505,2.74774 -10.25811,9.30443 -0.47954,5.04725 -0.30175,10.19155 -1.17998,15.15763 -1.1353,6.41958 2.68905,8.84108 7.52075,10.54096 2.16147,0.76045 4.60423,0.94457 6.92675,0.98691 12.49603,0.22778 24.99884,0.18076 37.4895,0.55444 4.32832,0.12949 5.39499,-1.79128 5.31776,-5.55785 -0.30004,-14.63781 -0.46595,-29.27834 -0.76098,-43.91626 -0.11781,-5.84256 -3.08271,-8.99549 -9.01393,-9.28097 -5.26057,-0.25322 -10.54318,-0.065 -15.81592,-0.0474 -7.2258,0.0239 -14.4558,-0.0679 -21.67572,0.15751 -4.63595,0.14476 -10.1068,6.5919 -9.65896,11.42435 0.51827,5.59181 4.9913,5.76814 9.17146,5.90635 3.10719,0.10272 6.22404,-0.0874 10.25947,-0.66487 m -328.38395,41.74462 c 10.14444,-0.0651 20.31236,0.23266 30.41869,-0.42118 2.94414,-0.19041 7.43894,-2.54342 8.18786,-4.87858 1.38995,-4.33404 1.49959,-9.63701 0.32953,-14.05662 -0.93033,-3.51409 -15.54219,-1.68279 -19.08873,0.8435 -2.54895,1.81567 -6.59669,1.81881 -10.00498,1.96908 -1.10576,0.0487 -3.25979,-1.9591 -3.30499,-3.09125 -0.29911,-7.49523 -0.15467,-15.00817 -0.15467,-23.33768 5.2819,1.71889 11.88245,-2.84003 12.99915,5.54229 0.66257,4.9736 3.03351,6.11531 7.77641,5.96461 12.14971,-0.38606 12.15727,-0.14809 13.66673,-12.40348 1.25126,-10.15903 -2.299,-14.34435 -12.65911,-14.599 -10.33608,-0.25407 -20.68305,-0.14574 -31.01363,-0.51877 -10.16155,-0.36695 -13.0349,2.07022 -13.00203,12.11299 0.0389,11.90074 0.16242,23.80146 0.30707,35.70149 0.0912,7.51026 2.30298,10.0019 9.75803,11.04986 1.53383,0.21562 3.11559,0.0906 5.78467,0.12274 m -87.21117,0.11864 c 4.52445,0.0965 8.98223,0.0337 9.09179,-6.23707 0.2559,-14.64804 0.59605,-29.2965 0.63681,-43.94553 0.0187,-6.69267 -2.30007,-8.77449 -8.94285,-8.54474 -15.45494,0.53453 -30.90444,1.22603 -46.40463,1.8559 0,18.22917 0,37.42909 0,57.08612 7.07606,-0.60222 13.6193,-1.1591 20.39528,-1.73578 0.10601,-1.58945 0.24627,-2.73059 0.24831,-3.87203 0.0182,-10.16141 0.16355,-20.32625 -0.0654,-30.48249 -0.0855,-3.79402 1.16359,-5.34813 4.94636,-5.28654 2.62246,0.0427 5.25274,-0.39498 8.52554,-0.67291 0,14.14594 0,27.73861 0,41.85253 3.90929,0 7.19429,0 11.56883,-0.0175 m 233.44289,0.0363 c 8.65666,-0.12564 10.72449,-1.20789 10.82705,-7.12969 0.25703,-14.84234 0.24965,-29.69342 0.0524,-44.53707 -0.0612,-4.6083 -2.25488,-7.61401 -7.73422,-7.31214 -15.82369,0.87168 -31.66189,1.48005 -47.68512,2.20039 0,18.01428 0,37.06565 0,56.88892 7.07036,-0.542 13.74793,-1.05386 20.88661,-1.60105 0,-9.1434 -4e-5,-17.70258 -4e-5,-26.26176 0,-13.12175 4e-5,-13.12175 13.80201,-14.08284 0,13.78629 0,27.54542 0,41.83901 3.37075,0 6.05894,0 9.85127,-0.004 m 135.01635,-0.0442 c 7.93319,0 15.86639,0 24.00904,0 0,-3.08167 0.0801,-5.39172 -0.0142,-7.69463 -0.36138,-8.83252 -2.54762,-10.9326 -11.37277,-10.97966 -4.95191,-0.0264 -9.9041,-0.005 -14.85615,-0.005 4.2499,-4.39288 8.57031,-8.14384 13.56456,-10.40931 10.24973,-4.64939 13.19343,-12.30249 11.59475,-22.81478 -0.57088,-3.75383 -1.96943,-5.65459 -5.84877,-5.7211 -4.67491,-0.0802 -9.34496,-0.52257 -14.01905,-0.5596 -11.05022,-0.0876 -22.10159,-0.0281 -33.82081,-0.0281 0,3.31683 0.1555,6.59735 -0.0353,9.85764 -0.31003,5.29839 2.09308,7.43485 7.30684,7.27159 6.33312,-0.1983 12.67718,-0.047 19.01648,-0.047 0.15414,0.56642 0.30828,1.13284 0.46241,1.69924 -1.42232,1.13885 -2.79591,2.34579 -4.2755,3.40455 -5.8663,4.19755 -11.68894,8.4632 -17.67879,12.47837 -4.25415,2.85167 -5.8746,6.53149 -4.84851,11.5146 0.35132,1.70609 0.60627,3.46942 0.59786,5.2051 -0.0244,5.05415 2.63676,6.85747 7.39281,6.78582 7.21558,-0.10871 14.43475,0.0163 22.82506,0.0421 m -202.87499,-0.004 c 6.57418,0 13.14835,0 19.87477,0 -0.19264,-3.10956 -0.36277,-5.42616 -0.47519,-7.74556 -0.4352,-8.97965 -2.38739,-10.87948 -11.34184,-10.92333 -4.96641,-0.0243 -9.93302,-0.005 -14.8933,-0.005 0,-0.83287 -0.072,-1.11637 0.0106,-1.17214 6.93334,-4.6991 13.90049,-9.34862 20.81479,-14.07542 4.07458,-2.78548 6.3806,-18.38327 3.05737,-21.88412 -1.03908,-1.09463 -3.06264,-1.57399 -4.69245,-1.72657 -4.26487,-0.39922 -8.56011,-0.60221 -12.84505,-0.63275 -11.2588,-0.0802 -22.51851,-0.0271 -34.1555,-0.0271 -0.14042,2.87356 -0.23974,5.75142 -0.42958,8.62331 -0.46302,7.00349 0.58761,8.28328 7.6044,8.42587 6.30467,0.12813 12.61395,0.027 18.92123,0.027 0.14053,0.55512 0.2811,1.1102 0.42163,1.66532 -5.61325,4.10824 -10.92145,8.74703 -16.91508,12.19378 -7.93563,4.56349 -12.03538,9.93898 -9.99082,19.75536 1.10103,5.28609 2.76388,7.57547 8.10912,7.47547 8.58144,-0.1605 17.16883,-0.002 26.92527,0.0252 m 435.2003,-16.72275 c -0.57295,-0.95726 -1.66418,-1.92993 -1.63626,-2.86931 0.20699,-6.97069 0.63636,-13.93477 1.00956,-21.16487 5.42061,0.25525 10.2543,0.56235 15.09266,0.69073 6.14237,0.16299 8.76994,-2.39502 9.10748,-8.63537 0.3238,-5.98861 -2.3515,-9.18852 -8.46839,-9.49167 -5.20017,-0.25773 -10.42323,-0.0532 -15.53843,-0.0532 -0.96254,-14.87538 -0.0939,-15.77058 -18.72585,-13.94613 -0.16492,1.42814 -0.32825,2.93573 -0.51563,4.44036 -0.21715,1.74377 -0.24271,3.54943 -0.74581,5.20862 -0.47739,1.57424 -1.18276,3.25875 -2.28292,4.42946 -2.78432,2.96274 -3.5564,10.35109 -1.67506,13.87295 1.28254,2.40085 2.37998,5.21939 2.4618,7.88489 0.28171,9.17593 -0.0313,18.36829 0.10144,27.55124 0.0932,6.45029 2.59629,8.83085 8.89083,8.84151 9.57564,0.0162 19.15515,-0.23294 28.72572,-0.0276 5.65087,0.12124 8.70924,-2.74277 10.42981,-7.60771 4.312,-12.19245 -0.42809,-18.4139 -13.16918,-16.99175 -1.58766,0.17717 -3.95499,2.04258 -4.2566,3.48277 -1.00976,4.82067 -3.45132,6.19995 -8.80522,4.38504 z"
   id="path1"
   style="stroke-width:1.17267" />
<path
   fill="#ee8c02"
   opacity="1"
   stroke="none"
   d="m 496.03599,222.57375 c -27.11461,0.42226 -54.24502,0.40206 -81.34031,1.36706 -44.23642,1.57551 -88.51474,3.11907 -132.00906,12.63861 -0.86382,0.18907 -1.80521,0.0237 -3.21472,0.0237 14.14026,-18.29547 24.78678,-36.58371 5.70735,-57.99923 1.36481,-0.63648 2.52509,-0.99755 3.57113,-0.78811 28.83803,5.77426 57.65185,11.66964 86.49685,17.40842 21.47613,4.27271 43.01024,8.25434 64.48061,12.55506 16.5054,3.30618 32.98113,6.77821 49.39264,10.51641 2.46566,0.56163 6.91154,-0.76419 6.91551,4.27806 z"
   id="path2"
   style="stroke-width:1.17267" />
<path
   fill="#eebf01"
   opacity="1"
   stroke="none"
   d="m 409.80526,91.112903 c 11.88817,-5.66707 23.24656,-12.127888 33.37089,-21.827475 2.74226,0.278555 4.63422,0.688922 6.53152,1.072976 22.95611,4.646933 45.91186,9.295553 68.86998,13.932747 34.53473,6.975493 69.06592,13.969058 103.62728,20.809889 1.31582,0.26043 2.93088,-0.99088 4.40647,-1.53774 5.66868,5.82364 11.15314,11.84192 17.0503,17.4242 8.33017,7.8854 19.00907,9.88927 29.90962,11.51796 10.94451,1.63529 21.22036,-1.04554 31.5887,-3.64594 1.9957,-0.50051 4.02849,-0.85307 6.41249,-0.31225 -6.57568,4.21014 -13.15128,8.42029 -20.27601,12.43928 -2.2571,-1.01312 -3.88434,-2.22522 -5.68544,-2.5984 -26.39296,-5.46859 -52.80255,-10.85879 -79.23688,-16.12333 -1.54243,-0.30721 -3.33043,0.61786 -5.00412,0.96947 -14.66208,-5.12803 -29.0522,-11.31888 -44.04478,-15.15548 -28.30643,-7.24363 -57.11582,-7.73126 -85.96047,-2.74099 -1.53781,0.26605 -3.10102,0.38505 -5.35279,0.15201 -2.5434,-1.36948 -4.28984,-2.75375 -6.24708,-3.18798 -6.56559,-1.4566 -13.25023,-2.380711 -19.80824,-3.866508 -10.08579,-2.285055 -20.10433,-4.866662 -30.15144,-7.322439 z"
   id="path3"
   style="stroke-width:1.17267" />
<path
   fill="#ff9553"
   opacity="1"
   stroke="none"
   d="m 82.378242,243.81203 c 8.536852,-0.12411 16.522776,-0.12411 24.235948,-0.12411 0.49454,0.69024 0.89512,0.99151 0.91962,1.32077 0.92224,12.39611 1.96384,24.78728 2.56862,37.19963 0.11709,2.40306 -1.55588,4.87074 -2.28358,7.34379 -0.75628,2.57019 -1.78142,5.15521 -1.95793,7.78284 -0.39214,5.83771 -0.55168,11.71267 -0.38201,17.56012 0.15173,5.22858 -1.26961,8.06553 -7.22724,7.79029 -4.367655,-0.20177 -8.786386,0.70226 -12.910027,1.08801 -2.687572,-5.54358 1.789591,-12.00098 -4.027863,-16.66484 -0.323812,1.43757 -0.558915,2.34851 -0.732305,3.27106 -2.351691,12.51259 -2.842333,12.93896 -15.407653,13.06747 -10.347127,0.10578 -20.694438,0.25452 -31.041735,0.26064 -6.247861,0.004 -8.317991,-2.22228 -8.340058,-8.52393 -0.002,-0.58555 -0.100006,-1.2062 0.05517,-1.75111 1.01409,-3.56111 1.656693,-9.90571 3.21683,-10.14477 5.236321,-0.80231 10.832854,-2.85609 16.302399,2.26459 2.658156,2.4886 9.049557,1.12876 13.748967,1.1061 0.533444,-0.002 1.650845,-2.75622 1.3954,-4.00956 -0.211108,-1.03582 -1.978158,-2.34538 -3.182084,-2.49122 -7.352599,-0.89081 -14.741648,-1.47983 -22.117767,-2.17771 -7.492231,-0.70887 -9.394812,-2.80337 -9.288769,-10.45766 0.06758,-4.87795 0.152478,-9.76303 0.482545,-14.62775 0.286246,-4.21892 2.328472,-6.84991 7.005026,-6.95716 12.482866,-0.28626 24.963782,-1.01432 37.443256,-0.96808 8.550433,0.0317 13.57403,9.2162 9.647256,16.66413 -2.215477,4.20212 -14.755561,4.57364 -18.344778,0.15253 -4.079277,-5.02476 -8.76027,-0.97049 -13.096249,-1.28915 -0.848353,-0.0624 -1.916926,2.87152 -2.911028,4.46696 11.517025,5.20856 24.82839,-1.1718 35.421151,9.51691 1.039798,-4.68008 2.766394,-8.87543 2.727127,-13.05421 -0.07137,-7.59236 1.472713,-15.19129 -2.809284,-22.78691 -2.069331,-3.6707 0.09352,-9.72726 0.891037,-14.82767 z"
   id="path4"
   style="stroke-width:1.17267" />
<path
   fill="#ee9303"
   opacity="1"
   stroke="none"
   d="m 496.57999,222.65983 c -0.54797,-5.12833 -4.99385,-3.8025 -7.45951,-4.36413 -16.41151,-3.73821 -32.88724,-7.21024 -49.39264,-10.51641 -21.47037,-4.30073 -43.00448,-8.28235 -64.48061,-12.55506 -28.845,-5.73879 -57.65882,-11.63416 -86.49685,-17.40842 -1.04604,-0.20944 -2.20632,0.15163 -3.73059,0.41646 -2.1059,-1.08606 -3.79455,-2.34173 -5.4832,-3.59743 0.28607,-0.53244 0.57218,-1.06487 0.85825,-1.59731 11.33692,-1.41507 23.14445,0.24276 34.52549,-4.11845 2.71431,1.43393 4.77175,2.90563 7.04063,3.39288 13.41961,2.88189 26.88839,5.53518 40.5056,8.51712 0.47761,0.0782 0.79024,-0.0952 1.08571,-0.238 -0.0172,0.0306 -0.0551,0.09 -0.0551,0.09 5.08003,-1.01896 10.16009,-2.03791 15.93274,-2.68703 10.44445,2.69023 20.14013,5.29861 29.97065,7.21546 5.30359,1.0341 10.83782,0.88509 16.26802,1.26985 1.26079,0.21866 2.52153,0.43732 4.37469,1.16435 2.45014,1.44502 4.21374,2.83124 6.18135,3.24315 10.40702,2.17858 20.87852,4.04738 31.29657,6.17594 2.60215,0.53166 6.27728,-0.0325 6.23348,4.41165 -10.59337,0.90403 -21.18669,1.80803 -31.78006,2.71205 8.7e-4,0.19592 0.001,0.39183 0.002,0.58775 21.89728,1.28862 43.82641,2.18772 65.68295,3.97425 22.33918,1.82599 44.63981,4.24987 66.89704,6.91522 22.01938,2.63685 43.50214,7.74216 64.23143,15.87582 -47.04647,-6.41192 -94.31266,-8.28352 -142.20864,-8.87963 z"
   id="path5"
   style="stroke-width:1.17267" />
<path
   fill="#ff9553"
   opacity="1"
   stroke="none"
   d="m 520.77935,281.44829 c -0.18095,18.15277 -0.27313,35.7216 -0.56239,53.28716 -0.19612,11.90704 -3.28259,14.86623 -15.09361,14.66648 -9.7515,-0.16491 -19.50343,-0.46252 -29.24717,-0.88556 -7.58291,-0.32924 -11.56008,-4.7505 -11.4791,-12.34704 0.11047,-10.36135 9.42924,-15.89226 18.86313,-11.06374 0.9853,0.50427 1.85615,2.06587 1.99267,3.22935 0.33325,2.83979 0.89368,5.27714 4.46785,4.46986 3.35845,-0.75854 7.96762,0.0604 8.32578,-5.36152 0.15021,-2.27392 0.025,-4.56602 0.025,-7.62515 -7.53195,0.5643 -14.45115,1.20578 -21.38488,1.56981 -8.01403,0.42079 -11.08579,-2.52085 -11.30226,-10.40982 -0.36936,-13.45878 -0.7492,-26.91728 -1.10797,-40.37631 -0.0505,-1.8974 -0.007,-3.79731 -0.007,-5.42421 0.86866,-0.45321 1.194,-0.74789 1.54959,-0.79052 16.42408,-1.96901 18.3441,-0.41481 19.33272,16.0192 0.33983,5.64836 0.23846,11.32601 0.67198,16.96467 0.18638,2.4234 -0.36939,6.18728 4.08837,5.41574 3.66056,-0.63357 8.32166,-0.25051 8.60703,-5.86856 0.38599,-7.59809 0.70042,-15.20055 0.9611,-22.80401 0.24574,-7.1677 1.893,-8.87126 9.03582,-9.16772 3.84856,-0.15976 7.6939,-0.39574 12.2682,-0.63543 0,5.75767 0,11.15482 -0.005,17.13732 z"
   id="path6"
   style="stroke-width:1.17267" />
<path
   fill="#eec902"
   opacity="1"
   stroke="none"
   d="m 626.42509,103.24737 c -1.28928,0.86279 -2.90434,2.1141 -4.22016,1.85367 -34.56136,-6.840831 -69.09255,-13.834396 -103.62728,-20.809889 -22.95812,-4.637194 -45.91387,-9.285814 -68.86998,-13.932747 -1.8973,-0.384054 -3.78926,-0.794421 -6.17694,-1.226314 4.38686,-6.933318 9.26702,-13.832888 14.99547,-20.891783 11.18618,2.015735 21.50558,4.288014 31.88265,6.256323 1.48009,0.280741 3.23949,-0.911249 4.86963,-1.421633 15.51203,15.03893 35.20897,20.287709 55.69311,22.771553 18.0775,2.192019 34.0204,-4.493035 48.56845,-14.782383 4.01661,-2.8408 7.85873,-5.928333 11.78085,-8.902642 0.43975,0.297164 0.87958,0.594327 1.31933,0.891491 -0.74709,3.319072 -1.26214,6.711593 -2.28507,9.943358 -2.9964,9.466468 -3.07635,18.280674 4.23641,26.128104 4.09992,4.39963 7.7787,9.191711 11.83353,14.122892 z"
   id="path7"
   style="stroke-width:1.17267" />
<path
   fill="#ff9452"
   opacity="1"
   stroke="none"
   d="m 673.55493,268.54281 c 4.3e-4,-8.35254 4.3e-4,-16.11895 4.3e-4,-24.2681 8.24708,-0.45682 15.73184,-0.87139 23.39852,-1.29605 0,12.94938 0,25.36937 0,39.12249 4.9178,-4.19253 9.42268,-7.92872 13.80999,-11.79827 6.30905,-5.56459 6.27141,-5.605 12.05132,0.25371 1.23458,1.25148 2.50711,2.46667 3.71571,3.74253 4.37233,4.61594 4.28824,7.66212 -0.39867,11.84658 -3.18198,2.84086 -6.44233,5.59398 -9.99457,8.66936 3.84082,3.43993 7.29129,6.57951 10.79692,9.65628 3.53835,3.1055 3.59847,6.21895 0.20127,9.45033 -3.38174,3.21658 -6.74889,6.44848 -10.47133,10.00723 -6.82376,-5.76754 -13.45813,-11.37495 -21.62261,-18.27565 0,4.81406 -0.0731,7.96812 0.0188,11.11743 0.11176,3.83316 -1.41982,5.70995 -5.4846,5.82074 -5.03253,0.13722 -10.0514,0.77072 -16.02148,1.26866 0,-18.58059 0,-36.65585 3.5e-4,-55.31727 z"
   id="path8"
   style="stroke-width:1.17267" />
<path
   fill="#ff9452"
   opacity="1"
   stroke="none"
   d="m 756.26911,287.19989 c 2.71467,-0.0414 4.86377,-0.10354 7.01257,-0.0924 4.22439,0.0219 5.63562,-1.99324 4.20936,-6.6201 -4.89383,0.45571 -9.41876,-2.03392 -15.23517,1.36401 -3.97196,2.32039 -10.88503,0.0412 -16.34,-0.96077 -1.15821,-0.21273 -2.75811,-4.08347 -2.31313,-5.78822 1.17997,-4.52096 3.17281,-9.60554 8.71711,-9.79279 13.27145,-0.44829 26.56939,-0.37521 39.85002,-0.13985 4.54868,0.0806 6.97233,3.27123 7.07876,7.80684 0.36182,15.42598 0.62785,30.85421 0.92847,46.28159 0.007,0.39043 0.15546,0.91368 -0.0374,1.15252 -3.96529,4.90886 -5.03898,9.8142 -0.1211,14.78486 -1.26407,1.24253 -2.33691,3.20973 -3.82522,3.60256 -6.54483,1.72744 -13.57085,-5.18406 -12.55822,-12.01405 0.13749,-0.92688 0.099,-1.87993 0.15903,-3.19672 -8.21107,0 -16.18847,0.11586 -24.15963,-0.0558 -3.28956,-0.0708 -6.67982,-0.36044 -9.82179,-1.25859 -4.79992,-1.3722 -7.54722,-4.53252 -6.95825,-10.00685 0.58442,-5.43138 0.76772,-10.90489 1.28877,-16.34442 0.52901,-5.52197 3.7304,-8.41407 9.25199,-8.59008 4.09986,-0.13067 8.20528,-0.086 12.87386,-0.13175 m -1.93737,14.79945 c 0.84214,1.70766 1.4521,4.68587 2.56895,4.88996 3.6737,0.67119 7.53284,0.39304 11.31411,0.27138 0.27313,-0.008 0.82755,-1.75702 0.6675,-2.58345 -0.34462,-1.77987 -1.11813,-5.00033 -1.63139,-4.98386 -4.27056,0.13664 -8.52186,0.87575 -12.91917,2.40597 z"
   id="path9"
   style="stroke-width:1.17267" />
<path
   fill="#ff9452"
   opacity="1"
   stroke="none"
   d="m 930.89478,257.86688 c -0.3853,8.30504 -0.75441,16.04415 -1.19244,25.22735 7.65481,-6.48313 14.26198,-12.07901 20.81905,-17.63244 0.48864,0.10624 0.96353,0.0666 1.21533,0.28463 15.30338,13.25322 15.29844,13.25185 0.68411,26.83319 -0.69792,0.64858 -1.25434,1.44937 -2.11639,2.46047 3.70197,3.37323 7.2235,6.70704 10.88439,9.8801 3.20853,2.78099 3.01106,5.35126 0.37168,8.49165 -9.72788,11.57472 -9.67284,11.62132 -21.10011,1.98946 -3.37387,-2.84387 -6.7466,-5.68916 -10.1199,-8.53378 -0.58684,0.161 -1.17375,0.32204 -1.76058,0.48309 0,3.58774 0.27377,7.20657 -0.1287,10.74856 -0.17206,1.51463 -1.59002,3.943 -2.72233,4.11546 -5.73282,0.87336 -11.55775,1.14165 -17.80512,1.65978 0,-26.77117 0,-53.00403 0,-79.64838 7.54279,-0.39443 15.02202,-0.78553 22.98725,-1.20204 0,5.02583 0,9.65139 -0.0163,14.8429 z"
   id="path10"
   style="stroke-width:1.17267" />
<path
   fill="#ff9553"
   opacity="1"
   stroke="none"
   d="m 263.87158,302.41308 c -3.30948,-0.0706 -6.09355,-0.45753 -8.75409,-0.046 -1.48001,0.22889 -2.7542,1.78849 -4.12113,2.74842 1.21802,1.13659 2.49203,3.28826 3.64382,3.2247 3.88021,-0.21407 7.69834,-1.64485 11.57478,-1.81276 5.38777,-0.2334 10.82874,0.0463 16.19307,0.61479 1.02689,0.10882 2.38007,2.48527 2.5976,3.96081 0.95277,6.46288 -4.06855,12.15218 -10.64314,12.25411 -11.51598,0.17854 -23.03342,0.31664 -34.55058,0.34832 -7.18656,0.0197 -9.90178,-2.66351 -10.08939,-9.80025 -0.32308,-12.2896 -0.64865,-24.58022 -0.81242,-36.87257 -0.10918,-8.18876 4.65458,-12.84802 12.63586,-12.65803 10.33889,0.24606 20.67883,0.47114 31.01484,0.81042 10.11116,0.3319 13.89092,4.39249 13.37809,14.31757 -0.24143,4.67197 -0.64574,9.33682 -1.04673,13.99884 -0.5276,6.13474 -3.65005,9.00222 -9.90311,9.06191 -3.51275,0.0335 -7.0269,-0.0837 -11.11747,-0.15027 M 258.6893,281.0756 c -2.64767,0.19098 -5.29534,0.38196 -7.72722,0.55739 -3.26652,7.63866 0.25921,10.73759 13.51622,8.4215 -0.3696,-3.72242 2.55194,-8.9815 -5.789,-8.97889 z"
   id="path11"
   style="stroke-width:1.17267" />
<path
   fill="#ff9553"
   opacity="1"
   stroke="none"
   d="m 903.90222,285.76487 c -1.13559,19.04373 -5.19257,16.96027 -18.65471,16.69975 -4.10077,-0.0794 -8.22525,-0.43679 -12.28903,-0.0869 -1.36985,0.118 -2.58533,2.02896 -3.87145,3.12046 1.17267,1.00029 2.41213,2.91709 3.50614,2.83743 4.0801,-0.29718 8.09899,-1.72208 12.16629,-1.83886 5.37666,-0.15442 10.84071,0.16427 16.12233,1.09849 1.30122,0.23015 3.19679,3.90051 2.81666,5.51903 -1.00447,4.27707 -2.46953,9.62513 -7.75915,9.87282 -13.64216,0.63881 -27.32759,0.69953 -40.98577,0.44905 -4.37269,-0.0802 -6.9611,-3.63493 -7.02481,-8.03994 -0.20062,-13.86502 -0.31521,-27.73607 -0.11621,-41.5998 0.0809,-5.63675 4.81552,-9.44158 10.68992,-9.34525 10.93233,0.17928 21.86345,0.43008 32.79522,0.64278 9.58867,0.18657 13.19287,4.0141 12.86735,13.68961 -0.0722,2.14731 -0.15639,4.29423 -0.26282,6.98133 m -35.72706,0.8583 c 1.16345,1.21906 2.16498,3.22441 3.52197,3.50401 3.52238,0.72573 7.20123,0.6925 11.35806,1.00247 -0.2022,-3.65479 -0.35816,-6.47322 -0.54576,-9.86351 -3.58766,0 -6.68647,0.20675 -9.74535,-0.0549 -3.45339,-0.29528 -4.50982,1.44742 -4.58892,5.41187 z"
   id="path12"
   style="stroke-width:1.17267" />
<path
   fill="#ff9452"
   opacity="1"
   stroke="none"
   d="m 112.09258,313.39022 c -0.25754,-13.20081 -0.55659,-25.89162 -0.59388,-38.5832 -0.0202,-6.86929 3.34798,-10.07853 10.06787,-10.0353 11.71746,0.0754 23.43506,0.19173 35.15126,0.37567 7.60119,0.11932 11.24429,3.66792 11.23962,11.0679 -0.008,12.30437 -0.10894,24.60948 -0.28558,36.91262 -0.10648,7.42319 -3.32529,10.50493 -10.90657,10.55298 -11.32771,0.0719 -22.6562,0.0822 -33.98409,0.0422 -7.98507,-0.0281 -9.78436,-1.75146 -10.68863,-10.33294 m 21.47734,-11.81449 c 0.52868,6.38229 4.37367,8.1909 12.7443,5.87429 0,-8.40984 0,-16.86058 0,-25.74832 -4.30477,0 -8.25041,0 -12.75503,0 0,6.42374 0,12.60246 0.0106,19.87403 z"
   id="path13"
   style="stroke-width:1.17267" />
<path
   fill="#ff9452"
   opacity="1"
   stroke="none"
   d="m 632.42503,282.1428 c -3.574,0.31859 -6.69085,0.50862 -9.79804,0.40589 -4.18016,-0.13821 -8.65319,-0.31453 -9.17146,-5.90635 -0.44784,-4.83245 5.02301,-11.27958 9.65896,-11.42434 7.21992,-0.22543 14.44992,-0.13356 21.67572,-0.15751 5.27274,-0.0175 10.55535,-0.20582 15.81592,0.0474 5.93122,0.28549 8.89612,3.43841 9.01393,9.28098 0.29503,14.63792 0.46094,29.27845 0.76098,43.91626 0.0773,3.76657 -0.98944,5.68734 -5.31776,5.55785 -12.49066,-0.37368 -24.99347,-0.32666 -37.4895,-0.55444 -2.32252,-0.0423 -4.76528,-0.22647 -6.92675,-0.98691 -4.8317,-1.69988 -8.65605,-4.12139 -7.52075,-10.54097 0.87823,-4.96607 0.70044,-10.11037 1.17998,-15.15762 0.62306,-6.55669 3.50693,-9.14856 10.25811,-9.30443 6.24722,-0.14424 12.51621,0.0987 18.73479,-0.36987 1.75043,-0.13192 3.35728,-2.16878 5.02997,-3.33186 -1.61787,-1.16409 -3.22292,-3.27508 -4.8564,-3.29729 -3.52102,-0.0479 -7.05665,0.97784 -11.0477,1.82321 m 14.18982,25.9806 c 0.81939,-2.73941 1.63877,-5.47877 2.60566,-8.71135 -5.72251,0 -9.93867,0 -14.24114,0 -1.4889,5.17944 -0.5255,8.24296 5.42076,8.05594 1.73073,-0.0544 3.47808,0.41863 6.21472,0.65541 z"
   id="path14"
   style="stroke-width:1.17267" />
<path
   fill="#eeb203"
   opacity="1"
   stroke="none"
   d="m 409.38333,91.185675 c 10.46904,2.383005 20.48758,4.964612 30.57337,7.249667 6.55801,1.485797 13.24265,2.409908 19.80824,3.866508 1.95724,0.43423 3.70368,1.8185 5.74061,3.18151 -15.72645,5.61593 -31.69959,10.665 -47.53037,16.12678 -3.97689,1.37205 -7.49709,4.06792 -12.02742,6.03986 -6.7276,-1.73136 -12.58345,-3.71326 -18.59702,-4.88685 -12.5437,-2.44793 -25.1707,-4.46871 -37.76348,-6.665 -1.11853,-8.00853 -6.43064,-12.88717 -12.48379,-17.479649 -3.91343,-2.969118 -7.21781,-6.740978 -10.33194,-11.057771 27.31306,9.148034 54.38284,14.63061 82.6118,3.624945 z"
   id="path15"
   style="stroke-width:1.17267" />
<path
   fill="#ff9553"
   opacity="1"
   stroke="none"
   d="m 303.94773,323.62843 c -2.11434,-0.032 -3.6961,0.0929 -5.22993,-0.12275 -7.45505,-1.04796 -9.66673,-3.5396 -9.75803,-11.04986 -0.14465,-11.90002 -0.26809,-23.80074 -0.30707,-35.70149 -0.0328,-10.04276 2.84048,-12.47993 13.00203,-12.11298 10.33058,0.37303 20.67755,0.2647 31.01363,0.51877 10.36011,0.25464 13.91037,4.43996 12.65911,14.59899 -1.50946,12.2554 -1.51702,12.01743 -13.66673,12.40348 -4.7429,0.1507 -7.11384,-0.991 -7.77641,-5.96461 -1.1167,-8.38232 -7.71725,-3.82339 -12.99915,-5.54229 0,8.32952 -0.14444,15.84245 0.15467,23.33768 0.0452,1.13216 2.19923,3.13997 3.30499,3.09125 3.40829,-0.15026 7.45603,-0.15341 10.00498,-1.96907 3.54654,-2.52629 18.1584,-4.3576 19.08873,-0.8435 1.17006,4.41961 1.06042,9.72258 -0.32953,14.05662 -0.74892,2.33516 -5.24372,4.68816 -8.18786,4.87858 -10.10633,0.65384 -20.27425,0.35615 -30.97343,0.42118 z"
   id="path16"
   style="stroke-width:1.17267" />
<path
   fill="#ff9553"
   opacity="1"
   stroke="none"
   d="m 216.74654,323.7558 c -3.82978,0.008 -7.11478,0.008 -11.02407,0.008 0,-14.11392 0,-27.70659 0,-41.85252 -3.2728,0.27792 -5.90308,0.71562 -8.52554,0.6729 -3.78277,-0.0616 -5.03189,1.49252 -4.94636,5.28654 0.22899,10.15624 0.0836,20.32108 0.0654,30.48249 -0.002,1.14144 -0.14227,2.28258 -0.24831,3.87203 -6.77598,0.57668 -13.31922,1.13356 -20.39528,1.73578 0,-19.65703 0,-38.85695 0,-57.08612 15.50019,-0.62987 30.94969,-1.32137 46.40463,-1.8559 6.64278,-0.22975 8.96148,1.85207 8.94285,8.54474 -0.0408,14.64903 -0.38091,29.29749 -0.63681,43.94554 -0.10953,6.27069 -4.56734,6.33357 -9.63655,6.2458 z"
   id="path17"
   style="stroke-width:1.17267" />
<path
   fill="#ff9553"
   opacity="1"
   stroke="none"
   d="m 450.18214,323.78525 c -3.24029,0.002 -5.92848,0.002 -9.29923,0.002 0,-14.29359 0,-28.05273 0,-41.83901 -13.80197,0.96109 -13.80201,0.96109 -13.80201,14.08284 0,8.55917 4e-5,17.11836 4e-5,26.26176 -7.13868,0.54719 -13.81625,1.05905 -20.8866,1.60105 0,-19.82327 0,-38.87464 0,-56.88892 16.02323,-0.72034 31.86142,-1.32871 47.68511,-2.20039 5.47934,-0.30187 7.67302,2.70384 7.73422,7.31214 0.19722,14.84365 0.2046,29.69473 -0.0524,44.53707 -0.10261,5.9218 -2.17038,7.00405 -11.3791,7.13156 z"
   id="path18"
   style="stroke-width:1.17267" />
<path
   fill="#ff9553"
   opacity="1"
   stroke="none"
   d="m 585.1642,323.73915 c -7.80397,-0.0258 -15.02314,-0.15084 -22.23872,-0.0421 -4.75605,0.0717 -7.41723,-1.73166 -7.39281,-6.78582 0.008,-1.73567 -0.24654,-3.49901 -0.59787,-5.2051 -1.02608,-4.9831 0.59436,-8.66293 4.84852,-11.51459 5.98984,-4.01518 11.81249,-8.28083 17.67879,-12.47838 1.47959,-1.05876 2.85317,-2.2657 4.2755,-3.40454 -0.15414,-0.5664 -0.30827,-1.13283 -0.46241,-1.69924 -6.3393,0 -12.68336,-0.15126 -19.01648,0.047 -5.21376,0.16326 -7.61687,-1.9732 -7.30684,-7.27158 0.19078,-3.2603 0.0353,-6.54082 0.0353,-9.85764 11.71922,0 22.77058,-0.0595 33.82081,0.0281 4.67409,0.0371 9.34414,0.47945 14.01905,0.5596 3.87933,0.0665 5.27789,1.96728 5.84877,5.7211 1.59868,10.5123 -1.34502,18.16539 -11.59476,22.81479 -4.99424,2.26546 -9.31465,6.01642 -13.56455,10.40931 4.95205,0 9.90424,-0.0217 14.85615,0.005 8.82514,0.047 11.01138,2.14713 11.37277,10.97965 0.0943,2.30291 0.0142,4.61296 0.0142,7.69463 -8.14265,0 -16.07585,0 -24.59538,-3e-5 z"
   id="path19"
   style="stroke-width:1.17267" />
<path
   fill="#ff9452"
   opacity="1"
   stroke="none"
   d="m 382.28978,323.7335 c -9.17067,-0.0254 -17.75806,-0.18398 -26.3395,-0.0234 -5.34523,0.10003 -7.00809,-2.18939 -8.10912,-7.47547 -2.04456,-9.81639 2.05519,-15.19188 9.99082,-19.75536 5.99363,-3.44676 11.30183,-8.08554 16.91508,-12.19378 -0.14053,-0.55513 -0.2811,-1.11021 -0.42163,-1.66533 -6.30728,0 -12.61656,0.10108 -18.92123,-0.027 -7.01679,-0.1426 -8.06742,-1.42239 -7.6044,-8.42588 0.18984,-2.87189 0.28916,-5.74975 0.42958,-8.6233 11.63699,0 22.8967,-0.0531 34.1555,0.0271 4.28494,0.0305 8.58018,0.23352 12.84505,0.63275 1.62981,0.15257 3.65337,0.63193 4.69245,1.72656 3.32323,3.50085 1.01721,19.09864 -3.05737,21.88413 -6.9143,4.72679 -13.88145,9.37631 -20.81479,14.07542 -0.0823,0.0558 -0.0106,0.33926 -0.0106,1.17213 4.96028,0 9.92689,-0.0199 14.8933,0.005 8.95445,0.0439 10.90664,1.94369 11.34184,10.92333 0.11246,2.3194 0.28255,4.63601 0.47519,7.74556 -6.72642,0 -13.30059,0 -20.46053,-10e-4 z"
   id="path20"
   style="stroke-width:1.17267" />
<path
   fill="#ff9452"
   opacity="1"
   stroke="none"
   d="m 818.52054,307.16777 c 4.90921,1.65962 7.35076,0.28035 8.36053,-4.54033 0.30161,-1.44018 2.66894,-3.30559 4.2566,-3.48277 12.74109,-1.42215 17.48118,4.79931 13.16917,16.99175 -1.72057,4.86495 -4.77894,7.72896 -10.42981,7.60772 -9.57057,-0.20543 -19.15007,0.0437 -28.72572,0.0276 -6.29454,-0.0106 -8.79756,-2.39122 -8.89082,-8.8415 -0.13277,-9.18295 0.18022,-18.37531 -0.10144,-27.55124 -0.0819,-2.6655 -1.17927,-5.48405 -2.46181,-7.8849 -1.88133,-3.52185 -1.10925,-10.9102 1.67506,-13.87294 1.10017,-1.17072 1.80553,-2.85523 2.28293,-4.42946 0.5031,-1.6592 0.52865,-3.46486 0.74581,-5.20862 0.18738,-1.50464 0.35071,-3.01223 0.51562,-4.44037 18.63195,-1.82444 17.76332,-0.92925 18.72586,13.94613 5.11519,0 10.33826,-0.20449 15.53843,0.0532 6.11689,0.30315 8.79219,3.50306 8.46839,9.49167 -0.33754,6.24036 -2.96512,8.79837 -9.10748,8.63538 -4.83836,-0.12839 -9.67205,-0.43549 -15.09267,-0.69073 -0.37319,7.2301 -0.80256,14.19418 -1.00955,21.16487 -0.0279,0.93938 1.06331,1.91204 2.08094,3.02459 z"
   id="path21"
   style="stroke-width:1.17267" />
<path
   fill="#eeba03"
   opacity="1"
   stroke="none"
   d="m 601.63381,123.54708 c 1.40994,-0.6644 3.19794,-1.58947 4.74037,-1.28226 26.43433,5.26454 52.84392,10.65474 79.23688,16.12333 1.8011,0.37318 3.42834,1.58528 5.3665,2.86363 -2.82855,6.97276 -5.88713,13.48909 -9.69431,20.25434 -3.19837,-0.30347 -5.63298,-0.93737 -8.10036,-1.39435 -11.77255,-2.18049 -23.5539,-4.31294 -35.33217,-6.46246 -9.82716,-12.53337 -22.12227,-22.08814 -36.21691,-30.10223 z"
   id="path22"
   style="stroke-width:1.17267" />
<path
   fill="#eea502"
   opacity="1"
   stroke="none"
   d="m 349.56073,116.63861 c 12.61931,1.65583 25.24631,3.67661 37.79001,6.12454 6.01357,1.17359 11.86942,3.15549 18.1985,4.9634 -4.9667,4.1649 -10.61154,7.82227 -15.61789,12.20845 -4.14137,3.62835 -7.5288,8.11725 -11.98813,12.29284 -5.23316,-1.06241 -9.76453,-2.06804 -14.21517,-3.3531 -6.35454,-1.83477 -12.65004,-3.87422 -18.97074,-5.82624 3.68436,-8.23683 5.7593,-16.77085 4.80342,-26.40989 z"
   id="path23"
   style="stroke-width:1.17267" />
<path
   fill="#eeac03"
   opacity="1"
   stroke="none"
   d="m 637.92436,154.05353 c 11.70463,1.7453 23.48598,3.87775 35.25853,6.05824 2.46738,0.45698 4.90199,1.09088 7.82486,1.70789 -2.15596,12.14134 -3.4007,24.27101 -1.46706,37.03922 -7.50392,-0.28541 -14.46288,-1.06702 -21.42183,-1.84861 -2.08196,-5.01399 -3.94025,-10.1358 -6.29397,-15.01878 -4.4588,-9.25029 -9.20181,-18.36356 -13.90053,-27.93796 z"
   id="path24"
   style="stroke-width:1.17267" />
<path
   fill="#ee9905"
   opacity="1"
   stroke="none"
   d="m 425.83888,186.06818 c -5.60052,0.0264 -11.13475,0.17534 -16.43834,-0.85875 -9.83052,-1.91686 -19.5262,-4.52524 -29.48967,-7.28019 30.31485,-9.06672 61.16414,-9.74532 92.35753,-3.81036 -7.73107,1.72052 -15.50038,3.28777 -23.1825,5.20445 -7.73736,1.93048 -15.38805,4.20818 -23.24702,6.74485 z"
   id="path25"
   style="stroke-width:1.17267" />
<path
   fill="#ee9e05"
   opacity="1"
   stroke="none"
   d="m 658.17668,197.42239 c 6.90113,0.36947 13.86009,1.15108 21.31763,1.93371 2.0874,17.10289 13.06068,27.11235 28.27566,35.54238 -11.33314,0.71678 -21.35585,1.57434 -31.39014,1.74618 -1.52009,0.026 -3.70941,-2.87915 -4.54261,-4.86709 -4.71067,-11.24042 -9.10239,-22.61448 -13.66054,-34.35518 z"
   id="path26"
   style="stroke-width:1.17267" />
<path
   fill="#ee9b02"
   opacity="1"
   stroke="none"
   d="m 344.44858,143.29041 c 6.62943,1.71011 12.92493,3.74956 19.27947,5.58433 4.45064,1.28506 8.98201,2.29069 13.923,3.60318 -2.46956,5.86467 -5.38483,11.54727 -9.03389,17.33081 -7.51957,-1.42352 -14.35757,-2.75114 -21.07529,-4.53228 -5.80683,-1.5396 -11.47713,-3.59447 -17.20776,-5.42158 4.60191,-5.44085 9.20386,-10.88171 14.11447,-16.56446 z"
   id="path27"
   style="stroke-width:1.17267" />
<path
   fill="#eed205"
   opacity="1"
   stroke="none"
   d="m 495.0712,52.777495 c -1.42286,0.807886 -3.18226,1.999876 -4.66235,1.719135 -10.37707,-1.968309 -20.69647,-4.240588 -31.5193,-6.437468 3.47557,-10.838105 7.4361,-21.654385 11.716,-33.342911 5.79119,14.378062 13.15691,27.32565 24.46565,38.061244 z"
   id="path28"
   style="stroke-width:1.17267" />
<path
   fill="#ee9905"
   opacity="1"
   stroke="none"
   d="m 474.30104,201.54041 c -0.50259,-4.51018 -4.17772,-3.94603 -6.77987,-4.4777 -10.41805,-2.12856 -20.88955,-3.99735 -31.29657,-6.17594 -1.96761,-0.41191 -3.73121,-1.79813 -5.72845,-3.08084 12.10976,0.13607 24.39046,0.22484 36.60051,1.19867 15.7238,1.25402 31.23658,3.84076 45.56182,11.01218 -0.009,0.5299 -0.0186,1.05978 -0.0279,1.58968 -12.59437,0 -25.18877,0 -38.32954,-0.066 z"
   id="path29"
   style="stroke-width:1.17267" />
<path
   fill="#ee9500"
   opacity="1"
   stroke="none"
   d="m 329.96916,160.06083 c 6.09558,1.62115 11.76588,3.67602 17.57271,5.21562 6.71772,1.78114 13.55572,3.10876 20.80359,4.81632 -1.43998,3.37308 -3.34198,6.56311 -5.04614,10.17067 0.19783,0.41755 0.2357,0.3583 -0.0674,0.0732 -0.51218,-0.10988 -0.72126,0.0654 -0.93032,0.24071 -13.45223,-2.73019 -26.92101,-5.38348 -40.34062,-8.26537 -2.26888,-0.48725 -4.32632,-1.95896 -6.56764,-3.43844 4.67947,-3.17732 9.44517,-5.89205 14.57584,-8.81269 z"
   id="path30"
   style="stroke-width:1.17267" />
<path
   fill="#fffffe"
   opacity="1"
   stroke="none"
   d="m 362.46656,180.82908 c 0.0441,-0.42703 0.25316,-0.60232 0.78255,-0.52312 0.008,0.42794 -0.30494,0.60139 -0.78255,0.52312 z"
   id="path31"
   style="stroke-width:1.17267" />
<path
   fill="#fff9f5"
   opacity="1"
   stroke="none"
   d="m 754.40188,301.51282 c 4.32717,-1.0437 8.57847,-1.78281 12.84903,-1.91945 0.51326,-0.0164 1.28676,3.20399 1.63139,4.98387 0.16004,0.82643 -0.39437,2.57467 -0.6675,2.58344 -3.78128,0.12167 -7.64042,0.39981 -11.31411,-0.27138 -1.11686,-0.20409 -1.72681,-3.18229 -2.49881,-5.37648 z"
   id="path32"
   style="stroke-width:1.17267" />
<path
   fill="#fff9f5"
   opacity="1"
   stroke="none"
   d="m 259.15672,281.00881 c 7.87352,0.0641 4.95198,5.32325 5.32158,9.04567 -13.25701,2.31609 -16.78274,-0.78285 -13.51622,-8.4215 2.43188,-0.17544 5.07955,-0.36642 8.19464,-0.62417 z"
   id="path33"
   style="stroke-width:1.17267" />
<path
   fill="#fffcfa"
   opacity="1"
   stroke="none"
   d="m 868.18734,286.13368 c 0.067,-3.47495 1.12335,-5.21765 4.57675,-4.92237 3.05887,0.26158 6.15769,0.0549 9.74534,0.0549 0.18761,3.39029 0.34356,6.20872 0.54577,9.86351 -4.15683,-0.30997 -7.83568,-0.27674 -11.35807,-1.00247 -1.35698,-0.2796 -2.35851,-2.28496 -3.50979,-3.99351 z"
   id="path34"
   style="stroke-width:1.17267" />
<path
   fill="#fffefe"
   opacity="1"
   stroke="none"
   d="m 133.56455,301.0293 c -0.006,-6.72515 -0.006,-12.90386 -0.006,-19.32761 4.50462,0 8.45025,0 12.75502,0 0,8.88775 0,17.33848 0,25.74833 -8.37063,2.3166 -12.21561,0.508 -12.74966,-6.42072 z"
   id="path35"
   style="stroke-width:1.17267" />
<path
   fill="#fff9f5"
   opacity="1"
   stroke="none"
   d="m 646.11634,308.12063 c -2.23813,-0.23401 -3.98548,-0.70705 -5.71621,-0.65265 -5.94626,0.18702 -6.90966,-2.8765 -5.42076,-8.05594 4.30247,0 8.51863,0 14.24114,0 -0.96689,3.23258 -1.78627,5.97195 -3.10417,8.70859 z"
   id="path36"
   style="stroke-width:1.17267" />
</svg>
