<?xml version="1.0" encoding="UTF-8" standalone="no"?>
<!-- Created with Inkscape (http://www.inkscape.org/) -->

<svg
   width="248.12848mm"
   height="88.55471mm"
   viewBox="0 0 248.12848 88.55471"
   version="1.1"
   id="svg1"
   inkscape:version="1.3.2 (091e20e, 2023-11-25, custom)"
   sodipodi:docname="rysunek.svg"
   inkscape:export-filename="rysunek.svg"
   inkscape:export-xdpi="135.82951"
   inkscape:export-ydpi="135.82951"
   xmlns:inkscape="http://www.inkscape.org/namespaces/inkscape"
   xmlns:sodipodi="http://sodipodi.sourceforge.net/DTD/sodipodi-0.dtd"
   xmlns="http://www.w3.org/2000/svg"
   xmlns:svg="http://www.w3.org/2000/svg">
  <sodipodi:namedview
     id="namedview1"
     pagecolor="#ffffff"
     bordercolor="#000000"
     borderopacity="0.25"
     inkscape:showpageshadow="2"
     inkscape:pageopacity="0.0"
     inkscape:pagecheckerboard="0"
     inkscape:deskcolor="#d1d1d1"
     inkscape:document-units="mm"
     inkscape:zoom="1.0449705"
     inkscape:cx="520.11036"
     inkscape:cy="252.16022"
     inkscape:window-width="2560"
     inkscape:window-height="1369"
     inkscape:window-x="-8"
     inkscape:window-y="-8"
     inkscape:window-maximized="1"
     inkscape:current-layer="layer1"
     inkscape:export-bgcolor="#ffffff00" />
  <defs
     id="defs1" />
  <g
     inkscape:label="Warstwa 1"
     inkscape:groupmode="layer"
     id="layer1"
     transform="translate(25.765627,-4.6155212)">
    <path
       fill="#ee8c02"
       opacity="1"
       stroke="none"
       d="m 98.661646,59.611149 c -7.174074,0.11172 -14.352328,0.10638 -21.52129,0.3617 -11.704219,0.41686 -23.419524,0.82526 -34.927396,3.34397 -0.228553,0.05 -0.477629,0.006 -0.850562,0.006 3.741277,-4.84068 6.558169,-9.67944 1.51007,-15.34563 0.361106,-0.1684 0.668097,-0.26394 0.944861,-0.20852 7.630062,1.52777 15.253719,3.08759 22.885625,4.60598 5.682226,1.13048 11.379792,2.18396 17.060494,3.32186 4.367054,0.87476 8.726258,1.7934 13.06847,2.78246 0.652372,0.1486 1.828678,-0.20219 1.829728,1.13191 z"
       id="path2"
       style="stroke-width:0.310269" />
    <path
       fill="#eebf01"
       opacity="1"
       stroke="none"
       d="m 75.846433,24.828799 c 3.145411,-1.49941 6.150652,-3.20883 8.829381,-5.775184 0.725556,0.0737 1.226137,0.182274 1.728131,0.283894 6.073804,1.2295 12.147513,2.45945 18.221845,3.68637 9.13732,1.8456 18.2737,3.69598 27.41806,5.50595 0.34814,0.0689 0.77546,-0.26217 1.16588,-0.40686 1.49984,1.54084 2.95093,3.13317 4.51122,4.61015 2.20403,2.08635 5.02949,2.61654 7.91359,3.04746 2.89573,0.43267 5.61455,-0.27663 8.35784,-0.96465 0.52803,-0.13243 1.06587,-0.22571 1.69664,-0.0826 -1.73981,1.11393 -3.47961,2.22787 -5.36469,3.29123 -0.59719,-0.26806 -1.02774,-0.58876 -1.50428,-0.6875 -6.98313,-1.44689 -13.97067,-2.87305 -20.96475,-4.26596 -0.40811,-0.0813 -0.88118,0.16348 -1.32401,0.25651 -3.87934,-1.3568 -7.68673,-2.99479 -11.65352,-4.00989 -7.48941,-1.91655 -15.111893,-2.04556 -22.743707,-0.72522 -0.406879,0.0704 -0.820478,0.10188 -1.416259,0.0402 -0.672941,-0.36234 -1.13502,-0.7286 -1.652873,-0.84349 -1.737146,-0.38539 -3.50579,-0.6299 -5.24093,-1.02301 -2.668532,-0.60459 -5.319271,-1.28764 -7.977568,-1.9374 z"
       id="path3"
       style="stroke-width:0.310269" />
    <path
       fill="#ff9553"
       opacity="1"
       stroke="none"
       d="m -10.785298,65.230449 c 2.258709,-0.0328 4.371651,-0.0328 6.412428,-0.0328 0.130847,0.18262 0.236834,0.26233 0.243316,0.34945 0.244009,3.27981 0.519599,6.5583 0.679614,9.8424 0.03098,0.63581 -0.41166,1.28872 -0.604197,1.94305 -0.200099,0.68003 -0.471334,1.36398 -0.518036,2.05921 -0.103754,1.54456 -0.145965,3.09897 -0.101073,4.64611 0.04014,1.3834 -0.335918,2.13401 -1.912207,2.06118 -1.155609,-0.0534 -2.324731,0.18581 -3.415778,0.28787 -0.711087,-1.46674 0.473496,-3.17526 -1.065706,-4.40924 -0.08568,0.38036 -0.147879,0.62138 -0.193755,0.86547 -0.622218,3.31062 -0.752034,3.42344 -4.076608,3.45744 -2.737678,0.028 -5.475404,0.0673 -8.213126,0.069 -1.65308,10e-4 -2.200802,-0.58798 -2.20664,-2.25529 -5.29e-4,-0.15493 -0.02646,-0.31914 0.0146,-0.46332 0.268311,-0.94221 0.438333,-2.62088 0.851119,-2.68413 1.385444,-0.21228 2.866193,-0.75568 4.313343,0.59917 0.703304,0.65844 2.394362,0.29865 3.637748,0.29265 0.14114,-5.2e-4 0.436786,-0.72925 0.369199,-1.06086 -0.05585,-0.27406 -0.523387,-0.62055 -0.841926,-0.65913 -1.945375,-0.2357 -3.900394,-0.39154 -5.851992,-0.57619 -1.98232,-0.18755 -2.485711,-0.74172 -2.457654,-2.76692 0.01788,-1.29063 0.04034,-2.58314 0.127674,-3.87026 0.07574,-1.11626 0.616074,-1.81237 1.853413,-1.84075 3.302758,-0.0757 6.605,-0.26837 9.906861,-0.25614 2.262302,0.008 3.591462,2.43846 2.552503,4.40905 -0.586178,1.11182 -3.904075,1.21011 -4.853722,0.0404 -1.079309,-1.32947 -2.317822,-0.25677 -3.465049,-0.34109 -0.224461,-0.0165 -0.507187,0.75976 -0.77021,1.18189 3.047213,1.37809 6.569178,-0.31004 9.371846,2.51801 0.275113,-1.23827 0.731942,-2.34829 0.721552,-3.45392 -0.01888,-2.00882 0.389656,-4.01937 -0.743289,-6.02904 -0.547511,-0.97121 0.02474,-2.57367 0.235753,-3.92315 z"
       id="path4"
       style="stroke-width:0.310269" />
    <path
       fill="#ee9303"
       opacity="1"
       stroke="none"
       d="m 98.80558,59.633929 c -0.144984,-1.35687 -1.32129,-1.00608 -1.973662,-1.15468 -4.342212,-0.98907 -8.701416,-1.90771 -13.06847,-2.78247 -5.680702,-1.1379 -11.378268,-2.19137 -17.060494,-3.32186 -7.631906,-1.51838 -15.255563,-3.0782 -22.885625,-4.60597 -0.276764,-0.0554 -0.583755,0.0401 -0.987052,0.11018 -0.557186,-0.28735 -1.003974,-0.61958 -1.450763,-0.95182 0.07569,-0.14087 0.151389,-0.28174 0.227079,-0.42262 2.99956,-0.3744 6.123635,0.0642 9.134869,-1.08967 0.718161,0.37939 1.262525,0.76878 1.862833,0.8977 3.550605,0.7625 7.11422,1.46452 10.717107,2.25349 0.126367,0.0207 0.209084,-0.0252 0.28726,-0.063 -0.0046,0.008 -0.01458,0.0238 -0.01458,0.0238 1.344091,-0.2696 2.68819,-0.5392 4.215537,-0.71094 2.763428,0.71179 5.328743,1.40192 7.929735,1.90909 1.403241,0.2736 2.867506,0.23418 4.304247,0.33598 0.333584,0.0579 0.667154,0.1157 1.15747,0.30806 0.648266,0.38233 1.114885,0.7491 1.635482,0.85809 2.753524,0.57641 5.524108,1.07087 8.280551,1.63405 0.688485,0.14067 1.660863,-0.009 1.649274,1.16725 -2.802829,0.23919 -5.605645,0.47837 -8.408474,0.71756 2.31e-4,0.0518 2.65e-4,0.10367 5.3e-4,0.15551 5.793655,0.34095 11.595737,0.57883 17.378616,1.05152 5.91057,0.48313 11.81095,1.12444 17.69984,1.82965 5.82597,0.69767 11.50995,2.04845 16.99457,4.20048 -12.44771,-1.69649 -24.95356,-2.19168 -37.626041,-2.3494 z"
       id="path5"
       style="stroke-width:0.310269" />
    <path
       fill="#ff9553"
       opacity="1"
       stroke="none"
       d="m 105.20833,75.188369 c -0.0479,4.80292 -0.0723,9.45134 -0.1488,14.0989 -0.0519,3.1504 -0.86852,3.93335 -3.99352,3.8805 -2.580084,-0.0436 -5.160282,-0.12237 -7.738313,-0.2343 -2.006312,-0.0871 -3.058605,-1.2569 -3.037179,-3.26682 0.02923,-2.74144 2.49482,-4.20483 4.99087,-2.92728 0.260694,0.13342 0.491106,0.54659 0.527227,0.85443 0.08817,0.75136 0.236453,1.39624 1.182119,1.18265 0.88859,-0.2007 2.108099,0.016 2.202862,-1.41857 0.03974,-0.60164 0.0066,-1.20809 0.0066,-2.01749 -1.992828,0.14931 -3.823533,0.31903 -5.658083,0.41535 -2.120379,0.11133 -2.933115,-0.66698 -2.990389,-2.75427 -0.09773,-3.56097 -0.198226,-7.12186 -0.293151,-10.6829 -0.01336,-0.50202 -0.0019,-1.0047 -0.0019,-1.43515 0.229833,-0.11991 0.315913,-0.19788 0.409996,-0.20916 4.345538,-0.52097 4.853543,-0.10975 5.115115,4.23841 0.08991,1.49447 0.06309,2.99668 0.177795,4.48857 0.04931,0.64119 -0.09773,1.63705 1.081715,1.43292 0.968523,-0.16763 2.201772,-0.0663 2.277276,-1.55273 0.102127,-2.01032 0.18532,-4.02181 0.254291,-6.03356 0.06502,-1.89645 0.500859,-2.34718 2.390729,-2.42562 1.01826,-0.0423 2.03568,-0.10471 3.24596,-0.16813 0,1.52339 0,2.95138 -10e-4,4.53425 z"
       id="path6"
       style="stroke-width:0.310269" />
    <path
       fill="#eec902"
       opacity="1"
       stroke="none"
       d="m 133.16043,28.039379 c -0.34112,0.22828 -0.76844,0.55936 -1.11658,0.49045 -9.14436,-1.80997 -18.28074,-3.66035 -27.41806,-5.50595 -6.074332,-1.22692 -12.148041,-2.45687 -18.221845,-3.68637 -0.501994,-0.10162 -1.002575,-0.210193 -1.634315,-0.324465 1.16069,-1.83444 2.451899,-3.659951 3.967551,-5.527617 2.959677,0.53333 5.690018,1.134537 8.435618,1.655319 0.391607,0.07428 0.857115,-0.241102 1.288423,-0.376141 4.104228,3.97905 9.315708,5.367794 14.735468,6.024974 4.783,0.57997 9.00124,-1.18878 12.85041,-3.911173 1.06272,-0.751628 2.07929,-1.568538 3.11701,-2.35549 0.11635,0.07862 0.23273,0.157249 0.34908,0.235873 -0.19767,0.878172 -0.33395,1.775776 -0.6046,2.630847 -0.79279,2.504673 -0.81395,4.836763 1.12089,6.913063 1.08477,1.16407 2.05811,2.43197 3.13095,3.73668 z"
       id="path7"
       style="stroke-width:0.310269" />
    <path
       fill="#ff9452"
       opacity="1"
       stroke="none"
       d="m 145.6302,71.773799 c 1.2e-4,-2.20995 1.2e-4,-4.26481 1.2e-4,-6.42094 2.18204,-0.12086 4.16238,-0.23055 6.19085,-0.34291 0,3.42619 0,6.71231 0,10.35116 1.30117,-1.10928 2.49309,-2.09781 3.6539,-3.12163 1.66927,-1.4723 1.65931,-1.48299 3.18858,0.0671 0.32665,0.33112 0.66334,0.65264 0.98311,0.99021 1.15685,1.2213 1.1346,2.02727 -0.10548,3.13441 -0.8419,0.75164 -1.70453,1.48007 -2.6444,2.29377 1.01622,0.91015 1.92916,1.74083 2.85669,2.55489 0.93619,0.82166 0.95209,1.64543 0.0532,2.5004 -0.89475,0.85105 -1.78564,1.70616 -2.77054,2.64774 -1.80545,-1.52599 -3.5608,-3.00962 -5.72098,-4.83543 0,1.27372 -0.0193,2.10823 0.005,2.94149 0.0296,1.01419 -0.37566,1.51076 -1.45113,1.54007 -1.33152,0.0363 -2.65943,0.20392 -4.23902,0.33566 0,-4.91611 0,-9.69852 1e-4,-14.63602 z"
       id="path8"
       style="stroke-width:0.310269" />
    <path
       fill="#ff9452"
       opacity="1"
       stroke="none"
       d="m 167.515,76.710149 c 0.71825,-0.011 1.28687,-0.0274 1.8554,-0.0245 1.11771,0.006 1.4911,-0.52738 1.11373,-1.75157 -1.29482,0.12058 -2.49205,-0.53814 -4.03097,0.3609 -1.05092,0.61394 -2.88,0.0109 -4.32329,-0.25421 -0.30645,-0.0563 -0.72975,-1.08041 -0.61202,-1.53146 0.3122,-1.19617 0.83947,-2.54147 2.3064,-2.59101 3.51141,-0.11861 7.02982,-0.0993 10.54366,-0.037 1.2035,0.0213 1.84476,0.86551 1.87292,2.06556 0.0957,4.08145 0.16612,8.16351 0.24565,12.24533 0.002,0.10331 0.0411,0.24175 -0.01,0.30494 -1.04915,1.2988 -1.33323,2.59668 -0.032,3.91183 -0.33445,0.32875 -0.61831,0.84924 -1.01209,0.95318 -1.73165,0.45705 -3.59062,-1.37162 -3.3227,-3.17872 0.0364,-0.24524 0.0262,-0.4974 0.0421,-0.8458 -2.17251,0 -4.2832,0.0307 -6.39224,-0.0148 -0.87036,-0.0187 -1.76736,-0.0954 -2.59868,-0.33301 -1.26998,-0.36306 -1.99687,-1.19922 -1.84103,-2.64764 0.15462,-1.43705 0.20312,-2.88525 0.34098,-4.32446 0.13997,-1.46102 0.987,-2.22622 2.44792,-2.27279 1.08476,-0.0346 2.17099,-0.0228 3.40621,-0.0349 m -0.51259,3.91568 c 0.22281,0.45182 0.3842,1.23981 0.6797,1.29381 0.972,0.17758 1.99306,0.10399 2.99352,0.0718 0.0723,-0.002 0.21896,-0.46488 0.17661,-0.68354 -0.0912,-0.47092 -0.29584,-1.323 -0.43164,-1.31864 -1.12991,0.0361 -2.25474,0.2317 -3.41819,0.63657 z"
       id="path9"
       style="stroke-width:0.310269" />
    <path
       fill="#ff9452"
       opacity="1"
       stroke="none"
       d="m 213.71804,68.949119 c -0.10195,2.19738 -0.19961,4.24502 -0.3155,6.67474 2.02533,-1.71533 3.77348,-3.1959 5.50837,-4.66525 0.12929,0.0281 0.25493,0.0176 0.32156,0.0753 4.04902,3.50658 4.04771,3.50622 0.181,7.09961 -0.18466,0.17161 -0.33188,0.38348 -0.55996,0.651 0.97948,0.8925 1.91122,1.77457 2.87983,2.61411 0.84892,0.73581 0.79667,1.41586 0.0983,2.24675 -2.57384,3.06248 -2.55927,3.07481 -5.58274,0.52638 -0.89267,-0.75244 -1.78504,-1.50526 -2.67756,-2.2579 -0.15526,0.0426 -0.31055,0.0852 -0.46582,0.12782 0,0.94926 0.0724,1.90674 -0.034,2.84389 -0.0455,0.40075 -0.42069,1.04325 -0.72028,1.08888 -1.51681,0.23108 -3.05799,0.30207 -4.71094,0.43915 0,-7.0832 0,-14.02398 0,-21.07363 1.9957,-0.10436 3.97458,-0.20784 6.08204,-0.31804 0,1.32975 0,2.5536 -0.004,3.92718 z"
       id="path10"
       style="stroke-width:0.310269" />
    <path
       fill="#ff9553"
       opacity="1"
       stroke="none"
       d="m 37.234814,80.735309 c -0.875634,-0.0187 -1.612252,-0.12106 -2.316187,-0.0122 -0.391586,0.0606 -0.728715,0.4732 -1.090382,0.72718 0.322268,0.30072 0.65935,0.87002 0.964094,0.8532 1.026639,-0.0566 2.036852,-0.4352 3.062494,-0.47962 1.425514,-0.0618 2.865104,0.0123 4.284416,0.16266 0.271698,0.0288 0.629727,0.65756 0.687282,1.04796 0.252087,1.70998 -1.076471,3.21527 -2.815998,3.24224 -3.046936,0.0472 -6.094258,0.0838 -9.141507,0.0922 -1.901444,0.005 -2.619846,-0.70472 -2.669484,-2.59299 -0.08548,-3.25162 -0.171622,-6.50351 -0.214953,-9.75586 -0.02889,-2.16661 1.231524,-3.39937 3.343238,-3.34911 2.735498,0.0651 5.471273,0.12466 8.206009,0.21443 2.675245,0.0878 3.675306,1.16218 3.53962,3.78819 -0.06388,1.23612 -0.170852,2.47036 -0.276947,3.70386 -0.139595,1.62315 -0.965743,2.38183 -2.620198,2.39763 -0.929415,0.009 -1.859201,-0.0222 -2.941497,-0.0398 m -1.371145,-5.64555 c -0.70053,0.0505 -1.401059,0.10107 -2.044494,0.14748 -0.864267,2.02106 0.06858,2.84099 3.576167,2.22819 -0.09779,-0.98489 0.6752,-2.37636 -1.531673,-2.37567 z"
       id="path11"
       style="stroke-width:0.310269" />
    <path
       fill="#ff9553"
       opacity="1"
       stroke="none"
       d="m 206.57626,76.330469 c -0.30046,5.03865 -1.37387,4.4874 -4.93573,4.41847 -1.085,-0.021 -2.17626,-0.11556 -3.25147,-0.023 -0.36244,0.0312 -0.68404,0.53683 -1.02432,0.82562 0.31027,0.26466 0.63821,0.77182 0.92766,0.75074 1.07953,-0.0786 2.14286,-0.45563 3.219,-0.48653 1.42258,-0.0409 2.86827,0.0435 4.2657,0.29064 0.34428,0.0609 0.84582,1.03201 0.74524,1.46024 -0.26576,1.13164 -0.65339,2.54665 -2.05294,2.61219 -3.60949,0.16901 -7.23043,0.18508 -10.84415,0.11881 -1.15694,-0.0212 -1.84179,-0.96174 -1.85865,-2.12724 -0.0531,-3.66845 -0.0834,-7.3385 -0.0308,-11.00661 0.0214,-1.49139 1.27411,-2.49808 2.82838,-2.4726 2.89251,0.0474 5.7847,0.11379 8.67707,0.17007 2.537,0.0494 3.49061,1.06207 3.40448,3.62204 -0.0191,0.56815 -0.0414,1.13619 -0.0695,1.84715 m -9.45279,0.22709 c 0.30783,0.32254 0.57282,0.85312 0.93186,0.9271 0.93196,0.19202 1.90532,0.18323 3.00515,0.26524 -0.0535,-0.967 -0.0948,-1.71271 -0.1444,-2.60972 -0.94924,0 -1.76913,0.0547 -2.57846,-0.0145 -0.91371,-0.0781 -1.19322,0.38297 -1.21415,1.43189 z"
       id="path12"
       style="stroke-width:0.310269" />
    <path
       fill="#ff9452"
       opacity="1"
       stroke="none"
       d="m -2.92338,83.639669 c -0.06814,-3.49271 -0.147264,-6.85049 -0.15713,-10.20847 -0.0053,-1.8175 0.885819,-2.66661 2.66378996,-2.65517 3.10024504,0.0199 6.20052604,0.0507 9.30043764,0.0994 2.0111484,0.0316 2.9750514,0.97047 2.9738164,2.92838 -0.0021,3.25553 -0.02882,6.51126 -0.07556,9.76646 -0.02817,1.96405 -0.879817,2.77943 -2.8856969,2.79214 -2.9971231,0.019 -5.9944521,0.0217 -8.99162314,0.0112 -2.11271696,-0.007 -2.58877896,-0.46341 -2.82803396,-2.73392 m 5.682546,-3.12592 c 0.13988,1.68865 1.157201,2.16717 3.37193,1.55424 0,-2.22511 0,-4.46103 0,-6.81258 -1.138971,0 -2.182921,0 -3.374768,0 0,1.69962 0,3.3344 0.0028,5.25834 z"
       id="path13"
       style="stroke-width:0.310269" />
    <path
       fill="#ff9452"
       opacity="1"
       stroke="none"
       d="m 134.74792,75.372129 c -0.94562,0.0843 -1.77029,0.13457 -2.5924,0.10739 -1.106,-0.0366 -2.28949,-0.0832 -2.42662,-1.56272 -0.11849,-1.27859 1.32901,-2.98439 2.5556,-3.02269 1.91027,-0.0597 3.82321,-0.0353 5.73504,-0.0417 1.39508,-0.005 2.79277,-0.0545 4.18463,0.0125 1.5693,0.0755 2.35376,0.90975 2.38493,2.4556 0.0781,3.87295 0.12196,7.74659 0.20134,11.61951 0.0205,0.99657 -0.26179,1.50477 -1.40699,1.47051 -3.30482,-0.0989 -6.61285,-0.0864 -9.91909,-0.14669 -0.6145,-0.0112 -1.26082,-0.0599 -1.83271,-0.26112 -1.27838,-0.44976 -2.29024,-1.09045 -1.98986,-2.78897 0.23236,-1.31394 0.18532,-2.67503 0.3122,-4.01045 0.16485,-1.73479 0.92788,-2.42056 2.71413,-2.4618 1.65291,-0.0382 3.31158,0.0261 4.95691,-0.0979 0.46313,-0.0349 0.88828,-0.57382 1.33085,-0.88155 -0.42807,-0.308 -0.85273,-0.86654 -1.28493,-0.87241 -0.9316,-0.0127 -1.86707,0.25872 -2.92303,0.48239 m 3.75439,6.87403 c 0.21679,-0.7248 0.43359,-1.44959 0.68941,-2.30488 -1.51408,0 -2.62961,0 -3.76797,0 -0.39394,1.3704 -0.13904,2.18095 1.43425,2.13147 0.45792,-0.0144 0.92024,0.11076 1.64431,0.17341 z"
       id="path14"
       style="stroke-width:0.310269" />
    <path
       fill="#eeb203"
       opacity="1"
       stroke="none"
       d="m 75.734797,24.848059 c 2.769933,0.6305 5.420672,1.31355 8.089204,1.91814 1.73514,0.39311 3.503784,0.63762 5.24093,1.02301 0.517853,0.11489 0.979932,0.48115 1.51887,0.84178 -4.160957,1.48588 -8.387183,2.82178 -12.575744,4.26687 -1.052219,0.36302 -1.983605,1.07631 -3.182255,1.59805 -1.78001,-0.45809 -3.329371,-0.98247 -4.920461,-1.29298 -3.318854,-0.64768 -6.659748,-1.18235 -9.991587,-1.76345 -0.295945,-2.11892 -1.701441,-3.40973 -3.303003,-4.62482 -1.035428,-0.78558 -1.909712,-1.78355 -2.733659,-2.9257 7.22658,2.42041 14.388793,3.87101 21.857705,0.9591 z"
       id="path15"
       style="stroke-width:0.310269" />
    <path
       fill="#ff9553"
       opacity="1"
       stroke="none"
       d="m 47.838295,86.348529 c -0.559419,-0.008 -0.977927,0.0246 -1.383752,-0.0325 -1.972482,-0.27728 -2.557656,-0.93652 -2.581813,-2.92361 -0.03827,-3.14855 -0.07093,-6.29728 -0.08124,-9.44602 -0.0087,-2.65715 0.751544,-3.30198 3.44012,-3.20489 2.733299,0.0987 5.470935,0.07 8.20569,0.13725 2.741112,0.0674 3.680452,1.17474 3.349389,3.86265 -0.399378,3.24258 -0.401378,3.17962 -3.615989,3.28176 -1.254892,0.0399 -1.882203,-0.2622 -2.057508,-1.57814 -0.29546,-2.21782 -2.041856,-1.0116 -3.439359,-1.4664 0,2.20386 -0.03822,4.19165 0.04092,6.17476 0.01196,0.29956 0.581879,0.83079 0.874445,0.8179 0.901777,-0.0398 1.972741,-0.0406 2.647151,-0.52099 0.938355,-0.66841 4.80441,-1.15294 5.050559,-0.22317 0.309579,1.16935 0.28057,2.57243 -0.08719,3.71915 -0.198151,0.61784 -1.387401,1.24041 -2.166371,1.29079 -2.673966,0.17299 -5.364229,0.0942 -8.195053,0.11143 z"
       id="path16"
       style="stroke-width:0.310269" />
    <path
       fill="#ff9553"
       opacity="1"
       stroke="none"
       d="m 24.766314,86.382229 c -1.013296,0.002 -1.882453,0.002 -2.916786,0.002 0,-3.73431 0,-7.3307 0,-11.07348 -0.865928,0.0735 -1.561856,0.18934 -2.255715,0.17804 -1.000858,-0.0163 -1.331355,0.3949 -1.308725,1.39873 0.06059,2.68717 0.02212,5.37662 0.0173,8.06516 -5.29e-4,0.302 -0.03764,0.60393 -0.0657,1.02447 -1.792811,0.15258 -3.524043,0.29992 -5.396251,0.45926 0,-5.20092 0,-10.2809 0,-15.10403 4.101092,-0.16666 8.188772,-0.34962 12.277892,-0.49104 1.757569,-0.0608 2.371058,0.49002 2.366129,2.26079 -0.0108,3.87589 -0.100783,7.75163 -0.16849,11.62726 -0.02898,1.65912 -1.208442,1.67576 -2.54967,1.65253 z"
       id="path17"
       style="stroke-width:0.310269" />
    <path
       fill="#ff9553"
       opacity="1"
       stroke="none"
       d="m 86.529482,86.390029 c -0.857327,5.3e-4 -1.568577,5.3e-4 -2.460421,5.3e-4 0,-3.78185 0,-7.42229 0,-11.06991 -3.651771,0.25429 -3.651782,0.25429 -3.651782,3.72609 0,2.26461 1.1e-5,4.52923 1.1e-5,6.94842 -1.888776,0.14478 -3.65555,0.28021 -5.526247,0.42361 0,-5.24491 0,-10.28558 0,-15.05186 4.23948,-0.19059 8.430001,-0.35155 12.616686,-0.58219 1.449742,-0.0799 2.030153,0.7154 2.046345,1.93467 0.05218,3.92739 0.05413,7.85674 -0.01386,11.78377 -0.02715,1.56681 -0.574246,1.85316 -3.01072,1.88689 z"
       id="path18"
       style="stroke-width:0.310269" />
    <path
       fill="#ff9553"
       opacity="1"
       stroke="none"
       d="m 122.24349,86.377829 c -2.0648,-0.007 -3.97488,-0.0399 -5.884,-0.0111 -1.25837,0.019 -1.96248,-0.45817 -1.95601,-1.79541 0.002,-0.45923 -0.0652,-0.92578 -0.15819,-1.37719 -0.27148,-1.31844 0.15726,-2.29206 1.28284,-3.04657 1.58481,-1.06235 3.12539,-2.19097 4.67751,-3.30157 0.39148,-0.28013 0.75491,-0.59946 1.13123,-0.90078 -0.0408,-0.14986 -0.0816,-0.29973 -0.12235,-0.44959 -1.67727,0 -3.35581,-0.04 -5.03144,0.0124 -1.37948,0.0432 -2.0153,-0.52207 -1.93327,-1.92394 0.0505,-0.86262 0.009,-1.73059 0.009,-2.60816 3.10071,0 6.02472,-0.0157 8.94842,0.007 1.23669,0.01 2.47231,0.12686 3.70921,0.14806 1.02641,0.0176 1.39644,0.52051 1.54749,1.51371 0.42298,2.78138 -0.35587,4.80626 -3.06778,6.03641 -1.32139,0.59941 -2.4645,1.59185 -3.58896,2.75413 1.31023,0 2.6205,-0.006 3.93069,10e-4 2.33499,0.0124 2.91343,0.56809 3.00905,2.90503 0.0249,0.60931 0.004,1.22051 0.004,2.03587 -2.15441,0 -4.2534,0 -6.50753,-1e-5 z"
       id="path19"
       style="stroke-width:0.310269" />
    <path
       fill="#ff9452"
       opacity="1"
       stroke="none"
       d="m 68.566295,86.376329 c -2.426406,-0.007 -4.698486,-0.0487 -6.968992,-0.006 -1.414259,0.0265 -1.854224,-0.57927 -2.145538,-1.97788 -0.540957,-2.59726 0.543769,-4.01952 2.643404,-5.22694 1.585815,-0.91196 2.990276,-2.1393 4.475448,-3.22627 -0.03718,-0.14688 -0.07437,-0.29374 -0.111556,-0.44062 -1.668801,0 -3.338131,0.0267 -5.006242,-0.007 -1.856526,-0.0377 -2.134505,-0.37634 -2.011997,-2.22935 0.05023,-0.75986 0.07651,-1.52129 0.113659,-2.28158 3.078954,0 6.058085,-0.014 9.036976,0.007 1.133724,0.008 2.270173,0.0618 3.398586,0.16741 0.431221,0.0404 0.966621,0.1672 1.241544,0.45682 0.879272,0.92627 0.269137,5.05318 -0.808929,5.79018 -1.829408,1.25063 -3.6728,2.48081 -5.507246,3.72412 -0.02177,0.0148 -0.0028,0.0898 -0.0028,0.31012 1.312408,0 2.62649,-0.005 3.940519,10e-4 2.369198,0.0116 2.885715,0.51427 3.000862,2.89013 0.02976,0.61367 0.07476,1.22661 0.125727,2.04934 -1.779698,0 -3.519114,0 -5.413515,-2.6e-4 z"
       id="path20"
       style="stroke-width:0.310269" />
    <path
       fill="#ff9452"
       opacity="1"
       stroke="none"
       d="m 183.98569,81.993319 c 1.29889,0.43911 1.94488,0.0742 2.21205,-1.2013 0.0798,-0.38105 0.70616,-0.8746 1.12623,-0.92148 3.37108,-0.37628 4.62523,1.26982 3.48434,4.49573 -0.45523,1.28719 -1.26443,2.04496 -2.75955,2.01288 -2.53222,-0.0543 -5.06679,0.0116 -7.60035,0.007 -1.66543,-0.003 -2.32769,-0.63268 -2.35236,-2.33931 -0.0351,-2.42966 0.0477,-4.8618 -0.0268,-7.2896 -0.0217,-0.70525 -0.31202,-1.45099 -0.65135,-2.08621 -0.49777,-0.93183 -0.29349,-2.88666 0.44319,-3.67055 0.29108,-0.30976 0.47771,-0.75545 0.60402,-1.17196 0.13312,-0.439 0.13988,-0.91675 0.19733,-1.37812 0.0496,-0.3981 0.0928,-0.79698 0.13643,-1.17485 4.9297,-0.48271 4.69987,-0.24586 4.95455,3.68992 1.35339,0 2.73533,-0.0541 4.11121,0.0141 1.61842,0.0802 2.32626,0.92686 2.24059,2.51134 -0.0893,1.6511 -0.78452,2.3279 -2.40969,2.28478 -1.28015,-0.034 -2.55906,-0.11522 -3.99326,-0.18276 -0.0987,1.91297 -0.21235,3.75555 -0.26712,5.59988 -0.007,0.24854 0.28134,0.50589 0.55059,0.80025 z"
       id="path21"
       style="stroke-width:0.310269" />
    <path
       fill="#eeba03"
       opacity="1"
       stroke="none"
       d="m 126.60107,33.410339 c 0.37305,-0.17578 0.84612,-0.42054 1.25423,-0.33926 6.99408,1.39291 13.98162,2.81907 20.96475,4.26596 0.47654,0.0987 0.90709,0.41944 1.41989,0.75767 -0.74839,1.84488 -1.55764,3.56899 -2.56495,5.35896 -0.84624,-0.0803 -1.4904,-0.24801 -2.14322,-0.36892 -3.11482,-0.57692 -6.23197,-1.14113 -9.34831,-1.70986 -2.6001,-3.31612 -5.85318,-5.84415 -9.58239,-7.96455 z"
       id="path22"
       style="stroke-width:0.310269" />
    <path
       fill="#eea502"
       opacity="1"
       stroke="none"
       d="m 59.906734,31.582479 c 3.338859,0.4381 6.679753,0.97277 9.998607,1.62045 1.59109,0.31051 3.140451,0.83489 4.81502,1.31323 -1.314106,1.10197 -2.807637,2.06964 -4.132234,3.23015 -1.095737,0.96001 -1.991995,2.14769 -3.171859,3.25249 -1.384607,-0.2811 -2.583532,-0.54717 -3.761097,-0.88718 -1.681305,-0.48545 -3.34699,-1.02505 -5.019342,-1.54152 0.974821,-2.17933 1.523815,-4.43729 1.270905,-6.98762 z"
       id="path23"
       style="stroke-width:0.310269" />
    <path
       fill="#eeac03"
       opacity="1"
       stroke="none"
       d="m 136.20295,41.481839 c 3.09685,0.46178 6.214,1.02599 9.32882,1.60291 0.65282,0.12091 1.29698,0.28863 2.07032,0.45188 -0.57043,3.2124 -0.89976,6.42171 -0.38816,9.79996 -1.98541,-0.0755 -3.82663,-0.28231 -5.66785,-0.48911 -0.55086,-1.32662 -1.04253,-2.68176 -1.66528,-3.97372 -1.17973,-2.44747 -2.43465,-4.85869 -3.67785,-7.39192 z"
       id="path24"
       style="stroke-width:0.310269" />
    <path
       fill="#ee9905"
       opacity="1"
       stroke="none"
       d="m 80.088661,49.952389 c -1.481804,0.007 -2.946069,0.0464 -4.349311,-0.22722 -2.600991,-0.50716 -5.166307,-1.1973 -7.802475,-1.92621 8.020804,-2.39891 16.183012,-2.57845 24.436263,-1.00816 -2.045512,0.45522 -4.101142,0.86989 -6.133703,1.37701 -2.047176,0.51077 -4.071421,1.11341 -6.150774,1.78458 z"
       id="path25"
       style="stroke-width:0.310269" />
    <path
       fill="#ee9e05"
       opacity="1"
       stroke="none"
       d="m 141.56137,52.956519 c 1.82593,0.0978 3.66715,0.30456 5.64029,0.51163 0.55229,4.52514 3.45564,7.17347 7.48127,9.40392 -2.99856,0.18965 -5.6504,0.41654 -8.30531,0.46201 -0.40219,0.007 -0.98144,-0.76178 -1.20189,-1.28775 -1.24637,-2.97403 -2.40835,-5.98342 -3.61436,-9.08981 z"
       id="path26"
       style="stroke-width:0.310269" />
    <path
       fill="#ee9b02"
       opacity="1"
       stroke="none"
       d="m 58.554145,38.634099 c 1.754036,0.45247 3.419721,0.99207 5.101026,1.47752 1.177565,0.34001 2.37649,0.60608 3.683794,0.95334 -0.653405,1.5517 -1.424737,3.05522 -2.390217,4.58545 -1.989553,-0.37664 -3.798774,-0.72791 -5.57617,-1.19917 -1.536391,-0.40735 -3.036658,-0.95104 -4.552887,-1.43446 1.217589,-1.43956 2.435188,-2.87912 3.734454,-4.38268 z"
       id="path27"
       style="stroke-width:0.310269" />
    <path
       fill="#eed205"
       opacity="1"
       stroke="none"
       d="m 98.406379,14.685891 c -0.376465,0.213753 -0.841973,0.529134 -1.23358,0.454855 -2.7456,-0.520782 -5.475941,-1.121989 -8.339481,-1.703247 0.919577,-2.867582 1.967468,-5.729389 3.099858,-8.821978 1.532252,3.804195 3.481099,7.229911 6.473203,10.07037 z"
       id="path28"
       style="stroke-width:0.310269" />
    <path
       fill="#ee9905"
       opacity="1"
       stroke="none"
       d="m 92.910941,54.046079 c -0.132977,-1.19332 -1.105355,-1.04405 -1.793841,-1.18473 -2.756442,-0.56318 -5.527026,-1.05763 -8.28055,-1.63405 -0.520597,-0.10898 -0.987216,-0.47575 -1.515653,-0.81514 3.204041,0.036 6.453309,0.0595 9.683885,0.31715 4.160255,0.3318 8.264678,1.0162 12.054898,2.91364 -0.002,0.1402 -0.005,0.2804 -0.007,0.42061 -3.33226,0 -6.664528,0 -10.141357,-0.0175 z"
       id="path29"
       style="stroke-width:0.310269" />
    <path
       fill="#ee9500"
       opacity="1"
       stroke="none"
       d="m 54.723131,43.071269 c 1.612789,0.42893 3.113056,0.97262 4.649447,1.37997 1.777396,0.47126 3.586617,0.82253 5.504283,1.27432 -0.380995,0.89246 -0.884233,1.73649 -1.335125,2.69099 0.05234,0.11047 0.06236,0.0948 -0.01783,0.0194 -0.135514,-0.0291 -0.190833,0.0173 -0.246147,0.0637 -3.559236,-0.72236 -7.12285,-1.42438 -10.673456,-2.18688 -0.600307,-0.12891 -1.144672,-0.5183 -1.737688,-0.90975 1.23811,-0.84067 2.499035,-1.55894 3.856525,-2.33169 z"
       id="path30"
       style="stroke-width:0.310269" />
    <path
       fill="#fffffe"
       opacity="1"
       stroke="none"
       d="m 63.321402,48.566209 c 0.01167,-0.11299 0.06698,-0.15937 0.207049,-0.13841 0.0021,0.11322 -0.08068,0.15912 -0.207049,0.13841 z"
       id="path31"
       style="stroke-width:0.310269" />
    <path
       fill="#fff9f5"
       opacity="1"
       stroke="none"
       d="m 167.02096,80.497109 c 1.14489,-0.27614 2.26972,-0.4717 3.39964,-0.50785 0.1358,-0.004 0.34045,0.84772 0.43164,1.31865 0.0423,0.21866 -0.10435,0.68121 -0.17661,0.68353 -1.00047,0.0322 -2.02153,0.10579 -2.99353,-0.0718 -0.2955,-0.054 -0.45688,-0.84198 -0.66114,-1.42253 z"
       id="path32"
       style="stroke-width:0.310269" />
    <path
       fill="#fff9f5"
       opacity="1"
       stroke="none"
       d="m 35.98734,75.072089 c 2.083202,0.017 1.310212,1.40845 1.408002,2.39334 -3.507584,0.6128 -4.440434,-0.20713 -3.576167,-2.22819 0.643435,-0.0464 1.343964,-0.0969 2.168165,-0.16515 z"
       id="path33"
       style="stroke-width:0.310269" />
    <path
       fill="#fffcfa"
       opacity="1"
       stroke="none"
       d="m 197.12669,76.428049 c 0.0177,-0.91942 0.29722,-1.3805 1.21094,-1.30238 0.80932,0.0692 1.62922,0.0145 2.57845,0.0145 0.0496,0.89701 0.0909,1.64272 0.1444,2.60972 -1.09983,-0.082 -2.07319,-0.0732 -3.00515,-0.26524 -0.35904,-0.074 -0.62403,-0.60456 -0.92864,-1.05662 z"
       id="path34"
       style="stroke-width:0.310269" />
    <path
       fill="#fffefe"
       opacity="1"
       stroke="none"
       d="m 2.757746,80.369179 c -0.0016,-1.77936 -0.0016,-3.41415 -0.0016,-5.11376 1.191848,0 2.235795,0 3.374766,0 0,2.35155 0,4.58747 0,6.81258 -2.214729,0.61293 -3.232047,0.1344 -3.373348,-1.69882 z"
       id="path35"
       style="stroke-width:0.310269" />
    <path
       fill="#fff9f5"
       opacity="1"
       stroke="none"
       d="m 138.37041,82.245429 c -0.59217,-0.0619 -1.05449,-0.18707 -1.51241,-0.17268 -1.57329,0.0495 -1.82819,-0.76108 -1.43425,-2.13147 1.13836,0 2.25389,0 3.76797,0 -0.25582,0.85529 -0.47262,1.58008 -0.82131,2.30415 z"
       id="path36"
       style="stroke-width:0.310269" />
  </g>
</svg>
